<svg width="249" height="39" viewBox="0 0 249 39" fill="none" xmlns="http://www.w3.org/2000/svg">
<g id="Group 1000003431">
<path id="polygon904" d="M22.8696 24.4153H19.951V8.61401L11.3536 21.8607L3.10596 8.64774V24.4153H0.181641V3.99609H3.57487L11.3785 16.3212L19.2611 3.99609H22.8696V24.4153Z" fill="#8B929D"/>
<path id="polygon906" d="M103.783 7.10009H88.6577V12.5057H98.049V15.5412H88.6577V24.4153H85.6372V3.99609H103.788L103.783 7.10009Z" fill="#8B929D"/>
<path id="polygon908" d="M168.824 7.10009H159.794V24.4153H156.698V7.10009H147.649V3.99609H168.824V7.10009Z" fill="#8B929D"/>
<path id="path910" d="M181.292 3.99609C174.334 3.99609 168.823 8.30935 168.823 14.2073C168.823 20.1052 174.459 24.4153 181.315 24.4153C188.171 24.4153 193.78 20.148 193.78 14.2073C193.78 8.26655 188.243 3.99609 181.292 3.99609ZM181.311 21.2217C176.048 21.2217 171.933 18.1839 171.933 14.2067C171.933 10.2205 176.048 7.19445 181.296 7.19445C186.532 7.19445 190.67 10.1423 190.67 14.2067C190.67 18.2711 186.577 21.2222 181.311 21.2222V21.2217Z" fill="#8B929D"/>
<path id="path912" d="M135.601 3.99609C128.806 3.99609 123.449 8.4888 123.449 14.5764C123.449 20.6722 128.844 25.1715 135.601 25.1715C140.115 25.1715 143.989 23.1586 146.137 20.109L143.822 17.9174C142.358 20.3128 139.23 21.8535 135.601 21.8535C130.472 21.8535 126.459 18.7623 126.459 14.5748C126.459 10.3971 130.522 7.30371 135.601 7.30371C138.758 7.30371 141.496 8.55235 143.096 10.2875L145.399 8.10692C143.192 5.5795 139.655 3.99609 135.601 3.99609Z" fill="#8B929D"/>
<path id="path914" d="M45.224 24.4153H48.5809L38.0748 3.99609H35.6405L25.1367 24.4153H28.4881L31.8304 17.9184H41.8841L45.224 24.4153ZM33.3718 14.902L36.8578 8.11137L40.3403 14.902H33.3718Z" fill="#8B929D"/>
<path id="path916" d="M119.345 24.4153H122.694L112.19 3.99609H109.752L99.2495 24.4153H102.605L105.944 17.9184H116.002L119.345 24.4153ZM107.488 14.902L110.969 8.11137L114.453 14.902H107.488Z" fill="#8B929D"/>
<path id="polygon918" d="M63.8491 13.7476L72.7312 3.99609H68.6657L61.8104 11.5162L54.9616 3.99609H50.8924L59.7798 13.7476L50.0938 24.4153H54.1593L61.8104 15.9829L69.4671 24.4153H73.538L63.8491 13.7476Z" fill="#8B929D"/>
<path id="path920" d="M196.805 3.99609V24.4153H199.877V16.2675H208.284L214.329 24.4153H217.98L211.928 16.1846C214.646 16.189 217.532 13.3827 217.532 10.1364C217.532 6.89012 214.999 3.99609 210.988 3.99609H196.805ZM199.874 7.15731H211.43C212.714 7.15731 214.405 8.26452 214.405 10.1809C214.405 12.4945 212.669 13.2277 211.159 13.2277H199.877L199.874 7.15785V7.15731Z" fill="#8B929D"/>
<path id="path922" d="M242.67 26.779C242.498 26.6226 242.32 26.4602 242.154 26.297C242.154 26.297 241.251 25.4284 240.817 24.9064C240.692 24.7472 238.697 22.3628 238.697 22.3628L237.303 20.7022C236.689 19.9679 236.143 19.2907 235.633 18.6325C235.205 18.0773 234.648 17.6549 234.808 17.0116C234.958 16.3748 237.273 13.4211 238.377 12.0782C238.377 12.0782 239.276 11.0013 240.562 9.46593V9.48001C242.949 6.63963 246.697 2.22383 248.646 0.214844C248.646 0.214844 246.607 0.336141 244.449 2.61877C243.387 3.74691 233.743 13.5644 233.407 13.8572C232.905 14.2976 232.489 14.1557 232.122 13.8034C231.835 13.5276 230.882 12.2807 230.352 11.4644C229.656 10.3908 228.905 9.32658 228.358 8.17245C228.328 8.10314 228.296 8.05296 228.273 8.00603L228.271 7.99917L228.268 7.99195L228.228 7.91975C228.073 7.60243 228.002 7.47247 227.952 7.24539C227.905 7.04323 227.858 6.7353 227.765 6.11654L227.735 5.89632L227.728 5.88982V5.87899C227.615 4.47577 227.265 3.43355 226.692 2.77617C226.188 2.1852 225.608 2.06896 225.412 2.04838C225.405 2.04768 225.398 2.04768 225.391 2.04838C225.31 2.0389 225.228 2.03637 225.147 2.0408C224.389 2.14549 223.752 2.60902 223.249 3.4285C223.157 3.59967 223.078 3.77755 223.013 3.96062C222.879 4.32556 222.785 4.70377 222.732 5.08876C222.621 5.98477 222.789 6.75407 223.229 7.37752C223.486 7.69521 223.934 8.10314 224.371 8.50097C224.675 8.78074 224.96 9.03742 225.179 9.26088C226.16 10.2717 226.92 11.4529 227.708 12.6023C228.302 13.4749 228.98 14.299 229.569 15.1806C229.701 15.3933 229.826 15.5857 229.927 15.7626C229.943 15.783 229.956 15.8054 229.966 15.8293C230.4 16.5441 230.55 17.0207 229.977 17.8567C229.733 18.2177 228.657 19.556 228.087 20.2834C227.222 21.3919 226.365 22.503 225.518 23.6166C223.929 25.6977 222.38 27.8136 221.011 30.0284C220.281 31.2045 219.237 32.5788 219.309 34.0322C219.429 36.5232 222.296 36.6535 223.894 35.4181C224.559 34.9062 224.925 34.3987 224.475 34.0582C223.629 33.4193 223.791 32.4384 225.11 29.9709C225.589 29.0544 229.062 24.3729 231.84 20.6816C231.84 20.6816 232.149 20.269 232.143 20.2798C232.266 20.1155 232.473 19.8914 232.793 19.8914C233.1 19.8881 233.328 20.2798 233.531 20.5412C235.043 22.5393 235.649 23.3797 236.972 25.4584C237.355 26.0566 237.885 27.0956 238.226 27.7854C238.222 27.7837 238.217 27.7815 238.214 27.7789L238.22 27.7836C238.623 28.4982 238.962 29.2472 239.233 30.0219C239.5 30.7572 239.795 31.5857 240.545 32.1738C240.882 32.4288 241.283 32.5851 241.704 32.625C241.714 32.625 241.719 32.625 241.725 32.625C243.091 32.7413 244.271 31.6864 244.408 30.2291C244.419 30.1265 244.424 30.0233 244.422 29.92C244.402 29.0897 244.075 28.2955 243.425 27.5114C243.268 27.3338 242.978 27.0645 242.67 26.779Z" fill="#8B929D"/>
<path id="path924" d="M40.7651 38.6675H39.7168V31.2916H37.585V30.3857H42.909V31.2916H40.7651V38.6675Z" fill="#8B929D"/>
<path id="path926" d="M48.5882 38.6675H47.5497V34.6774H44.6566V38.6675H43.6191V30.3857H44.6566V33.773H47.5486V30.3857H48.5871L48.5882 38.6675Z" fill="#8B929D"/>
<path id="path928" d="M49.6538 30.3857H54.0079V31.2912H50.6921V33.8885H53.8191V34.7939H50.6921V37.7621H54.1496V38.6675H49.6538V30.3857Z" fill="#8B929D"/>
<path id="path930" d="M58.0527 30.3857H59.7917L61.4719 36.9508H61.4957L63.1758 30.3857H64.9148V38.6675H63.8809V31.4293H63.8575L62.0009 38.6672H60.9667L59.11 31.4293H59.0884V38.6672H58.0527V30.3857Z" fill="#8B929D"/>
<path id="path932" d="M67.9149 30.3857H69.295L71.5402 38.6675H70.4629L69.8664 36.3943H67.2003L66.5805 38.6675H65.5063L67.9149 30.3857ZM67.4122 35.5591H69.6577L68.5937 31.5575H68.5703L67.4122 35.5591Z" fill="#8B929D"/>
<path id="path934" d="M72.1309 30.3857H73.1651V34.3987H73.1886L76.0921 30.3857H77.244L74.7044 33.8422L77.4549 38.6675H76.3036L74.0351 34.6774L73.1651 35.8488V38.6675H72.1309V30.3857Z" fill="#8B929D"/>
<path id="path936" d="M78.0474 30.3857H82.4019V31.2912H79.086V33.8885H82.2131V34.7939H79.086V37.7621H82.5432V38.6675H78.0474V30.3857Z" fill="#8B929D"/>
<path id="path940" d="M87.5107 30.3857H88.5557V36.178C88.5557 37.3899 88.9587 37.955 89.9902 37.955C91.1047 37.955 91.4363 37.3318 91.4363 36.178V30.3857H92.4798V36.178C92.4798 37.7589 91.6501 38.7858 89.9902 38.7858C88.2946 38.7858 87.5122 37.8743 87.5122 36.178L87.5107 30.3857Z" fill="#8B929D"/>
<path id="path942" d="M93.4263 30.3857H95.5628C96.2908 30.3857 98.1587 30.3857 98.1587 32.7637C98.1587 34.3062 97.1611 35.1645 95.7402 35.1645H94.4607V38.6675H93.4263V30.3857ZM94.4592 34.3297H95.6919C96.4433 34.3297 97.0775 33.8192 97.0775 32.7173C97.0775 31.8115 96.643 31.2209 95.6216 31.2209H94.4592V34.3297Z" fill="#8B929D"/>
<path id="path944" d="M107.269 34.526C107.269 36.5924 106.878 38.785 104.548 38.785C102.217 38.785 101.827 36.5924 101.827 34.526C101.827 32.4596 102.217 30.2666 104.548 30.2666C106.878 30.2666 107.269 32.4596 107.269 34.526ZM102.915 34.526C102.915 36.4202 103.104 37.9584 104.548 37.9584C105.991 37.9584 106.18 36.4202 106.18 34.526C106.18 32.6317 105.991 31.0936 104.548 31.0936C103.104 31.0936 102.915 32.6317 102.915 34.526Z" fill="#8B929D"/>
<path id="path946" d="M108.215 30.3857H112.593V31.2913H109.259V33.8889H112.403V34.7945H109.259V38.6675H108.215V30.3857Z" fill="#8B929D"/>
<path id="path948" d="M116.259 30.3857H117.998L119.678 36.9508H119.702L121.382 30.3857H123.121V38.6675H122.087V31.4293H122.065L120.209 38.6672H119.175L117.316 31.4293H117.293V38.6672H116.259V30.3857Z" fill="#8B929D"/>
<path id="path950" d="M126.171 30.3857H127.577L129.865 38.6675H128.767L128.159 36.3943H125.442L124.811 38.6675H123.713L126.171 30.3857ZM125.658 35.5591H127.946L126.862 31.5575H126.838L125.658 35.5591Z" fill="#8B929D"/>
<path id="path952" d="M130.457 30.3857H131.491V34.3986H131.514L134.417 30.3857H135.569L133.03 33.8424L135.781 38.6675H134.629L132.36 34.6775L131.491 35.849V38.6675H130.457V30.3857Z" fill="#8B929D"/>
<path id="path954" d="M136.253 30.3857H140.607V31.2912H137.293V33.8885H140.419V34.7939H137.293V37.7621H140.749V38.6675H136.253V30.3857Z" fill="#8B929D"/>
<path id="path958" d="M145.836 30.3857H146.855V36.178C146.855 37.3899 147.249 37.955 148.256 37.955C149.345 37.955 149.669 37.3318 149.669 36.178V30.3857H150.687V36.178C150.687 37.7589 149.877 38.7858 148.256 38.7858C146.601 38.7858 145.836 37.8743 145.836 36.178V30.3857Z" fill="#8B929D"/>
<path id="path960" d="M151.752 30.3857H153.889C154.617 30.3857 156.484 30.3857 156.484 32.7637C156.484 34.3062 155.487 35.1645 154.066 35.1645H152.787V38.6675H151.753L151.752 30.3857ZM152.786 34.3297H154.017C154.768 34.3297 155.402 33.8192 155.402 32.7173C155.402 31.8115 154.967 31.2209 153.946 31.2209H152.784L152.786 34.3297Z" fill="#8B929D"/>
<path id="path962" d="M161.496 30.3857H162.877L165.122 38.6675H164.045L163.448 36.3943H160.784L160.164 38.6675H159.088L161.496 30.3857ZM160.993 35.5591H163.239L162.175 31.5575H162.151L160.993 35.5591Z" fill="#8B929D"/>
<path id="path964" d="M165.594 30.3857H168.332C169.659 30.3857 170.501 31.1513 170.501 32.4623C170.501 33.3681 170.181 34.3181 169.197 34.55V34.5732C169.932 34.6544 170.347 35.2457 170.395 35.9533L170.467 37.3682C170.515 38.2849 170.669 38.5164 170.918 38.6675H169.661C169.483 38.4936 169.4 37.8787 169.377 37.4718L169.304 36.1845C169.221 35.0475 168.581 34.9783 168.047 34.9783H166.637V38.6664H165.594V30.3857ZM166.637 34.1438H167.668C168.284 34.1438 169.41 34.1438 169.41 32.5434C169.41 31.7314 168.854 31.2209 167.881 31.2209H166.637V34.1438Z" fill="#8B929D"/>
<path id="path966" d="M174.146 38.6675H173.121V31.2916H171.036V30.3857H176.242V31.2916H174.146V38.6675Z" fill="#8B929D"/>
<path id="path968" d="M176.951 30.3857H178.016V38.6675H176.951V30.3857Z" fill="#8B929D"/>
<path id="path970" d="M183.003 32.551C183.003 31.6903 182.682 31.0936 181.684 31.0936C180.804 31.0936 180.281 31.5526 180.281 32.4248C180.281 34.7326 184.287 33.3551 184.287 36.351C184.287 38.2456 182.849 38.785 181.648 38.785C179.664 38.785 179.081 37.7977 179.081 36.0527H180.127C180.127 36.9714 180.186 37.9584 181.719 37.9584C182.552 37.9584 183.194 37.3846 183.194 36.512C183.194 34.1928 179.188 35.5359 179.188 32.5284C179.188 31.7707 179.521 30.2666 181.672 30.2666C183.289 30.2666 184.025 31.0473 184.049 32.551H183.003Z" fill="#8B929D"/>
<path id="path972" d="M187.586 38.6675H186.537V31.2916H184.405V30.3857H189.729V31.2916H187.585L187.586 38.6675Z" fill="#8B929D"/>
<path id="path974" d="M194.036 32.551C194.036 31.6903 193.723 31.0936 192.747 31.0936C191.887 31.0936 191.376 31.5526 191.376 32.4248C191.376 34.7326 195.291 33.3551 195.291 36.351C195.291 38.2456 193.885 38.785 192.712 38.785C190.772 38.785 190.203 37.7977 190.203 36.0527H191.225C191.225 36.9714 191.283 37.9584 192.781 37.9584C193.595 37.9584 194.222 37.3846 194.222 36.512C194.222 34.1928 190.308 35.5359 190.308 32.5284C190.308 31.7707 190.633 30.2666 192.735 30.2666C194.315 30.2666 195.035 31.0473 195.058 32.551H194.036Z" fill="#8B929D"/>
</g>
</svg>
