<svg width="193" height="39" viewBox="0 0 193 39" fill="none" xmlns="http://www.w3.org/2000/svg">
<g clip-path="url(#clip0_1973_22699)">
<path d="M34.2571 0.117176H38.5211V26.1204H34.2571V0.117176ZM79.5356 0.124987L67.584 16.4632L54.9741 0.124987H53.4422V26.1439H54.4509V5.82168L65.7128 21.2205L76.9763 5.82168V26.1439H80.9984V0.124987H79.5356ZM120.929 0.124987L108.974 16.4632L96.3672 0.124987H94.8338V26.1439H95.8409V5.82168L107.104 21.2205L118.366 5.82168V26.1439H122.388V0.124987H120.929ZM135.232 0.124987V26.1439H158.476V24.8706H139.504V12.903H150.87V11.7039H139.504V1.14637H157.318V0.124987H135.232ZM170.264 0.124987V26.1439H193V24.8706H174.475V0.124987H170.264ZM12.7953 13.6705C16.3948 13.6705 17.2401 10.1552 17.2401 7.37621C17.2401 4.6636 16.3964 0.994041 12.954 0.994041H4.32377V13.6705H12.7953ZM0 0H13.0074C18.6164 0 21.3675 2.71653 21.3675 7.28247C21.3675 10.9677 19.3517 13.9732 15.8685 14.6528L23.0093 26.1497H18.4059L11.265 14.7036H4.32377V26.1497H0V0Z" fill="#8B929D"/>
<path d="M187.251 30.6924L187.204 30.751V38.7678L187.251 38.8264H188.092L188.139 38.7678V32.5516L191.971 38.7678L192.065 38.8264H192.953L193 38.7678V30.751L192.953 30.6924H192.111L192.064 30.751V36.9672L188.232 30.751L188.137 30.6924H187.251ZM179.044 31.7372C179.526 31.7256 180 31.8928 180.406 32.2174C180.812 32.542 181.131 33.0095 181.322 33.5602C181.513 34.1109 181.569 34.7199 181.48 35.3096C181.392 35.8994 181.165 36.4432 180.827 36.8717C180.49 37.3003 180.057 37.5942 179.584 37.716C179.112 37.8379 178.621 37.7821 178.174 37.5559C177.727 37.3296 177.344 36.9432 177.075 36.4457C176.805 35.9481 176.661 35.3622 176.66 34.7623C176.657 34.3693 176.716 33.9792 176.834 33.6145C176.952 33.2498 177.126 32.9176 177.348 32.637C177.569 32.3563 177.833 32.1327 178.124 31.979C178.415 31.8253 178.727 31.7444 179.044 31.7411M179.044 30.5206C178.371 30.5313 177.715 30.7893 177.16 31.262C176.604 31.7347 176.174 32.401 175.922 33.177C175.671 33.9531 175.61 34.8043 175.746 35.6236C175.883 36.4428 176.212 37.1935 176.691 37.7812C177.17 38.3689 177.778 38.7673 178.439 38.9264C179.1 39.0854 179.784 38.998 180.405 38.6751C181.026 38.3522 181.556 37.8083 181.929 37.1117C182.302 36.4151 182.5 35.597 182.5 34.7604C182.492 33.6291 182.124 32.5478 181.476 31.7532C180.828 30.9586 179.954 30.5153 179.044 30.5206ZM166.475 31.8564H167.783C169.185 31.8564 170.167 33.1336 170.167 34.7604C170.167 36.3872 169.185 37.6644 167.783 37.6644H166.475V31.8564ZM165.587 30.6944L165.54 30.753V38.7697L165.587 38.8283H167.786C169.796 38.8283 171.243 37.0277 171.243 34.7623C171.243 32.4969 169.794 30.6963 167.786 30.6963L165.587 30.6944ZM154.746 30.6944L154.699 30.753V38.7697L154.746 38.8283H155.588L155.635 38.7697V32.5516L159.47 38.7678L159.563 38.8264H160.451L160.498 38.7678V30.751L160.451 30.6924H159.61L159.563 30.751V36.9672L155.731 30.751L155.637 30.6924L154.746 30.6944ZM146.538 31.7392C147.021 31.7275 147.495 31.8948 147.901 32.2195C148.307 32.5442 148.626 33.0118 148.817 33.5626C149.008 34.1134 149.063 34.7225 148.975 35.3123C148.887 35.9021 148.659 36.4459 148.322 36.8744C147.984 37.3029 147.551 37.5966 147.078 37.7182C146.606 37.8399 146.115 37.7838 145.668 37.5573C145.221 37.3307 144.838 36.944 144.569 36.4462C144.3 35.9484 144.155 35.3622 144.155 34.7623C144.151 34.3693 144.21 33.9792 144.328 33.6145C144.446 33.2498 144.621 32.9176 144.842 32.637C145.064 32.3563 145.328 32.1327 145.619 31.979C145.91 31.8253 146.222 31.7444 146.538 31.7411M146.538 30.5206C145.865 30.5313 145.21 30.7893 144.655 31.262C144.099 31.7347 143.669 32.401 143.417 33.177C143.166 33.9531 143.104 34.8043 143.241 35.6236C143.378 36.4428 143.706 37.1935 144.185 37.7812C144.665 38.3689 145.273 38.7673 145.934 38.9264C146.594 39.0854 147.278 38.998 147.899 38.6751C148.52 38.3522 149.051 37.8083 149.423 37.1117C149.796 36.4151 149.995 35.597 149.995 34.7604C149.987 33.6291 149.619 32.5478 148.971 31.7532C148.323 30.9586 147.449 30.5153 146.538 30.5206ZM135.269 30.6944L135.231 30.7412V38.7814L135.269 38.8283H139.214L139.251 38.7814V37.7249L139.214 37.6663H136.166V30.7393L136.128 30.6924L135.269 30.6944Z" fill="#8B929D"/>
</g>
<defs>
<clipPath id="clip0_1973_22699">
<rect width="193" height="39" fill="white"/>
</clipPath>
</defs>
</svg>
