<svg width="234" height="39" viewBox="0 0 234 39" fill="none" xmlns="http://www.w3.org/2000/svg">
<path id="Vector" fill-rule="evenodd" clip-rule="evenodd" d="M14.2148 11.2376C20.4327 11.8454 19.5802 21.5543 14.9573 23.1961C14.1949 23.4658 13.2497 23.6026 12.1228 23.6026H0.181641V23.0474C0.818006 22.8054 1.00361 22.4436 1.00361 21.7858V1.81811C1.00361 1.16033 0.818006 0.79723 0.181641 0.555166V0H10.4762C11.611 0 12.5258 0.121031 13.2152 0.348625C17.3847 1.72997 17.9548 8.87613 14.2148 11.2376ZM4.8165 9.39052H9.97902C11.912 9.39052 12.783 8.60776 12.783 6.64098C12.783 4.68736 11.9584 3.89013 9.97902 3.89013H4.8165V9.39052ZM4.8165 19.7125H11.2889C13.5599 19.7125 14.7968 19.302 14.7968 16.9077C14.7968 14.5094 13.5559 13.2807 11.2889 13.2807H4.8165V19.7125ZM42.085 0C46.2307 0 49.5146 1.11033 51.946 3.33496C54.51 5.66614 55.7934 8.6709 55.7934 12.3598C55.8008 14.6006 55.1609 16.7966 53.9492 18.6876C51.5403 22.5173 47.5962 24.4314 42.1181 24.4314C38.003 24.4314 34.7376 23.3211 32.3049 21.0964C31.0087 19.9087 29.9967 18.4483 29.3431 16.8222C28.7531 15.3542 28.4524 13.7875 28.4575 12.2072C28.4575 9.84571 29.07 7.68554 30.2897 5.72535C32.6217 1.97729 36.5526 0.0710407 42.085 0ZM42.1036 3.99537C39.8365 3.99537 37.9513 4.66237 36.4412 6.00162C34.6514 7.57635 33.7592 9.64837 33.7592 12.2045C33.7592 14.7594 34.6514 16.8314 36.4412 18.4074C37.9526 19.748 39.8498 20.415 42.1327 20.415C44.4236 20.415 46.3142 19.7467 47.8136 18.4074C48.7171 17.6037 49.4212 16.6037 49.8712 15.4855C50.2848 14.4771 50.4968 13.3985 50.4956 12.3098C50.4956 9.63522 49.6034 7.52899 47.8136 6.0003C46.2903 4.68605 44.3865 4.01905 42.1036 3.99537ZM87.2047 1.81811V15.0448C87.2047 17.5405 86.8334 19.4217 86.0817 20.6636C83.2764 25.3089 70.6658 25.7022 68.7275 19.3296C68.3643 18.1351 68.1959 16.7024 68.1959 15.0448V1.81811C68.1959 0.493333 67.293 1.09324 67.293 0H73.2974C73.2974 1.09192 72.3853 0.482808 72.3853 1.81811V13.5872C72.3853 18.2732 73.5546 20.0032 77.87 20.0032C82.2039 20.0032 83.3507 18.2772 83.3507 13.5872V1.81811C83.3507 0.493333 82.4478 1.09324 82.4478 0H88.1062C88.1075 1.09324 87.2047 0.493333 87.2047 1.81811ZM132.921 1.00378C132.753 0.820915 132.467 0.673567 132.046 0.555166V0H139.475V0.555166C139.059 0.672251 138.769 0.820915 138.6 1.00378C138.44 1.18664 138.357 1.45896 138.357 1.81811V15.7171C138.357 19.6993 138.536 21.3175 137.169 23.4434C134.613 27.4204 127.769 27.673 126.726 24.1288C127.565 24.6248 132.922 29.6661 133.274 19.1691C133.292 18.6666 133.165 16.4485 133.165 15.4566V1.81811C133.165 1.45764 133.079 1.18664 132.921 1.00378ZM164.872 0C169.017 0 172.301 1.11033 174.733 3.33496C177.297 5.66614 178.583 8.6709 178.583 12.3598C178.59 14.6009 177.949 16.7971 176.736 18.6876C174.328 22.5173 170.384 24.4314 164.908 24.4314C160.791 24.4314 157.526 23.3211 155.094 21.0964C153.798 19.9091 152.786 18.4486 152.133 16.8222C151.542 15.3544 151.241 13.7876 151.247 12.2072C151.247 9.84571 151.858 7.68554 153.078 5.72535C155.407 1.97729 159.341 0.0710407 164.872 0ZM164.889 3.99537C162.621 3.99537 160.735 4.66237 159.227 6.00162C157.437 7.57635 156.545 9.64837 156.545 12.2045C156.545 14.7594 157.438 16.8314 159.227 18.4074C160.737 19.748 162.634 20.415 164.918 20.415C167.21 20.415 169.1 19.7467 170.599 18.4074C171.502 17.603 172.207 16.6033 172.658 15.4855C173.072 14.4771 173.284 13.3985 173.282 12.3098C173.282 9.63522 172.389 7.52899 170.6 6.0003C169.076 4.68605 167.173 4.01905 164.889 3.99537ZM194.245 21.7858V1.79969C194.245 1.45107 194.163 1.18533 194.001 1.00378C193.836 0.820915 193.548 0.673567 193.126 0.555166V0H200.556V0.555166C200.14 0.661727 199.849 0.802491 199.684 0.997195C199.523 1.18664 199.44 1.45238 199.44 1.79969V21.7858C199.44 22.1449 199.522 22.416 199.693 22.6054C199.861 22.8001 200.146 22.9422 200.555 23.0474V23.6026H193.125V23.0474C193.547 22.929 193.834 22.783 194 22.6001C194.162 22.416 194.245 22.1463 194.245 21.7858ZM232.622 2.40222L230.68 7.95655L230.349 7.67897C230.356 7.56188 230.359 7.47374 230.359 7.4027C230.359 7.01329 230.128 6.58836 229.668 6.13975C228.252 4.71236 226.593 3.99801 224.686 3.99801C223.842 3.99801 223.105 4.14535 222.456 4.44662C221.986 4.67882 221.592 5.03935 221.32 5.48592C221.032 5.94636 220.885 6.44759 220.885 6.99092C220.885 7.8763 221.255 8.47752 221.991 8.80247C222.374 8.96165 223.192 9.13793 224.449 9.32211L226.321 9.59838C227.432 9.7694 228.331 10.0062 229.019 10.3075C229.706 10.6087 230.317 11.0271 230.844 11.5704C231.385 12.1308 231.812 12.8741 232.126 13.8016C232.439 14.7212 232.597 15.7066 232.597 16.7524C232.597 18.4179 232.227 19.8927 231.491 21.1793C230.823 22.3581 229.788 23.2277 228.378 23.7947C227.307 24.223 226.162 24.4393 225.007 24.4314C222.855 24.4314 220.731 23.6815 218.631 22.1805C218.189 21.8792 217.922 21.7332 217.833 21.7332C217.733 21.7332 217.569 21.8568 217.344 22.1107L216.999 21.8516L218.76 16.0605L219.107 16.3038V16.5275C219.107 17.0471 219.278 17.5247 219.618 17.9614C220.136 18.6284 220.933 19.2073 222.016 19.6901C223.093 20.1729 224.119 20.4176 225.087 20.4176C226.146 20.4176 227.047 20.1558 227.792 19.6362C228.206 19.348 228.538 18.9705 228.781 18.4864C229.024 18.0254 229.151 17.5132 229.151 16.9932C229.151 16.2078 228.861 15.6526 228.282 15.3172C227.877 15.0869 227.059 14.8751 225.826 14.6804L223.991 14.4015C222.759 14.2187 221.889 14.0424 221.381 13.8766C220.834 13.6877 220.319 13.4152 219.856 13.0688C219.137 12.5545 218.566 11.7756 218.155 10.7377C217.78 9.80492 217.593 8.7301 217.593 7.52109C217.593 5.52669 218.067 3.87961 219.015 2.57588C220.25 0.85775 222.109 0.00131485 224.589 0.00131485C225.627 0.00131485 226.599 0.155234 227.494 0.461762C228.393 0.763027 229.511 1.33004 230.86 2.14306C231.319 2.4088 231.599 2.54562 231.705 2.54562C231.873 2.54562 232.063 2.4088 232.287 2.14306L232.622 2.40222ZM103.036 13.97V21.8016C103.036 22.929 103.835 22.6593 103.835 23.6026H98.5253C98.5253 22.6567 99.3248 22.9317 99.3248 21.8016V1.81811C99.3248 0.669619 98.5253 0.947209 98.5253 0H109.162C113.609 0 115.481 2.70744 115.381 7.75132C115.292 12.2835 112.919 13.0439 109.443 13.7819C110.205 14.7015 116.374 22.9816 117.113 23.0474V23.6026H112.179C109.866 20.2216 107.156 17.1774 104.668 13.97H103.036ZM103.036 10.0812H108.767C111.035 10.0812 111.849 9.26291 111.965 6.98303C112.087 4.59001 111.031 3.89013 108.767 3.89013H103.036V10.0812ZM66.1635 33.0194C67.008 33.0247 67.6377 33.1405 68.054 33.3615C68.469 33.5851 68.7527 33.8285 68.9078 34.0943C68.9953 34.2403 69.0536 34.3824 69.0841 34.5205C69.1146 34.6586 69.1279 34.777 69.1279 34.8797C69.1279 34.9125 69.1266 34.9494 69.1226 34.9849C69.1186 35.0204 69.1173 35.0599 69.1173 35.098C69.059 35.5401 68.8177 35.9413 68.3961 36.3084C67.9732 36.6754 67.3249 36.8583 66.4512 36.8583H65.4476V38.9395H63.8832V33.0194H66.1635ZM66.1635 35.8518C66.5387 35.8571 66.8171 35.8032 67.0014 35.6874C67.1595 35.5963 67.2921 35.4674 67.3872 35.3125C67.4494 35.1889 67.4795 35.0519 67.4747 34.9139C67.475 34.8914 67.4732 34.8689 67.4694 34.8468C67.4654 34.8211 67.4637 34.7951 67.4641 34.7691C67.4269 34.5836 67.3089 34.4126 67.1101 34.2574C66.9125 34.1035 66.5957 34.0232 66.1635 34.0232H65.4462V35.8505L66.1635 35.8518ZM93.2859 33.0194L96.3498 38.9395H94.6196L93.9355 37.6108H90.7511L90.0683 38.9395H88.4257L91.5001 33.0194H93.2859ZM93.4622 36.6149L92.6363 34.8139L92.3711 34.2127H92.3486L92.0848 34.8139L91.2482 36.6149H93.4622ZM119.041 33.0194C120.017 33.0247 120.691 33.176 121.058 33.4746C121.423 33.7759 121.625 34.1021 121.664 34.456C121.669 34.4889 121.674 34.5205 121.674 34.5508V34.6323C121.674 35.0099 121.519 35.3283 121.205 35.5861C120.891 35.844 120.524 35.9795 120.097 35.9953V36.0058C120.221 36.0225 120.341 36.0627 120.449 36.1242C120.582 36.1913 120.721 36.3583 120.868 36.6228L122.202 38.9408H120.449L119.458 37.199C119.37 37.0411 119.248 36.9049 119.1 36.8004C118.958 36.6978 118.745 36.6491 118.467 36.6491H117.872V38.9408H116.306V33.0207L119.041 33.0194ZM117.874 35.6414H118.71C119.142 35.6466 119.471 35.5664 119.691 35.3967C119.911 35.227 120.02 35.0375 120.02 34.8283C120.021 34.7076 119.99 34.5887 119.928 34.4843C119.867 34.3799 119.779 34.2937 119.673 34.235C119.442 34.0916 119.142 34.0166 118.776 34.0166H117.872L117.874 35.6414ZM142.329 33.0194H143.893V38.9395H142.329V33.0194ZM163.973 38.7185L164.139 37.67C164.263 37.7213 164.389 37.7647 164.524 37.8015C164.846 37.8895 165.175 37.9511 165.507 37.9857C165.696 38.0068 165.877 38.016 166.045 38.016H166.154C166.441 37.9975 166.7 37.9291 166.933 37.8081C167.164 37.6871 167.281 37.5305 167.281 37.3411C167.281 37.0819 167.139 36.8806 166.851 36.7425C166.478 36.5679 166.091 36.4223 165.695 36.307C165.578 36.2689 165.462 36.2268 165.348 36.1886C165.234 36.1505 165.122 36.1071 165.011 36.0623C164.695 35.9308 164.459 35.7795 164.307 35.6098C164.165 35.4572 164.055 35.2772 163.986 35.0809C163.958 34.9967 163.938 34.9099 163.926 34.8218C163.916 34.7397 163.911 34.6571 163.911 34.5744C163.915 34.3428 163.982 34.1167 164.107 33.9206C164.246 33.6943 164.49 33.4891 164.84 33.3036C165.19 33.1155 165.696 33.0234 166.367 33.0234C166.727 33.0234 167.057 33.0418 167.359 33.0747C167.702 33.1114 168.044 33.1645 168.382 33.2339C168.458 33.2523 168.52 33.2641 168.569 33.2773L168.406 34.2153C168.274 34.1916 168.129 34.1692 167.977 34.1429C167.822 34.1166 167.669 34.0942 167.513 34.0706C167.376 34.055 167.238 34.0431 167.1 34.0351C166.974 34.025 166.847 34.0197 166.72 34.0193C166.272 34.0193 165.967 34.0758 165.804 34.189C165.643 34.3021 165.562 34.4258 165.562 34.5613C165.56 34.6368 165.574 34.712 165.604 34.7817C165.633 34.8514 165.677 34.914 165.734 34.9652C165.907 35.125 166.119 35.2367 166.35 35.2888C166.428 35.3111 166.492 35.3322 166.544 35.348C167.269 35.5453 167.848 35.7874 168.279 36.0755C168.71 36.3636 168.923 36.7741 168.923 37.3108C168.922 37.3596 168.919 37.4084 168.913 37.4568L168.889 37.5976C168.808 37.9528 168.56 38.2738 168.145 38.5632C167.731 38.8566 167.107 39 166.276 39C166.056 38.9992 165.835 38.993 165.616 38.9816C165.337 38.9653 165.06 38.9363 164.784 38.8948C164.511 38.8529 164.24 38.7945 163.974 38.7198L163.973 38.7185ZM0.483915 35.3559H61.9436V36.6714H0.483915V35.3559ZM171.723 35.3559H233.182V36.6714H171.723V35.3559Z" fill="#8B929D"/>
</svg>
