<svg width="157" height="39" viewBox="0 0 157 39" fill="none" xmlns="http://www.w3.org/2000/svg">
<path id="Vector" fill-rule="evenodd" clip-rule="evenodd" d="M10.1819 8.86057L6.95621 12.2833C9.99295 15.9454 13.1438 19.5264 16.1786 23.2296L19.2547 27.2081V27.4073C18.493 27.3683 17.8101 27.2513 17.1666 27.2513C16.4442 27.2513 15.726 27.3683 15.041 27.4073C14.2046 26.1346 13.3711 24.9357 12.4215 23.7842L4.1488 13.6351C3.95887 13.477 3.50427 13.3546 3.50427 13.5181V27.4073C2.89814 27.3683 2.3708 27.2513 1.84346 27.2513C1.27571 27.2513 0.709988 27.3683 0.181641 27.4073V0.19191C0.709988 0.231979 1.27571 0.342702 1.84346 0.342702C2.3708 0.342702 2.89814 0.231979 3.50427 0.19191V12.4805C3.53963 12.7199 4.07202 12.5606 4.45287 12.2411C5.13679 11.6855 5.93285 10.8514 6.46524 10.2925L15.8007 0.190856C16.2937 0.230925 16.7887 0.341648 17.3191 0.341648C17.7747 0.341648 18.2677 0.230925 18.7971 0.190856L10.1819 8.86057ZM25.3928 15.0144H30.1429C31.0642 15.0144 31.9522 14.8868 32.8705 14.8562C32.8402 15.1114 32.7624 15.4003 32.7624 15.6903C32.7624 15.9454 32.8402 16.2344 32.8705 16.5887C31.9522 16.5581 31.0642 16.4284 30.1429 16.4284H25.3928V25.8257C27.2638 25.89 29.1014 25.7613 30.941 25.6939C31.886 25.6635 32.828 25.5666 33.7605 25.4039C33.7292 25.7624 33.6787 26.0503 33.6787 26.3698C33.6787 26.6914 33.7292 27.0119 33.7605 27.3335H22.6905V5.42938H33.5756C33.5423 5.78157 33.5009 6.07154 33.5009 6.39421C33.5009 6.71476 33.5423 7.03426 33.5756 7.35692C32.6553 7.16396 31.737 7.07011 30.8177 7.00368L27.7507 6.9383H25.3928V15.0144ZM40.5098 6.62408C41.7969 6.55765 43.882 6.46169 45.0154 6.65466C47.3147 7.0427 48.3896 8.4873 48.3896 10.7111C48.3896 13.2197 46.7015 14.8256 44.4628 15.3096C42.9 15.6312 40.9382 15.5036 40.5088 15.472L40.5098 6.62408ZM37.8075 27.4432C38.2388 27.4126 38.6975 27.3325 39.1582 27.3325C39.5885 27.3325 40.0178 27.4126 40.5098 27.4432V16.6962H41.6736L44.1264 19.7214L47.7451 24.6499C48.4011 25.5717 49.0454 26.5025 49.6776 27.4421C50.2343 27.4116 50.8485 27.3314 51.4324 27.3314C52.0163 27.3314 52.5669 27.4116 53.2124 27.4421L52.6265 26.6429L51.1556 24.8408L44.8316 16.44C47.9279 15.8569 51.1253 14.0548 51.1253 10.321C51.1253 7.07116 49.0341 5.43149 44.3103 5.43149H37.8065L37.8075 27.4432ZM67.2333 17.3827H60.482L63.8268 9.14844L67.2333 17.3827ZM64.932 4.94117H64.2279L54.6591 27.4421C54.9955 27.4116 55.3329 27.3314 55.7319 27.3314C56.0996 27.3314 56.437 27.4116 56.8654 27.4421C57.7241 24.4169 58.8283 21.5752 59.9001 18.7324H67.692C68.9214 21.6711 70.0226 24.7733 70.9126 27.4421C71.4318 27.4116 71.9521 27.3314 72.536 27.3314C73.0573 27.3314 73.5482 27.4116 74.1281 27.4421L64.932 4.94117ZM77.0941 23.0851C78.2862 25.1424 79.6611 26.4278 82.0462 26.4278C84.5264 26.4278 86.2983 24.2735 86.2983 21.7344C86.2983 15.7535 76.7305 18.3897 76.7305 11.1245C76.7305 6.97626 79.844 4.94328 83.5141 4.94328C84.984 4.94328 86.7579 5.42938 87.8924 6.49333C87.5257 7.32951 87.3105 8.22896 87.0661 9.12946H86.7579C86.1144 7.39383 84.7688 6.33094 82.9656 6.33094C80.8542 6.33094 79.1105 7.81139 79.1105 10.0943C79.1105 16.0087 88.7531 13.632 88.7531 20.4806C88.7531 25.0791 85.3497 27.8186 81.1906 27.8186C79.6914 27.8186 77.2487 27.1385 76.2061 25.949C76.5122 25.0158 76.6678 24.05 76.788 23.0862L77.0941 23.0851ZM100.696 27.5086C100.205 27.4759 99.7767 27.4158 99.3443 27.4158C98.8847 27.4158 98.423 27.4759 97.9947 27.5086V6.97521C94.8993 6.97521 93.0284 7.16923 91.2817 7.36114C91.311 7.03953 91.3747 6.71898 91.3747 6.39421C91.3747 6.07576 91.312 5.78684 91.2817 5.4336H107.102C107.071 5.78684 106.972 6.07576 106.972 6.39421C106.972 6.71898 107.071 7.03953 107.102 7.36114C104.976 7.09808 102.836 6.9692 100.695 6.97521V27.5086H100.696ZM119.31 17.3827H112.558L115.901 9.14844L119.31 17.3827ZM117.01 4.94117H116.302L106.736 27.4421C107.074 27.4116 107.411 27.3314 107.808 27.3314C108.177 27.3314 108.514 27.4116 108.942 27.4421C109.801 24.4169 110.903 21.5752 111.977 18.7324H119.769C120.994 21.6711 122.104 24.7733 122.99 27.4421C123.511 27.4116 124.029 27.3314 124.613 27.3314C125.134 27.3314 125.625 27.4116 126.207 27.4421L117.01 4.94117ZM129.14 23.0851C130.332 25.1424 131.705 26.4278 134.092 26.4278C136.572 26.4278 138.344 24.2735 138.344 21.7344C138.344 15.7535 128.772 18.3897 128.772 11.1245C128.772 6.97626 131.89 4.94328 135.558 4.94328C137.03 4.94328 138.804 5.42938 139.938 6.49333C139.57 7.32951 139.354 8.22896 139.112 9.12946H138.804C138.16 7.39383 136.815 6.33094 135.009 6.33094C132.898 6.33094 131.156 7.81139 131.156 10.0943C131.156 16.0087 140.795 13.632 140.795 20.4806C140.795 25.0791 137.398 27.8186 133.234 27.8186C131.737 27.8186 129.292 27.1385 128.252 25.949C128.556 25.0158 128.712 24.05 128.834 23.0862L129.14 23.0851ZM147.812 15.0144H152.563C153.482 15.0144 154.37 14.8868 155.292 14.8562C155.262 15.1114 155.184 15.4003 155.184 15.6903C155.184 15.9454 155.262 16.2344 155.292 16.5887C154.37 16.5581 153.482 16.4284 152.563 16.4284H147.812V25.8257C149.683 25.89 151.523 25.7613 153.36 25.6939C154.306 25.6635 155.248 25.5666 156.182 25.4039C156.15 25.7624 156.101 26.0503 156.101 26.3698C156.101 26.6914 156.15 27.0119 156.182 27.3335H145.113V5.42938H155.996C155.966 5.78157 155.923 6.07154 155.923 6.39421C155.923 6.71476 155.966 7.03426 155.996 7.35692C155.074 7.16396 154.159 7.07011 153.239 7.00368L150.171 6.9383H147.811L147.812 15.0144ZM26.3727 3.46704L29.8388 0H32.0775L27.3476 3.46704H26.3727ZM47.3278 32.1503C47.8082 32.1251 48.2895 32.1287 48.7694 32.1608C49.5635 32.2346 49.9029 32.7988 49.9029 33.5137C49.9029 34.4427 49.322 35.1038 48.3199 35.2061C47.9903 35.2389 47.6584 35.2389 47.3289 35.2061L47.3278 32.1503ZM47.3278 35.6194C47.5794 35.6194 48.229 35.6932 48.6805 35.5973C50.0928 35.3052 50.8232 34.7263 50.8232 33.462C50.8232 32.1956 50.1827 31.7485 48.2381 31.7485H46.4459V38.8872C46.5853 38.8745 46.7379 38.8482 46.8864 38.8482C47.0278 38.8482 47.1682 38.8745 47.3289 38.8872L47.3278 35.6194ZM65.226 35.631H63.0298L64.1168 32.9664L65.226 35.631ZM64.4754 31.6115H64.2451L61.1265 38.8851C61.2366 38.8724 61.3447 38.8461 61.4771 38.8461C61.5963 38.8461 61.7074 38.8724 61.8488 38.8851C62.1287 37.9065 62.4863 36.9839 62.8399 36.0612H65.3755C65.7766 37.0145 66.1372 38.0215 66.4282 38.8851C66.5959 38.8724 66.7656 38.8461 66.9565 38.8461C67.1273 38.8461 67.2889 38.8724 67.4778 38.8851L64.4754 31.6115ZM81.0461 32.1387C81.4664 32.1176 82.1493 32.087 82.5201 32.1492C83.2717 32.2747 83.6232 32.7439 83.6232 33.4631C83.6232 34.275 83.0706 34.7938 82.3402 34.9499C81.8291 35.0532 81.1876 35.0142 81.0461 35.0036V32.1387ZM80.1662 38.8851C80.3066 38.8724 80.4562 38.8461 80.6067 38.8461C80.7491 38.8461 80.8885 38.8724 81.0471 38.8851V35.3959H81.428L82.2291 36.3807L83.4151 37.9814C83.6242 38.2756 83.8212 38.5666 84.0404 38.8851C84.2203 38.8724 84.4173 38.8461 84.6052 38.8461C84.7981 38.8461 84.9759 38.8724 85.187 38.8851L84.9971 38.6278L84.5152 38.0426L82.4615 35.3094C83.4737 35.1238 84.5051 34.5428 84.5051 33.3344C84.5051 32.2821 83.8303 31.7506 82.2897 31.7506H80.1662V38.8851ZM98.4493 31.7475C98.5897 31.758 98.7412 31.7865 98.8897 31.7865C99.0322 31.7865 99.1696 31.758 99.3302 31.7475V38.8861C99.1706 38.8735 99.0322 38.8471 98.8897 38.8471C98.7422 38.8471 98.5897 38.8735 98.4493 38.8861V31.7475ZM113.31 37.47C113.701 38.1375 114.154 38.5529 114.933 38.5529C115.742 38.5529 116.324 37.8549 116.324 37.0366C116.324 35.1027 113.187 35.9558 113.187 33.6075C113.187 32.2673 114.216 31.6093 115.413 31.6093C115.893 31.6093 116.477 31.7654 116.847 32.1081C116.727 32.3823 116.657 32.6701 116.577 32.9633H116.476C116.263 32.4033 115.824 32.0575 115.233 32.0575C114.544 32.0575 113.972 32.5373 113.972 33.2743C113.972 35.185 117.129 34.4174 117.129 36.6317C117.129 38.1185 116.014 39 114.653 39C114.162 39 113.359 38.7817 113.018 38.3969C113.119 38.0963 113.167 37.7832 113.208 37.47H113.31Z" fill="#8B929D"/>
</svg>
