<svg width="146" height="39" viewBox="0 0 146 39" fill="none" xmlns="http://www.w3.org/2000/svg">
<g id="Group">
<path id="Vector" fill-rule="evenodd" clip-rule="evenodd" d="M102.764 24.9199H99.1106L109.83 3.86858H110.338H113.484H114.04L124.759 24.9199H121.057L118.25 19.3788H105.595L102.764 24.9199ZM116.895 16.7897L111.887 6.96579L106.878 16.7897H116.895ZM86.0443 3.31205L88.5366 0.432615H94.0777L86.0443 3.31205ZM78.9062 24.9683H97.7314V22.5728H82.1486V15.2895H93.7147V12.8214H82.1486V6.23988H97.6346V3.89277H78.9062V24.9683ZM53.3058 3.86858H56.2337H67.1707C70.8728 3.86858 73.8974 6.62703 73.8974 9.9904C73.8974 12.9182 71.5987 15.3863 68.5499 15.967L75.0589 24.9441H71.2358L64.8236 16.1122H56.2337V24.9441H53.3058V16.1122V3.86858ZM67.3401 6.38506L67.5336 6.40926L67.7272 6.43345L67.9208 6.48185L68.1144 6.53024L68.2837 6.60283L68.4531 6.67542L68.6225 6.74802L68.7919 6.8448L68.9613 6.94159L69.1064 7.03837L69.2516 7.15936L69.3968 7.28034L69.5178 7.40133L69.6388 7.52231L69.7598 7.6675L69.8807 7.81268L69.9775 7.95786L70.0743 8.10304L70.1711 8.24822L70.2437 8.3934L70.3163 8.53859L70.3889 8.68377L70.4373 8.82895L70.4857 8.97413L70.5341 9.11931L70.5583 9.28869L70.5825 9.45807L70.6067 9.62745V9.79683V9.9662V10.1356V10.305L70.5825 10.4743L70.5583 10.6437L70.5341 10.8131L70.4857 10.9825L70.4373 11.1277L70.3889 11.2728L70.3163 11.418L70.2437 11.5632L70.1711 11.7084L70.0743 11.8536L69.9775 11.9987L69.8807 12.1439L69.7598 12.2891L69.6388 12.4343L69.5178 12.5553L69.3968 12.6763L69.2516 12.7972L69.1064 12.9182L68.9613 13.015L68.7919 13.1118L68.6225 13.2086L68.4531 13.2812L68.2837 13.3538L68.1144 13.4264L67.9208 13.4748L67.7272 13.5232L67.5336 13.5715L67.3401 13.5957L67.1465 13.6199H66.9287H56.403V6.36086H66.9287H67.1707L67.3401 6.38506ZM35.3033 2.63454C29.3509 2.63454 24.5357 7.44973 24.5357 13.4022C24.5357 19.3546 29.3509 24.1698 35.3033 24.1698C41.2558 24.1698 46.071 19.3546 46.071 13.4022C46.071 7.44973 41.2316 2.63454 35.3033 2.63454ZM35.3033 0.214844C27.3909 0.214844 20.9545 6.1189 20.9545 13.4022C20.9545 20.6854 27.3667 26.5895 35.3033 26.5895C43.2399 26.5895 49.6521 20.6854 49.6521 13.4022C49.6279 6.1189 43.2157 0.214844 35.3033 0.214844ZM0 24.9683V3.89277H2.68586V22.6696H18.6074V24.9683H0ZM126.284 24.9683H145.182V22.5728H129.26V3.89277H126.308V24.9683H126.284ZM58.484 38.6638H56.887L61.6054 30.461H61.8232H63.2024H63.4444L68.1628 38.6638H66.5416L65.3075 36.5102H59.7422L58.484 38.6638ZM64.6784 35.494L62.4765 31.6709L60.2746 35.494H64.6784ZM71.1874 30.461H72.4214H77.0188C78.5674 30.461 79.8499 31.5257 79.8499 32.8323C79.8499 33.9696 78.882 34.9374 77.5996 35.1552L80.3338 38.6396H78.7368L76.0268 35.2036H72.7118V38.6638H71.1632V35.2278V30.461H71.1874ZM77.0672 31.4531H77.1398L77.2124 31.4773L77.285 31.5015L77.3576 31.5257L77.4302 31.5499L77.5028 31.5741L77.5754 31.5983L77.648 31.6225L77.7205 31.6709L77.7931 31.7192L77.8415 31.7676L77.8899 31.816L77.9383 31.8644L77.9867 31.9128L78.0351 31.9612L78.0835 32.0096L78.1319 32.058L78.1803 32.1064L78.2287 32.1548L78.2529 32.2032L78.2771 32.2516L78.3013 32.3L78.3255 32.3484L78.3497 32.421L78.3739 32.4935V32.5661V32.6387V32.7113V32.7839V32.8565V32.9291V33.0017V33.0743V33.1469V33.2195L78.3497 33.292L78.3255 33.3646L78.3013 33.413L78.2771 33.4614L78.2529 33.5098L78.2287 33.5582L78.1803 33.6066L78.1319 33.655L78.0835 33.7034L78.0351 33.7518L77.9867 33.8002L77.9383 33.8486L77.8899 33.897L77.8415 33.9454L77.7931 33.9938L77.7205 34.0422L77.648 34.0905L77.5754 34.1147L77.5028 34.1389L77.4302 34.1631L77.3576 34.1873L77.285 34.2115L77.2124 34.2357L77.1398 34.2599H77.0672H76.9946H76.8979H72.7844V31.4289H76.8979H76.9946L77.0672 31.4531ZM47.5954 30.461H48.8294H53.4268C54.9754 30.461 56.2579 31.5257 56.2579 32.8323C56.2579 33.655 55.7497 34.3809 54.9996 34.8165C54.4915 35.1068 53.9592 35.1794 53.3784 35.2036C53.0881 35.2036 52.7735 35.2036 52.459 35.2036H49.144V38.6638H47.5954V35.2278V30.461ZM53.4752 31.4531H53.5478L53.6204 31.4773L53.693 31.5015L53.7656 31.5257L53.8382 31.5499L53.9108 31.5741L53.9834 31.5983L54.0559 31.6225L54.1285 31.6709L54.2011 31.7192L54.2737 31.7676L54.3221 31.816L54.3705 31.8644L54.4189 31.9128L54.4673 31.9612L54.5157 32.0096L54.5641 32.058L54.6125 32.1064L54.6367 32.1548L54.6609 32.2032L54.6851 32.2516L54.7093 32.3L54.7335 32.3484L54.7577 32.421L54.7819 32.4935L54.8061 32.5661V32.6387V32.7113V32.7839V32.8565V32.9291V33.0017V33.0743V33.1469L54.7819 33.2195L54.7577 33.292L54.7335 33.3646L54.7093 33.413L54.6851 33.4614L54.6609 33.5098L54.6367 33.5582L54.6125 33.6066L54.5641 33.655L54.5157 33.7034L54.4673 33.7518L54.4189 33.8002L54.3705 33.8486L54.3221 33.897L54.2737 33.9454L54.2011 33.9938L54.1285 34.0422L54.0559 34.0905L53.9834 34.1147L53.9108 34.1389L53.8382 34.1631L53.7656 34.1873L53.693 34.2115L53.6204 34.2357L53.5478 34.2599H53.4752H53.4026H53.3058H49.1924V31.4289H53.3058H53.4026L53.4752 31.4531ZM89.1415 36.0263L90.5449 35.9295C90.6175 36.3409 90.7627 36.6796 91.0047 36.9458C91.2466 37.2119 91.6338 37.4297 92.1419 37.5749C92.6501 37.7443 93.2308 37.8169 93.8841 37.8169C94.4648 37.8169 94.973 37.7685 95.4085 37.6233C95.844 37.5023 96.1828 37.3329 96.3764 37.1152C96.5942 36.8974 96.6909 36.6796 96.6909 36.4135C96.6909 36.1473 96.5942 35.9295 96.3764 35.7359C96.1828 35.5424 95.8199 35.373 95.3601 35.252C95.0456 35.1552 94.3922 35.0342 93.3276 34.8407C92.2871 34.6713 91.5612 34.5019 91.1498 34.3325C90.6175 34.1389 90.2062 33.8728 89.94 33.5824C89.6738 33.2679 89.5528 32.9291 89.5528 32.5661C89.5528 32.1548 89.7222 31.7676 90.0368 31.4047C90.3513 31.0417 90.8353 30.7756 91.4644 30.582C92.0935 30.3884 92.7952 30.3158 93.5453 30.3158C94.3922 30.3158 95.1181 30.4126 95.7715 30.6062C96.4248 30.7998 96.9087 31.0901 97.2475 31.4773C97.5862 31.8644 97.7798 32.3 97.804 32.7597L96.4006 32.8565C96.328 32.3484 96.0618 31.937 95.6021 31.6709C95.1665 31.4047 94.489 31.2837 93.6179 31.2837C92.6984 31.2837 92.0451 31.4047 91.6338 31.6467C91.2224 31.8886 91.0047 32.179 91.0047 32.5177C91.0047 32.8081 91.1498 33.0501 91.4402 33.2437C91.7306 33.4372 92.4807 33.6308 93.7147 33.8244C94.9246 34.018 95.7715 34.2115 96.2312 34.3567C96.8845 34.5745 97.3685 34.8648 97.7072 35.1794C98.0218 35.5182 98.167 35.9053 98.167 36.3409C98.167 36.7764 97.9976 37.1878 97.6588 37.5749C97.3201 37.9621 96.8119 38.2524 96.1586 38.4702C95.5053 38.688 94.7794 38.7848 93.9809 38.7848C92.9646 38.7848 92.0935 38.688 91.3918 38.4702C90.6901 38.2524 90.1578 37.9379 89.7464 37.5023C89.3835 37.0668 89.1657 36.5828 89.1415 36.0263ZM84.0843 32.8807H85.6087V38.6638H84.0843V32.8807ZM84.0843 30.461H85.6087V31.9854H84.0843V30.461ZM13.1389 11.2728H15.6312L19.3575 4.03796H16.1877L13.1389 11.2728Z" fill="#8B929D"/>
</g>
</svg>
