<svg width="31" height="31" viewBox="0 0 31 31" fill="none" xmlns="http://www.w3.org/2000/svg">
<circle cx="15.5" cy="15.4238" r="15" fill="#202020"/>
<path d="M12.499 14.9238C12.499 13.5432 13.6176 12.4236 14.9978 12.4236C16.3781 12.4236 17.4973 13.5432 17.4973 14.9238C17.4973 16.3045 16.3781 17.424 14.9978 17.424C13.6176 17.424 12.499 16.3045 12.499 14.9238ZM11.1478 14.9238C11.1478 17.0508 12.8714 18.775 14.9978 18.775C17.1242 18.775 18.8479 17.0508 18.8479 14.9238C18.8479 12.7968 17.1242 11.0727 14.9978 11.0727C12.8714 11.0727 11.1478 12.7968 11.1478 14.9238ZM18.1006 10.92C18.1005 11.098 18.1532 11.272 18.252 11.42C18.3508 11.5681 18.4913 11.6835 18.6557 11.7517C18.82 11.8199 19.0009 11.8378 19.1755 11.8031C19.35 11.7684 19.5104 11.6828 19.6363 11.557C19.7621 11.4312 19.8479 11.2708 19.8827 11.0963C19.9175 10.9217 19.8997 10.7407 19.8317 10.5762C19.7637 10.4118 19.6484 10.2712 19.5005 10.1722C19.3525 10.0733 19.1786 10.0204 19.0007 10.0203H19.0003C18.7618 10.0204 18.533 10.1152 18.3643 10.2839C18.1956 10.4526 18.1008 10.6814 18.1006 10.92ZM11.9687 21.0286C11.2377 20.9953 10.8404 20.8735 10.5763 20.7706C10.2263 20.6343 9.9765 20.472 9.7139 20.2096C9.4513 19.9473 9.28874 19.6977 9.15306 19.3476C9.05013 19.0836 8.92837 18.686 8.89514 17.9548C8.85879 17.1642 8.85153 16.9267 8.85153 14.9239C8.85153 12.921 8.85939 12.6842 8.89514 11.893C8.92843 11.1618 9.05109 10.765 9.15306 10.5002C9.28934 10.15 9.45166 9.90021 9.7139 9.63753C9.97615 9.37485 10.2257 9.21225 10.5763 9.07653C10.8403 8.97357 11.2377 8.85177 11.9687 8.81853C12.759 8.78217 12.9965 8.77491 14.9978 8.77491C16.9992 8.77491 17.2369 8.78277 18.0279 8.81853C18.7589 8.85183 19.1555 8.97453 19.4202 9.07653C19.7703 9.21225 20.0201 9.37521 20.2827 9.63753C20.5453 9.89985 20.7072 10.15 20.8435 10.5002C20.9464 10.7642 21.0682 11.1618 21.1014 11.893C21.1378 12.6842 21.145 12.921 21.145 14.9239C21.145 16.9267 21.1378 17.1636 21.1014 17.9548C21.0681 18.686 20.9458 19.0834 20.8435 19.3476C20.7072 19.6977 20.5449 19.9476 20.2827 20.2096C20.0204 20.4717 19.7703 20.6343 19.4202 20.7706C19.1563 20.8736 18.7589 20.9954 18.0279 21.0286C17.2375 21.065 17.0001 21.0723 14.9978 21.0723C12.9956 21.0723 12.7588 21.065 11.9687 21.0286ZM11.9066 7.46925C11.1084 7.50561 10.563 7.63221 10.0867 7.81761C9.5934 8.00907 9.1758 8.26593 8.7585 8.68269C8.3412 9.09945 8.08507 9.51783 7.89367 10.0113C7.70832 10.488 7.58176 11.0333 7.54541 11.8317C7.50846 12.6314 7.5 12.8871 7.5 14.9238C7.5 16.9606 7.50846 17.2162 7.54541 18.0159C7.58176 18.8144 7.70832 19.3596 7.89367 19.8364C8.08507 20.3295 8.34126 20.7484 8.7585 21.165C9.17574 21.5815 9.5934 21.838 10.0867 22.03C10.5639 22.2154 11.1084 22.342 11.9066 22.3784C12.7065 22.4148 12.9617 22.4238 14.9978 22.4238C17.034 22.4238 17.2896 22.4154 18.089 22.3784C18.8873 22.342 19.4324 22.2154 19.909 22.03C20.402 21.838 20.8199 21.5817 21.2372 21.165C21.6545 20.7482 21.9101 20.3295 22.102 19.8364C22.2874 19.3596 22.4145 18.8143 22.4503 18.0159C22.4866 17.2156 22.4951 16.9606 22.4951 14.9238C22.4951 12.8871 22.4866 12.6314 22.4503 11.8317C22.4139 11.0332 22.2874 10.4877 22.102 10.0113C21.9101 9.51813 21.6538 9.10011 21.2372 8.68269C20.8205 8.26527 20.402 8.00907 19.9096 7.81761C19.4324 7.63221 18.8872 7.50501 18.0896 7.46925C17.2902 7.43289 17.0346 7.42383 14.9984 7.42383C12.9623 7.42383 12.7065 7.43229 11.9066 7.46925Z" fill="white"/>
</svg>
