<svg width="31" height="31" viewBox="0 0 31 31" fill="none" xmlns="http://www.w3.org/2000/svg">
<g id="Frame 1000003307">
<circle id="Ellipse 2" cx="15.5" cy="15.4238" r="15" fill="#202020"/>
<path id="Vector" d="M14.4623 7.47399C12.0295 7.75225 9.60534 9.7689 9.50528 12.6496C9.44239 14.4085 9.9298 15.728 11.5636 16.0986C12.2725 14.8171 11.3349 14.5345 11.1891 13.6074C10.5902 9.80844 15.4657 7.2177 18.0171 9.86995C19.7824 11.7065 18.6203 17.3566 15.773 16.7693C13.0458 16.2084 17.1081 11.7109 14.9311 10.8277C13.1616 10.1101 12.2211 13.0231 13.0601 14.47C12.5684 16.9582 11.5092 19.3029 11.9381 22.4238C13.3288 21.3899 13.7977 19.4098 14.1822 17.3449C14.8811 17.7798 15.2542 18.2324 16.1461 18.3027C19.4351 18.5633 21.2718 14.9387 20.823 11.5952C20.4242 8.63096 17.5369 7.12251 14.4623 7.47399Z" fill="white"/>
</g>
</svg>
