<svg width="31" height="31" viewBox="0 0 31 31" fill="none" xmlns="http://www.w3.org/2000/svg">
<circle cx="15.5" cy="15.4238" r="15" fill="#202020"/>
<path d="M19.8817 10.6318C19.7804 10.5795 19.6819 10.5221 19.5864 10.4599C19.3086 10.2763 19.054 10.06 18.828 9.81558C18.2624 9.16843 18.0511 8.5119 17.9733 8.05223H17.9764C17.9114 7.67069 17.9383 7.42383 17.9424 7.42383H15.3663V17.3852C15.3663 17.5189 15.3663 17.6511 15.3606 17.7817C15.3606 17.798 15.3591 17.813 15.3581 17.8305C15.3581 17.8377 15.3581 17.8452 15.3566 17.8527C15.3566 17.8546 15.3566 17.8564 15.3566 17.8583C15.3294 18.2157 15.2148 18.561 15.0229 18.8637C14.831 19.1665 14.5677 19.4174 14.256 19.5945C13.9312 19.7793 13.5638 19.8762 13.1901 19.8757C11.9899 19.8757 11.0171 18.897 11.0171 17.6883C11.0171 16.4796 11.9899 15.5009 13.1901 15.5009C13.4173 15.5007 13.6431 15.5365 13.8591 15.6069L13.8623 12.9839C13.2065 12.8992 12.5402 12.9513 11.9056 13.1369C11.271 13.3226 10.6817 13.6378 10.175 14.0626C9.73093 14.4484 9.35764 14.9087 9.07188 15.4228C8.96314 15.6103 8.55284 16.3637 8.50316 17.5864C8.47191 18.2805 8.68034 18.9995 8.77971 19.2967V19.3029C8.84221 19.4779 9.08438 20.0751 9.47905 20.5785C9.79729 20.9823 10.1733 21.337 10.5949 21.6312V21.625L10.6012 21.6312C11.8483 22.4787 13.231 22.4231 13.231 22.4231C13.4704 22.4134 14.2722 22.4231 15.1828 21.9915C16.1928 21.5131 16.7677 20.8003 16.7677 20.8003C17.1351 20.3745 17.4271 19.8891 17.6315 19.3651C17.8646 18.7523 17.9424 18.0174 17.9424 17.7236V12.4389C17.9736 12.4576 18.3899 12.7329 18.3899 12.7329C18.3899 12.7329 18.9895 13.1173 19.9251 13.3676C20.5963 13.5457 21.5006 13.5832 21.5006 13.5832V11.0258C21.1838 11.0602 20.5404 10.9602 19.8817 10.6318Z" fill="white"/>
</svg>
