<svg width="28" height="25" viewBox="0 0 28 25" fill="none" xmlns="http://www.w3.org/2000/svg">
<path fill-rule="evenodd" clip-rule="evenodd" d="M28.0188 2.07154H23.8803L21.7171 8.27938L19.4597 2.07154H15.2272V11.7376L10.9005 2.07154H7.42054L3.09385 11.9474H6.10355L6.95005 9.97237H11.4649L12.3114 11.9474H17.9548V5.08125L20.4943 11.9474H22.8456L25.3851 5.08125V11.9474H28.0188V13.4523H24.5386L21.7171 16.5562L18.8013 13.4523H6.85612V23.3282H18.7074L21.6229 20.1304L24.5386 23.3282H28.0188V24.5507H23.8803L21.6229 22.1054L19.3654 24.5507H5.35127V13.2642H0.836426L6.47983 0.566406H11.9351L13.9102 4.89311V0.566406H20.6824L21.811 3.85847L22.9398 0.566406H28.0188V2.07154ZM28.0188 15.6155L25.4793 18.3432L28.0188 21.0708V23.3282L23.4101 18.3432L28.0188 13.4523V15.6155ZM15.2272 23.3282V20.9769H9.58376V19.472H15.133V17.2146H9.58376V15.7097H15.2272V13.4523L19.9299 18.3432L15.2272 23.3282ZM7.79655 7.80888L9.11354 4.61103L10.4303 7.80888H7.79655Z" fill="#006FCF"/>
</svg>
