<svg width="26" height="20" viewBox="0 0 26 20" fill="none" xmlns="http://www.w3.org/2000/svg">
<path d="M8.22077 19.6149V18.3415C8.2282 18.2346 8.21277 18.1275 8.17551 18.0271C8.13826 17.9267 8.08004 17.8354 8.00473 17.7593C7.92942 17.6832 7.83875 17.624 7.73876 17.5857C7.63878 17.5473 7.53177 17.5308 7.42488 17.5371C7.2846 17.5279 7.14442 17.5565 7.01898 17.62C6.89355 17.6834 6.78745 17.7794 6.71176 17.8979C6.64277 17.783 6.54404 17.6888 6.42601 17.6253C6.30797 17.5618 6.17499 17.5313 6.04109 17.5371C5.92436 17.5312 5.80811 17.5559 5.70387 17.6087C5.59963 17.6616 5.51102 17.7408 5.44681 17.8384V17.588H5.00536V19.6149H5.45106V18.4921C5.44119 18.4227 5.44687 18.3519 5.46771 18.2849C5.48855 18.2179 5.52402 18.1564 5.57155 18.1048C5.61908 18.0532 5.67749 18.0129 5.74254 17.9866C5.8076 17.9604 5.87767 17.9489 5.9477 17.9531C6.24059 17.9531 6.38915 18.1441 6.38915 18.4879V19.6149H6.83486V18.4921C6.82576 18.4228 6.832 18.3524 6.85313 18.2857C6.87425 18.2191 6.90975 18.1579 6.95712 18.1065C7.00449 18.0551 7.06257 18.0147 7.12726 17.9882C7.19195 17.9616 7.26167 17.9497 7.33149 17.9531C7.63287 17.9531 7.7772 18.1441 7.7772 18.4879V19.6149H8.22077ZM10.704 18.6025V17.5901H10.2583V17.8363C10.1834 17.7397 10.0866 17.6624 9.97586 17.6107C9.86513 17.559 9.74366 17.5345 9.62155 17.5392C9.34011 17.5392 9.07018 17.651 8.87117 17.85C8.67216 18.049 8.56036 18.3189 8.56036 18.6004C8.56036 18.8818 8.67216 19.1517 8.87117 19.3508C9.07018 19.5498 9.34011 19.6616 9.62155 19.6616C9.74366 19.6663 9.86513 19.6417 9.97586 19.5901C10.0866 19.5384 10.1834 19.461 10.2583 19.3644V19.6106H10.6997L10.704 18.6025ZM9.06336 18.6025C9.0704 18.4831 9.11221 18.3683 9.18365 18.2723C9.25509 18.1764 9.35304 18.1034 9.46544 18.0624C9.57783 18.0214 9.69976 18.0141 9.81622 18.0415C9.93268 18.069 10.0386 18.1298 10.1209 18.2167C10.2032 18.3035 10.2583 18.4125 10.2794 18.5303C10.3005 18.648 10.2868 18.7694 10.2398 18.8794C10.1928 18.9895 10.1147 19.0834 10.015 19.1496C9.91534 19.2157 9.79849 19.2513 9.67885 19.252C9.59437 19.2539 9.51042 19.2383 9.43234 19.2059C9.35427 19.1736 9.28381 19.1253 9.22548 19.0642C9.16714 19.003 9.12221 18.9304 9.09356 18.8509C9.06492 18.7714 9.05319 18.6868 9.05912 18.6025H9.06336ZM20.1359 17.5413C20.2812 17.5409 20.4253 17.5683 20.5603 17.622C20.6893 17.6736 20.8068 17.75 20.9063 17.8469C21.0045 17.943 21.0824 18.0577 21.1355 18.1844C21.2464 18.4565 21.2464 18.7612 21.1355 19.0333C21.0825 19.1601 21.0045 19.2748 20.9063 19.3708C20.8068 19.4677 20.6893 19.5441 20.5603 19.5958C20.2805 19.7045 19.97 19.7045 19.6902 19.5958C19.5618 19.5442 19.445 19.4677 19.3463 19.3708C19.2491 19.2744 19.1719 19.1597 19.1192 19.0333C19.0086 18.7612 19.0086 18.4566 19.1192 18.1844C19.1719 18.058 19.2491 17.9433 19.3463 17.8469C19.445 17.75 19.5618 17.6735 19.6902 17.622C19.8301 17.564 19.9801 17.5344 20.1316 17.5349L20.1359 17.5413ZM20.1359 17.9658C20.0494 17.9646 19.9636 17.9805 19.8833 18.0125C19.8077 18.0428 19.739 18.0883 19.6817 18.1462C19.6231 18.2071 19.5776 18.2793 19.548 18.3584C19.4831 18.5279 19.4831 18.7153 19.548 18.8848C19.5776 18.9639 19.6231 19.0361 19.6817 19.097C19.739 19.1549 19.8076 19.2005 19.8833 19.2307C20.045 19.294 20.2246 19.294 20.3863 19.2307C20.4656 19.2014 20.5379 19.1559 20.5985 19.097C20.6572 19.0362 20.7027 18.964 20.7322 18.8848C20.7971 18.7153 20.7971 18.5279 20.7322 18.3584C20.7027 18.2793 20.6572 18.207 20.5985 18.1462C20.5379 18.0873 20.4656 18.0418 20.3863 18.0125C20.3062 17.9758 20.2196 17.9556 20.1316 17.9531L20.1359 17.9658ZM13.1023 18.6025C13.1023 17.9658 12.7075 17.5413 12.1408 17.5413C11.8594 17.5453 11.591 17.6608 11.3948 17.8626C11.1986 18.0644 11.0905 18.3359 11.0945 18.6174C11.0984 18.8988 11.214 19.1672 11.4158 19.3634C11.6176 19.5596 11.8891 19.6676 12.1705 19.6637C12.4727 19.674 12.7681 19.5728 13.0004 19.3793L12.7881 19.0524C12.6206 19.1869 12.4129 19.2615 12.1981 19.2647C12.0522 19.2772 11.9071 19.2324 11.7938 19.1396C11.6804 19.0469 11.6077 18.9136 11.5911 18.768H13.0959C13.1023 18.715 13.1023 18.6619 13.1023 18.6025ZM11.5933 18.4242C11.6014 18.2895 11.6615 18.1632 11.7608 18.0718C11.8602 17.9803 11.991 17.931 12.126 17.934C12.192 17.9325 12.2577 17.9442 12.3193 17.9682C12.3809 17.9921 12.4371 18.028 12.4848 18.0737C12.5325 18.1195 12.5707 18.1741 12.5973 18.2346C12.6238 18.2951 12.6382 18.3603 12.6396 18.4263L11.5933 18.4242ZM14.9594 18.1059C14.7655 17.9943 14.5463 17.9343 14.3226 17.9318C14.0807 17.9318 13.9364 18.021 13.9364 18.1695C13.9364 18.3181 14.0892 18.3436 14.2802 18.369L14.4924 18.3988C14.9339 18.4624 15.2013 18.6492 15.2013 19.0058C15.2013 19.3623 14.8617 19.6679 14.2781 19.6679C13.9653 19.6763 13.658 19.584 13.4015 19.4048L13.6138 19.0609C13.8085 19.2054 14.0463 19.2802 14.2887 19.2732C14.5901 19.2732 14.7514 19.184 14.7514 19.027C14.7514 18.9124 14.6367 18.8487 14.3948 18.8147L14.1826 18.785C13.7284 18.7214 13.4822 18.5176 13.4822 18.1865C13.4822 17.7833 13.8133 17.5371 14.3311 17.5371C14.621 17.5274 14.9075 17.601 15.1567 17.7493L14.9594 18.1059ZM17.0817 17.9913H16.3622V18.906C16.3622 19.1182 16.4344 19.2456 16.6551 19.2456C16.7929 19.241 16.9273 19.2016 17.0457 19.131L17.173 19.5088C17.0075 19.612 16.8162 19.6665 16.6212 19.6658C16.0991 19.6658 15.9166 19.3857 15.9166 18.9145V17.9913H15.5048V17.588H15.9166V16.9725H16.3622V17.588H17.0817V17.9913ZM18.6077 17.5371C18.7148 17.5375 18.821 17.5561 18.9219 17.5923L18.786 18.0167C18.6983 17.9818 18.6045 17.9644 18.5101 17.9658C18.2215 17.9658 18.0856 18.1526 18.0856 18.4879V19.6234H17.6442V17.5965H18.0814V17.8427C18.1356 17.7496 18.2138 17.6729 18.308 17.6206C18.4021 17.5683 18.5086 17.5424 18.6162 17.5456L18.6077 17.5371ZM21.6597 19.3199C21.6873 19.3195 21.7147 19.3246 21.7404 19.3347C21.7648 19.3447 21.7871 19.3591 21.8062 19.3772C21.8248 19.3955 21.8399 19.4171 21.8507 19.4408C21.8615 19.4656 21.867 19.4924 21.867 19.5194C21.867 19.5464 21.8615 19.5731 21.8507 19.5979C21.8399 19.6217 21.8248 19.6433 21.8062 19.6616C21.7871 19.6797 21.7648 19.6941 21.7404 19.704C21.715 19.7152 21.6875 19.721 21.6597 19.721C21.6195 19.7207 21.5802 19.709 21.5464 19.6872C21.5125 19.6654 21.4856 19.6344 21.4687 19.5979C21.4581 19.5731 21.4526 19.5464 21.4526 19.5194C21.4526 19.4924 21.4581 19.4657 21.4687 19.4408C21.4795 19.4171 21.4946 19.3955 21.5133 19.3772C21.5324 19.3591 21.5547 19.3447 21.5791 19.3347C21.6014 19.3258 21.6251 19.3208 21.6491 19.3199H21.6597ZM21.6597 19.6786C21.6809 19.6787 21.7019 19.6743 21.7213 19.6658C21.7395 19.6577 21.7561 19.6461 21.7701 19.6319C21.7881 19.6137 21.8014 19.5915 21.8089 19.5671C21.8163 19.5426 21.8177 19.5167 21.8129 19.4916C21.8081 19.4665 21.7972 19.443 21.7813 19.4231C21.7653 19.4031 21.7447 19.3874 21.7213 19.3772C21.7019 19.3687 21.6809 19.3644 21.6597 19.3644C21.6386 19.3646 21.6176 19.3689 21.5982 19.3772C21.5791 19.385 21.5618 19.3965 21.5472 19.4111C21.5207 19.4401 21.506 19.478 21.506 19.5173C21.506 19.5565 21.5207 19.5944 21.5472 19.6234C21.5619 19.6383 21.5795 19.65 21.5988 19.6581C21.6181 19.6661 21.6388 19.6702 21.6597 19.6701V19.6786ZM21.6725 19.426C21.6923 19.425 21.7118 19.431 21.7276 19.443C21.7341 19.4483 21.7393 19.4552 21.7426 19.4629C21.7459 19.4707 21.7473 19.4791 21.7467 19.4875C21.7471 19.4946 21.7459 19.5016 21.7433 19.5082C21.7408 19.5148 21.7369 19.5208 21.7319 19.5257C21.7196 19.5369 21.7039 19.5436 21.6873 19.5448L21.7489 19.6149H21.7001L21.6427 19.5448H21.6236V19.6149H21.5833V19.4196L21.6725 19.426ZM21.6258 19.4621V19.513H21.6725C21.6808 19.5155 21.6896 19.5155 21.6979 19.513C21.6994 19.51 21.7002 19.5068 21.7002 19.5035C21.7002 19.5001 21.6994 19.4969 21.6979 19.4939C21.6994 19.4909 21.7002 19.4877 21.7002 19.4844C21.7002 19.481 21.6994 19.4778 21.6979 19.4748C21.6896 19.4723 21.6808 19.4723 21.6725 19.4748L21.6258 19.4621Z" fill="#000008"/>
<path d="M16.445 2.1243H9.7595V14.1391H16.445V2.1243Z" fill="#7673C0"/>
<path d="M10.184 8.13279C10.1827 6.97551 10.4449 5.83312 10.9505 4.79213C11.4561 3.75114 12.1919 2.83884 13.1023 2.12431C11.9751 1.23848 10.6214 0.687626 9.196 0.534721C7.77057 0.381816 6.33088 0.633022 5.04147 1.25963C3.75205 1.88625 2.66494 2.86298 1.90438 4.07821C1.14381 5.29343 0.740479 6.69812 0.740479 8.13173C0.740479 9.56533 1.14381 10.97 1.90438 12.1852C2.66494 13.4005 3.75205 14.3772 5.04147 15.0038C6.33088 15.6304 7.77057 15.8816 9.196 15.7287C10.6214 15.5758 11.9751 15.025 13.1023 14.1391C12.1922 13.4248 11.4565 12.5129 10.9509 11.4723C10.4453 10.4317 10.1831 9.28971 10.184 8.13279Z" fill="#EB001B"/>
<path d="M24.7351 12.8657V12.628H24.8348V12.5771H24.5823V12.628H24.682V12.8742L24.7351 12.8657ZM25.2253 12.8657V12.5686H25.1489L25.0598 12.7808L24.9707 12.5686H24.8921V12.8657H24.9473V12.6428L25.0301 12.836H25.0874L25.1702 12.6428V12.8678L25.2253 12.8657Z" fill="#00A1DF"/>
<path d="M25.463 8.13277C25.4627 9.56612 25.0592 10.9705 24.2986 12.1853C23.538 13.4002 22.451 14.3767 21.1618 15.0031C19.8726 15.6296 18.4332 15.8808 17.008 15.728C15.5828 15.5752 14.2294 15.0246 13.1023 14.1391C14.012 13.4242 14.7474 12.512 15.2532 11.4713C15.7589 10.4307 16.0217 9.28874 16.0217 8.13171C16.0217 6.97468 15.7589 5.83276 15.2532 4.7921C14.7474 3.75145 14.012 2.83925 13.1023 2.12431C14.2294 1.2382 15.583 0.687065 17.0085 0.533941C18.434 0.380816 19.8739 0.631865 21.1635 1.25839C22.453 1.88491 23.5403 2.86162 24.301 4.07689C25.0617 5.29216 25.4651 6.69694 25.4652 8.13065L25.463 8.13277Z" fill="#00A1DF"/>
</svg>
