<svg width="28" height="18" viewBox="0 0 28 18" fill="none" xmlns="http://www.w3.org/2000/svg">
<path d="M17.5914 2.49021H10.2297V15.7195H17.5914V2.49021Z" fill="#FF5F00"/>
<path d="M10.6971 9.10487C10.696 7.83079 10.9847 6.57314 11.5414 5.42714C12.0982 4.28114 12.9083 3.27682 13.9106 2.49021C12.6694 1.51463 11.1788 0.907931 9.60917 0.739458C8.03951 0.570985 6.45412 0.847528 5.0342 1.53749C3.61427 2.22746 2.41712 3.303 1.57956 4.64118C0.742007 5.97936 0.297852 7.52619 0.297852 9.10487C0.297852 10.6835 0.742007 12.2304 1.57956 13.5686C2.41712 14.9067 3.61427 15.9823 5.0342 16.6722C6.45412 17.3622 8.03951 17.6388 9.60917 17.4703C11.1788 17.3018 12.6694 16.6951 13.9106 15.7195C12.9083 14.9329 12.0982 13.9286 11.5414 12.7826C10.9847 11.6366 10.696 10.3789 10.6971 9.10487Z" fill="#EB001B"/>
<path d="M27.5229 9.10487C27.523 10.6835 27.0789 12.2303 26.2414 13.5685C25.4038 14.9067 24.2067 15.9823 22.7868 16.6722C21.3669 17.3622 19.7816 17.6387 18.2119 17.4703C16.6423 17.3018 15.1517 16.6951 13.9106 15.7195C14.912 14.9321 15.7215 13.9276 16.2781 12.7818C16.8348 11.636 17.124 10.3787 17.124 9.10487C17.124 7.83099 16.8348 6.57374 16.2781 5.42791C15.7215 4.28209 14.912 3.27761 13.9106 2.49021C15.1517 1.51463 16.6423 0.907927 18.2119 0.739456C19.7816 0.570985 21.3669 0.84754 22.7868 1.53751C24.2067 2.22748 25.4038 3.30303 26.2414 4.64121C27.0789 5.97939 27.523 7.52621 27.5229 9.10487Z" fill="#F79E1B"/>
<path d="M26.7202 14.3183V14.0475H26.8294V13.9923H26.5513V14.0475H26.6606V14.3183H26.7202ZM27.2602 14.3183V13.9918H27.1749L27.0769 14.2164L26.9788 13.9918H26.8935V14.3183H26.9537V14.072L27.0457 14.2844H27.1081L27.2 14.0715V14.3183H27.2602Z" fill="#F79E1B"/>
</svg>
