<svg width="38" height="11" viewBox="0 0 38 11" fill="none" xmlns="http://www.w3.org/2000/svg">
<path fill-rule="evenodd" clip-rule="evenodd" d="M4.9379 0.41926H2.05521C1.85795 0.41926 1.69017 0.562613 1.65941 0.757262L0.493503 8.14849C0.470329 8.29438 0.583291 8.42584 0.731246 8.42584H2.10747C2.30474 8.42584 2.47251 8.28249 2.50327 8.08745L2.81773 6.09394C2.84806 5.89871 3.01625 5.75555 3.2131 5.75555H4.12566C6.0246 5.75555 7.12046 4.83672 7.40681 3.01602C7.53575 2.21948 7.41227 1.59359 7.03912 1.15514C6.62949 0.673979 5.90268 0.41926 4.9379 0.41926ZM5.27049 3.11881C5.11287 4.1531 4.32252 4.1531 3.55833 4.1531H3.12332L3.42849 2.22143C3.44661 2.10479 3.54777 2.01878 3.6658 2.01878H3.86518C4.38574 2.01878 4.87685 2.01878 5.13063 2.31544C5.2818 2.49253 5.32822 2.75545 5.27049 3.11881ZM13.555 3.08565H12.1745C12.0569 3.08565 11.9553 3.17166 11.9371 3.28849L11.8761 3.67448L11.7795 3.53463C11.4807 3.10086 10.8144 2.95595 10.1492 2.95595C8.62361 2.95595 7.32079 4.11117 7.06701 5.73175C6.93515 6.54 7.1226 7.31294 7.5812 7.85203C8.00195 8.34763 8.60391 8.55418 9.31998 8.55418C10.5491 8.55418 11.2308 7.76387 11.2308 7.76387L11.1692 8.14752C11.146 8.29419 11.2589 8.42565 11.406 8.42565H12.6495C12.8473 8.42565 13.0141 8.28229 13.0453 8.08725L13.7914 3.363C13.815 3.21769 13.7025 3.08565 13.555 3.08565ZM11.6307 5.77212C11.4975 6.56067 10.8715 7.09001 10.0733 7.09001C9.67246 7.09001 9.35197 6.96148 9.14638 6.71788C8.94234 6.47603 8.86471 6.13159 8.92966 5.74814C9.05411 4.96622 9.6906 4.41972 10.4767 4.41972C10.8686 4.41972 11.1873 4.54981 11.3972 4.79556C11.6075 5.04385 11.691 5.39024 11.6307 5.77212ZM19.5198 3.08545H20.9071C21.1014 3.08545 21.2147 3.30331 21.1043 3.46266L16.4905 10.1217C16.4158 10.2296 16.2927 10.2937 16.1612 10.2937H14.7757C14.5806 10.2937 14.4667 10.0741 14.5796 9.91438L16.0163 7.88675L14.4884 3.40317C14.4355 3.24733 14.5506 3.08545 14.7164 3.08545H16.0795C16.2566 3.08545 16.4128 3.2017 16.464 3.37119L17.2748 6.07912L19.1882 3.26119C19.2631 3.15118 19.3876 3.08545 19.5198 3.08545Z" fill="#253B80"/>
<path fill-rule="evenodd" clip-rule="evenodd" d="M34.5609 8.14783L35.7439 0.621443C35.7621 0.504614 35.8633 0.418603 35.9809 0.418213H37.3128C37.4599 0.418213 37.5728 0.550059 37.5496 0.695949L36.3829 8.08679C36.3525 8.28183 36.1847 8.42518 35.9871 8.42518H34.7977C34.6506 8.42518 34.5376 8.29372 34.5609 8.14783ZM25.5004 0.4186H22.6172C22.4204 0.4186 22.2526 0.561954 22.2218 0.756604L21.0559 8.14783C21.0327 8.29372 21.1456 8.42518 21.2929 8.42518H22.7723C22.9098 8.42518 23.0274 8.32493 23.0489 8.1884L23.3797 6.09329C23.4101 5.89805 23.5782 5.75489 23.7751 5.75489H24.6872C26.5865 5.75489 27.6822 4.83606 27.9687 3.01536C28.098 2.21882 27.9738 1.59294 27.6008 1.15449C27.1914 0.673323 26.4652 0.4186 25.5004 0.4186ZM25.833 3.11815C25.6758 4.15245 24.8854 4.15245 24.1207 4.15245H23.6861L23.9918 2.22077C24.0099 2.10414 24.1102 2.01812 24.2286 2.01812H24.4279C24.9482 2.01812 25.4397 2.01812 25.6933 2.31478C25.8447 2.49187 25.8907 2.75479 25.833 3.11815ZM34.1167 3.08499H32.7372C32.6186 3.08499 32.518 3.171 32.5002 3.28783L32.4392 3.67382L32.3422 3.53397C32.0434 3.1002 31.3774 2.95529 30.7123 2.95529C29.1867 2.95529 27.8843 4.11051 27.6305 5.7311C27.499 6.53934 27.6857 7.31228 28.1443 7.85137C28.5658 8.34697 29.167 8.55352 29.8831 8.55352C31.1121 8.55352 31.7937 7.76322 31.7937 7.76322L31.7323 8.14686C31.709 8.29353 31.822 8.42499 31.97 8.42499H33.213C33.4098 8.42499 33.5775 8.28163 33.6084 8.08659L34.3549 3.36234C34.3777 3.21703 34.2648 3.08499 34.1167 3.08499ZM32.1926 5.77147C32.0602 6.56001 31.4334 7.08935 30.635 7.08935C30.235 7.08935 29.9139 6.96082 29.7081 6.71722C29.5041 6.47537 29.4274 6.13093 29.4916 5.74748C29.6166 4.96557 30.2523 4.41906 31.0384 4.41906C31.4305 4.41906 31.749 4.54915 31.9591 4.79491C32.1702 5.04319 32.2537 5.38958 32.1926 5.77147Z" fill="#179BD7"/>
</svg>
