<svg width="36" height="12" viewBox="0 0 36 12" fill="none" xmlns="http://www.w3.org/2000/svg">
<path d="M17.6944 0.878038L15.3622 11.7337H12.5422L14.8747 0.878038H17.6944ZM29.5595 7.8876L31.0442 3.81092L31.8986 7.8876H29.5595ZM32.706 11.7337H35.3145L33.0383 0.878038H30.6305C30.0895 0.878038 29.633 1.19139 29.4298 1.67448L25.1988 11.7337H28.1603L28.7483 10.1127H32.3665L32.706 11.7337ZM25.3458 8.18927C25.3579 5.32408 21.3667 5.16638 21.3943 3.88651C21.4026 3.49653 21.7756 3.08285 22.5903 2.97668C22.995 2.92411 24.1078 2.88391 25.3713 3.46286L25.8661 1.16081C25.1874 0.91549 24.3141 0.679443 23.2279 0.679443C20.4406 0.679443 18.4787 2.15516 18.4621 4.26823C18.4445 5.83088 19.8627 6.70291 20.9313 7.22241C22.0299 7.75463 22.3991 8.09547 22.3943 8.57135C22.387 9.3001 21.5178 9.62101 20.707 9.63372C19.2888 9.65606 18.4659 9.25268 17.81 8.94826L17.299 11.3269C17.9577 11.6283 19.1739 11.8901 20.4358 11.9035C23.398 11.9035 25.3361 10.446 25.3458 8.18927ZM13.6646 0.878038L9.09549 11.7337H6.11394L3.86562 3.07014C3.72898 2.53654 3.61029 2.34139 3.19519 2.11633C2.51787 1.75041 1.39819 1.40648 0.413086 1.19345L0.48037 0.878038H5.27893C5.89035 0.878038 6.4407 1.28347 6.57941 1.98474L7.76706 8.26693L10.7017 0.878038H13.6646Z" fill="#1434CB"/>
</svg>
