<svg width="194" height="32" viewBox="0 0 194 32" fill="none" xmlns="http://www.w3.org/2000/svg">
<path fill-rule="evenodd" clip-rule="evenodd" d="M11.6281 9.22058C16.7802 9.71928 16.0739 17.6855 12.2433 19.0327C11.6116 19.254 10.8283 19.3662 9.89457 19.3662H0V18.9107C0.5273 18.7121 0.681096 18.4152 0.681096 17.8755V1.49178C0.681096 0.952062 0.5273 0.654138 0 0.455521V0H8.53018C9.47054 0 10.2285 0.0993079 10.7998 0.286051C14.2547 1.41946 14.7271 7.28298 11.6281 9.22058ZM3.84051 7.70504H8.11823C9.71991 7.70504 10.4416 7.06277 10.4416 5.44901C10.4416 3.84604 9.75836 3.19191 8.11823 3.19191H3.84051V7.70504ZM3.84051 16.1743H9.20359C11.0854 16.1743 12.1103 15.8375 12.1103 13.873C12.1103 11.9051 11.0821 10.897 9.20359 10.897H3.84051V16.1743ZM34.7216 0C38.1568 0 40.8779 0.911043 42.8926 2.73638C45.0172 4.64914 46.0806 7.11459 46.0806 10.1413C46.0868 11.98 45.5565 13.7818 44.5525 15.3335C42.5564 18.4757 39.2883 20.0463 34.7491 20.0463C31.3392 20.0463 28.6335 19.1352 26.6177 17.3099C25.5436 16.3354 24.7051 15.1371 24.1635 13.8028C23.6746 12.5983 23.4255 11.3129 23.4297 10.0161C23.4297 8.07853 23.9372 6.30609 24.9479 4.69772C26.8802 1.6224 30.1374 0.0582898 34.7216 0ZM34.737 3.27825C32.8585 3.27825 31.2964 3.82553 30.0451 4.9244C28.5621 6.21649 27.8228 7.91662 27.8228 10.014C27.8228 12.1102 28.5621 13.8104 30.0451 15.1035C31.2975 16.2035 32.8695 16.7508 34.7612 16.7508C36.6595 16.7508 38.226 16.2024 39.4684 15.1035C40.217 14.444 40.8005 13.6236 41.1734 12.7061C41.5161 11.8786 41.6918 10.9937 41.6908 10.1003C41.6908 7.90582 40.9515 6.17763 39.4684 4.92332C38.2062 3.84496 36.6287 3.29768 34.737 3.27825ZM72.1083 1.49178V12.3445C72.1083 14.3922 71.8007 15.9358 71.1779 16.9548C68.8534 20.7663 58.404 21.089 56.798 15.8602C56.497 14.8801 56.3574 13.7046 56.3574 12.3445V1.49178C56.3574 0.404786 55.6093 0.897015 55.6093 0H60.5846C60.5846 0.895935 59.8288 0.39615 59.8288 1.49178V11.1485C59.8288 14.9934 60.7977 16.4129 64.3735 16.4129C67.9646 16.4129 68.9149 14.9967 68.9149 11.1485V1.49178C68.9149 0.404786 68.1668 0.897015 68.1668 0H72.8553C72.8564 0.897015 72.1083 0.404786 72.1083 1.49178ZM109.989 0.823613C109.85 0.673571 109.614 0.55267 109.264 0.455521V0H115.421V0.455521C115.076 0.551591 114.835 0.673571 114.696 0.823613C114.563 0.973656 114.493 1.1971 114.493 1.49178V12.8961C114.493 16.1635 114.642 17.4912 113.509 19.2356C111.391 22.4988 105.72 22.706 104.856 19.798C105.551 20.205 109.99 24.3414 110.282 15.7285C110.297 15.3162 110.192 13.4962 110.192 12.6823V1.49178C110.192 1.19602 110.12 0.973656 109.989 0.823613ZM136.464 0C139.899 0 142.62 0.911043 144.635 2.73638C146.76 4.64914 147.825 7.11459 147.825 10.1413C147.831 11.9802 147.3 13.7822 146.295 15.3335C144.3 18.4757 141.032 20.0463 136.494 20.0463C133.083 20.0463 130.377 19.1352 128.363 17.3099C127.288 16.3357 126.45 15.1373 125.908 13.8028C125.419 12.5985 125.17 11.3129 125.175 10.0161C125.175 8.07853 125.681 6.30609 126.692 4.69772C128.622 1.6224 131.881 0.0582898 136.464 0ZM136.479 3.27825C134.599 3.27825 133.037 3.82553 131.787 4.9244C130.304 6.21649 129.564 7.91662 129.564 10.014C129.564 12.1102 130.305 13.8104 131.787 15.1035C133.038 16.2035 134.61 16.7508 136.503 16.7508C138.402 16.7508 139.968 16.2024 141.21 15.1035C141.958 14.4435 142.542 13.6232 142.916 12.7061C143.259 11.8786 143.434 10.9937 143.433 10.1003C143.433 7.90582 142.693 6.17763 141.211 4.92332C139.948 3.84496 138.371 3.29768 136.479 3.27825ZM160.804 17.8755V1.47667C160.804 1.19062 160.735 0.972576 160.601 0.823613C160.464 0.673571 160.226 0.55267 159.876 0.455521V0H166.033V0.455521C165.688 0.542955 165.447 0.658454 165.31 0.818211C165.177 0.97365 165.108 1.1917 165.108 1.47667V17.8755C165.108 18.1702 165.176 18.3926 165.317 18.548C165.457 18.7078 165.693 18.8244 166.032 18.9107V19.3662H159.875V18.9107C160.225 18.8136 160.463 18.6937 160.6 18.5437C160.734 18.3926 160.804 18.1713 160.804 17.8755ZM192.603 1.97105L190.994 6.52845L190.719 6.30069C190.726 6.20462 190.728 6.1323 190.728 6.07401C190.728 5.75449 190.537 5.40584 190.156 5.03775C188.982 3.86655 187.607 3.28042 186.027 3.28042C185.327 3.28042 184.717 3.40131 184.179 3.6485C183.79 3.83903 183.463 4.13485 183.238 4.50126C183 4.87907 182.878 5.29033 182.878 5.73614C182.878 6.4626 183.184 6.95591 183.794 7.22254C184.111 7.35315 184.789 7.49779 185.831 7.64891L187.382 7.87559C188.302 8.01592 189.047 8.21022 189.617 8.45741C190.186 8.70461 190.693 9.04787 191.13 9.49368C191.578 9.95352 191.932 10.5634 192.192 11.3244C192.451 12.0789 192.582 12.8874 192.582 13.7456C192.582 15.1122 192.276 16.3222 191.666 17.3779C191.112 18.3451 190.254 19.0586 189.087 19.5238C188.199 19.8753 187.25 20.0528 186.293 20.0463C184.51 20.0463 182.75 19.431 181.01 18.1994C180.643 17.9522 180.422 17.8323 180.349 17.8323C180.265 17.8323 180.13 17.9338 179.943 18.1422L179.658 17.9295L181.117 13.1778L181.405 13.3775V13.561C181.405 13.9874 181.546 14.3792 181.827 14.7376C182.257 15.2849 182.917 15.7598 183.815 16.156C184.707 16.5521 185.557 16.7529 186.359 16.7529C187.237 16.7529 187.984 16.5381 188.601 16.1117C188.944 15.8753 189.218 15.5655 189.421 15.1683C189.621 14.79 189.727 14.3698 189.727 13.9431C189.727 13.2987 189.487 12.8432 189.006 12.5679C188.671 12.379 187.994 12.2052 186.972 12.0455L185.452 11.8166C184.43 11.6666 183.709 11.5219 183.289 11.3859C182.835 11.231 182.409 11.0073 182.025 10.7232C181.429 10.3011 180.956 9.66206 180.616 8.81039C180.305 8.04506 180.15 7.16316 180.15 6.17115C180.15 4.53472 180.542 3.18327 181.328 2.11354C182.351 0.703795 183.892 0.00107885 185.947 0.00107885C186.807 0.00107885 187.612 0.127372 188.354 0.378881C189.099 0.626073 190.025 1.09131 191.143 1.75841C191.523 1.97645 191.755 2.08871 191.843 2.08871C191.982 2.08871 192.139 1.97645 192.325 1.75841L192.603 1.97105ZM85.226 11.4626V17.8885C85.226 18.8136 85.8885 18.5923 85.8885 19.3662H81.4888C81.4888 18.5901 82.1512 18.8157 82.1512 17.8885V1.49178C82.1512 0.549431 81.4888 0.777197 81.4888 0H90.3024C93.9869 0 95.5381 2.22149 95.4557 6.36006C95.3821 10.0787 93.4157 10.7026 90.5353 11.3082C91.167 12.0627 96.2785 18.8567 96.8904 18.9107V19.3662H92.8027C90.8857 16.5921 88.6403 14.0942 86.5784 11.4626H85.226ZM85.226 8.27175H89.975C91.8546 8.27175 92.5292 7.60034 92.6247 5.72967C92.7258 3.76617 91.8513 3.19191 89.975 3.19191H85.226V8.27175ZM54.6734 27.0929C55.3731 27.0972 55.8949 27.1922 56.2399 27.3735C56.5837 27.557 56.8188 27.7567 56.9473 27.9748C57.0199 28.0946 57.0682 28.2112 57.0935 28.3245C57.1187 28.4378 57.1297 28.535 57.1297 28.6192C57.1297 28.6462 57.1286 28.6764 57.1253 28.7056C57.122 28.7347 57.1209 28.7671 57.1209 28.7984C57.0726 29.1611 56.8727 29.4903 56.5233 29.7915C56.1729 30.0926 55.6357 30.2427 54.9118 30.2427H54.0802V31.9503H52.7839V27.0929H54.6734ZM54.6734 29.4169C54.9843 29.4212 55.215 29.377 55.3676 29.282C55.4986 29.2072 55.6085 29.1015 55.6873 28.9743C55.7389 28.873 55.7638 28.7605 55.7598 28.6473C55.7601 28.6288 55.7586 28.6104 55.7554 28.5922C55.7522 28.5711 55.7507 28.5498 55.751 28.5285C55.7203 28.3763 55.6225 28.236 55.4577 28.1086C55.294 27.9823 55.0315 27.9165 54.6734 27.9165H54.0791V29.4158L54.6734 29.4169ZM77.1474 27.0929L79.6861 31.9503H78.2525L77.6856 30.8601H75.0469L74.4812 31.9503H73.1201L75.6676 27.0929H77.1474ZM77.2935 30.043L76.6091 28.5652L76.3894 28.0719H76.3707L76.1521 28.5652L75.4589 30.043H77.2935ZM98.4887 27.0929C99.2973 27.0972 99.8553 27.2213 100.16 27.4664C100.462 27.7135 100.63 27.9813 100.662 28.2716C100.666 28.2986 100.67 28.3245 100.67 28.3493V28.4163C100.67 28.7261 100.542 28.9873 100.282 29.1989C100.021 29.4104 99.7169 29.5216 99.3632 29.5346V29.5432C99.466 29.557 99.5652 29.5899 99.6554 29.6403C99.7653 29.6954 99.8806 29.8325 100.003 30.0495L101.108 31.9514H99.6554L98.8337 30.5223C98.7611 30.3927 98.6597 30.2809 98.5371 30.1952C98.4195 30.111 98.2427 30.071 98.0131 30.071H97.5198V31.9514H96.2225V27.0939L98.4887 27.0929ZM97.5209 29.2442H98.2141C98.5722 29.2485 98.8447 29.1827 99.027 29.0434C99.2094 28.9042 99.2995 28.7487 99.2995 28.5771C99.3005 28.478 99.2743 28.3805 99.2237 28.2948C99.173 28.2091 99.0998 28.1385 99.0117 28.0903C98.8205 27.9726 98.5722 27.9111 98.269 27.9111H97.5198L97.5209 29.2442ZM117.785 27.0929H119.081V31.9503H117.785V27.0929ZM135.719 31.769L135.857 30.9087C135.96 30.9508 136.064 30.9864 136.176 31.0166C136.443 31.0889 136.715 31.1394 136.99 31.1678C137.148 31.185 137.297 31.1926 137.436 31.1926H137.527C137.765 31.1775 137.979 31.1213 138.173 31.022C138.364 30.9227 138.46 30.7943 138.46 30.6388C138.46 30.4262 138.343 30.261 138.104 30.1477C137.795 30.0044 137.475 29.885 137.146 29.7904C137.05 29.7591 136.953 29.7245 136.859 29.6932C136.764 29.6619 136.672 29.6263 136.58 29.5896C136.318 29.4817 136.123 29.3575 135.996 29.2183C135.878 29.0931 135.788 28.9454 135.73 28.7844C135.707 28.7153 135.69 28.644 135.681 28.5717C135.672 28.5044 135.668 28.4366 135.668 28.3688C135.671 28.1787 135.727 27.9932 135.83 27.8323C135.946 27.6466 136.148 27.4782 136.438 27.326C136.728 27.1717 137.148 27.0961 137.703 27.0961C138.001 27.0961 138.275 27.1112 138.525 27.1382C138.81 27.1683 139.093 27.2119 139.373 27.2688C139.436 27.2839 139.487 27.2936 139.528 27.3044L139.393 28.0741C139.283 28.0546 139.163 28.0363 139.037 28.0147C138.909 27.9931 138.782 27.9748 138.653 27.9553C138.539 27.9426 138.425 27.9328 138.311 27.9262C138.206 27.9179 138.101 27.9136 137.996 27.9132C137.624 27.9132 137.372 27.9597 137.237 28.0525C137.104 28.1453 137.037 28.2468 137.037 28.358C137.035 28.42 137.046 28.4817 137.071 28.5388C137.095 28.596 137.132 28.6474 137.178 28.6894C137.322 28.8205 137.498 28.9121 137.689 28.9549C137.754 28.9733 137.807 28.9905 137.85 29.0035C138.45 29.1654 138.93 29.364 139.288 29.6004C139.645 29.8368 139.821 30.1736 139.821 30.614C139.821 30.6541 139.818 30.6941 139.813 30.7338L139.793 30.8493C139.726 31.1408 139.52 31.4042 139.177 31.6416C138.834 31.8823 138.316 32 137.628 32C137.445 31.9993 137.263 31.9943 137.081 31.9849C136.85 31.9715 136.62 31.9477 136.392 31.9136C136.165 31.8793 135.941 31.8314 135.721 31.7701L135.719 31.769ZM0.250468 29.01H51.1767V30.0894H0.250468V29.01ZM142.142 29.01H193.067V30.0894H142.142V29.01Z" fill="black"/>
</svg>
