<svg width="129" height="32" viewBox="0 0 129 32" fill="none" xmlns="http://www.w3.org/2000/svg">
<path fill-rule="evenodd" clip-rule="evenodd" d="M8.26941 7.27021L5.60205 10.0786C8.1132 13.0834 10.7187 16.0216 13.2282 19.0602L15.7719 22.3246V22.4881C15.1421 22.4561 14.5774 22.36 14.0452 22.36C13.4479 22.36 12.854 22.4561 12.2876 22.4881C11.5959 21.4438 10.9067 20.4601 10.1214 19.5153L3.28053 11.1878C3.12348 11.058 2.74756 10.9577 2.74756 11.0918V22.4881C2.24633 22.4561 1.81027 22.36 1.3742 22.36C0.904715 22.36 0.436903 22.4561 0 22.4881V0.157464C0.436903 0.190342 0.904715 0.281191 1.3742 0.281191C1.81027 0.281191 2.24633 0.190342 2.74756 0.157464V10.2404C2.7768 10.4368 3.21704 10.3062 3.53198 10.044C4.09753 9.58806 4.75581 8.9037 5.19605 8.44514L12.9158 0.1566C13.3235 0.189477 13.7328 0.280327 14.1714 0.280327C14.5481 0.280327 14.9558 0.189477 15.3935 0.1566L8.26941 7.27021ZM20.8477 12.3195H24.7757C25.5375 12.3195 26.2718 12.2148 27.0312 12.1897C27.0061 12.3991 26.9418 12.6361 26.9418 12.8741C26.9418 13.0834 27.0061 13.3205 27.0312 13.6112C26.2718 13.5861 25.5375 13.4797 24.7757 13.4797H20.8477V21.1903C22.3948 21.2431 23.9144 21.1375 25.4356 21.0821C26.2171 21.0573 26.996 20.9778 27.7671 20.8442C27.7413 21.1384 27.6995 21.3746 27.6995 21.6367C27.6995 21.9006 27.7413 22.1636 27.7671 22.4275H18.6131V4.45488H27.6143C27.5867 4.74385 27.5525 4.98178 27.5525 5.24653C27.5525 5.50955 27.5867 5.7717 27.6143 6.03645C26.8532 5.87812 26.0939 5.80111 25.3337 5.74661L22.7975 5.69297H20.8477V12.3195ZM33.3483 5.43514C34.4126 5.38064 36.1368 5.3019 37.0741 5.46023C38.9754 5.77862 39.8643 6.96394 39.8643 8.78863C39.8643 10.8469 38.4683 12.1646 36.6172 12.5617C35.3248 12.8256 33.7025 12.7209 33.3475 12.695L33.3483 5.43514ZM31.1137 22.5175C31.4704 22.4924 31.8496 22.4267 32.2306 22.4267C32.5864 22.4267 32.9415 22.4924 33.3483 22.5175V13.6995H34.3107L36.339 16.1817L39.3313 20.2256C39.8738 20.9819 40.4065 21.7456 40.9294 22.5166C41.3897 22.4915 41.8976 22.4258 42.3804 22.4258C42.8633 22.4258 43.3186 22.4915 43.8524 22.5166L43.3678 21.8608L42.1515 20.3822L36.9221 13.4892C39.4825 13.0108 42.1265 11.5321 42.1265 8.4685C42.1265 5.80198 40.3972 4.45661 36.491 4.45661H31.1128L31.1137 22.5175ZM55.4466 14.2627H49.8638L52.6297 7.50641L55.4466 14.2627ZM53.5436 4.0543H52.9613L45.0486 22.5166C45.3268 22.4915 45.6058 22.4258 45.9358 22.4258C46.2399 22.4258 46.5189 22.4915 46.8731 22.5166C47.5832 20.0344 48.4962 17.7027 49.3826 15.3701H55.8258C56.8425 17.7814 57.7531 20.3268 58.489 22.5166C58.9184 22.4915 59.3486 22.4258 59.8315 22.4258C60.2625 22.4258 60.6685 22.4915 61.148 22.5166L53.5436 4.0543ZM63.6007 18.9417C64.5865 20.6297 65.7234 21.6843 67.6957 21.6843C69.7466 21.6843 71.2118 19.9167 71.2118 17.8333C71.2118 12.926 63.3 15.089 63.3 9.12778C63.3 5.72411 65.8746 4.05602 68.9095 4.05602C70.125 4.05602 71.5919 4.45488 72.5301 5.32786C72.2268 6.01396 72.0489 6.75197 71.8467 7.49084H71.5919C71.0598 6.06673 69.9471 5.19462 68.4559 5.19462C66.71 5.19462 65.2681 6.40934 65.2681 8.28248C65.2681 13.1353 73.2418 11.1852 73.2418 16.8046C73.2418 20.5777 70.4274 22.8255 66.9882 22.8255C65.7485 22.8255 63.7285 22.2675 62.8664 21.2915C63.1195 20.5258 63.2482 19.7333 63.3476 18.9425L63.6007 18.9417ZM83.1177 22.5711C82.7117 22.5443 82.3575 22.495 81.9999 22.495C81.6198 22.495 81.2381 22.5443 80.8839 22.5711V5.72325C78.3243 5.72325 76.7771 5.88244 75.3328 6.03991C75.357 5.77603 75.4096 5.51301 75.4096 5.24653C75.4096 4.98524 75.3578 4.74818 75.3328 4.45834H88.4148C88.3889 4.74818 88.307 4.98524 88.307 5.24653C88.307 5.51301 88.3889 5.77603 88.4148 6.03991C86.6566 5.82407 84.8874 5.71832 83.1168 5.72325V22.5711H83.1177ZM98.5104 14.2627H92.9267L95.6909 7.50641L98.5104 14.2627ZM96.6082 4.0543H96.0226L88.1124 22.5166C88.3914 22.4915 88.6704 22.4258 88.9987 22.4258C89.3036 22.4258 89.5827 22.4915 89.9369 22.5166C90.6469 20.0344 91.5583 17.7027 92.4463 15.3701H98.8896C99.9029 17.7814 100.82 20.3268 101.553 22.5166C101.984 22.4915 102.412 22.4258 102.895 22.4258C103.326 22.4258 103.732 22.4915 104.213 22.5166L96.6082 4.0543ZM106.639 18.9417C107.624 20.6297 108.76 21.6843 110.734 21.6843C112.784 21.6843 114.25 19.9167 114.25 17.8333C114.25 12.926 106.335 15.089 106.335 9.12778C106.335 5.72411 108.912 4.05602 111.946 4.05602C113.163 4.05602 114.63 4.45488 115.568 5.32786C115.263 6.01396 115.085 6.75197 114.885 7.49084H114.63C114.098 6.06673 112.985 5.19462 111.492 5.19462C109.746 5.19462 108.306 6.40934 108.306 8.28248C108.306 13.1353 116.276 11.1852 116.276 16.8046C116.276 20.5777 113.467 22.8255 110.024 22.8255C108.786 22.8255 106.765 22.2675 105.904 21.2915C106.156 20.5258 106.284 19.7333 106.385 18.9425L106.639 18.9417ZM122.079 12.3195H126.008C126.768 12.3195 127.502 12.2148 128.264 12.1897C128.24 12.3991 128.175 12.6361 128.175 12.8741C128.175 13.0834 128.24 13.3205 128.264 13.6112C127.502 13.5861 126.768 13.4797 126.008 13.4797H122.079V21.1903C123.626 21.2431 125.148 21.1375 126.667 21.0821C127.449 21.0573 128.228 20.9778 129 20.8442C128.974 21.1384 128.933 21.3746 128.933 21.6367C128.933 21.9006 128.974 22.1636 129 22.4275H119.847V4.45488H128.846C128.822 4.74385 128.786 4.98178 128.786 5.24653C128.786 5.50955 128.822 5.7717 128.846 6.03645C128.084 5.87812 127.328 5.80111 126.567 5.74661L124.03 5.69297H122.078L122.079 12.3195ZM21.658 2.84475L24.5242 0H26.3754L22.4642 2.84475H21.658ZM38.9863 26.3797C39.3835 26.3591 39.7815 26.362 40.1784 26.3884C40.835 26.4489 41.1157 26.9118 41.1157 27.4984C41.1157 28.2606 40.6353 28.8031 39.8066 28.887C39.5341 28.914 39.2597 28.914 38.9871 28.887L38.9863 26.3797ZM38.9863 29.2262C39.1943 29.2262 39.7314 29.2868 40.1049 29.208C41.2727 28.9684 41.8767 28.4934 41.8767 27.456C41.8767 26.4169 41.3471 26.0501 39.739 26.0501H38.257V31.9074C38.3723 31.897 38.4984 31.8754 38.6212 31.8754C38.7382 31.8754 38.8543 31.897 38.9871 31.9074L38.9863 29.2262ZM53.7867 29.2357H51.9706L52.8694 27.0494L53.7867 29.2357ZM53.166 25.9376H52.9755L50.3967 31.9057C50.4878 31.8953 50.5772 31.8737 50.6866 31.8737C50.7852 31.8737 50.8771 31.8953 50.994 31.9057C51.2254 31.1028 51.5211 30.3458 51.8135 29.5887H53.9103C54.242 30.3708 54.5402 31.1971 54.7808 31.9057C54.9195 31.8953 55.0598 31.8737 55.2177 31.8737C55.3589 31.8737 55.4925 31.8953 55.6487 31.9057L53.166 25.9376ZM66.8687 26.3702C67.2162 26.3529 67.781 26.3278 68.0875 26.3788C68.7091 26.4818 68.9998 26.8668 68.9998 27.4569C68.9998 28.1231 68.5428 28.5488 67.9388 28.6768C67.5161 28.7616 66.9857 28.7296 66.8687 28.7209V26.3702ZM66.1411 31.9057C66.2572 31.8953 66.3809 31.8737 66.5053 31.8737C66.6231 31.8737 66.7384 31.8953 66.8695 31.9057V29.0428H67.1845L67.8469 29.8509L68.8277 31.1642C69.0006 31.4056 69.1635 31.6444 69.3448 31.9057C69.4935 31.8953 69.6564 31.8737 69.8118 31.8737C69.9713 31.8737 70.1183 31.8953 70.2929 31.9057L70.1359 31.6946L69.7374 31.2144L68.0391 28.9718C68.8761 28.8196 69.7291 28.3428 69.7291 27.3513C69.7291 26.4879 69.171 26.0518 67.8971 26.0518H66.1411V31.9057ZM81.2598 26.0492C81.3759 26.0579 81.5012 26.0812 81.624 26.0812C81.7418 26.0812 81.8554 26.0579 81.9882 26.0492V31.9066C81.8562 31.8962 81.7418 31.8746 81.624 31.8746C81.502 31.8746 81.3759 31.8962 81.2598 31.9066V26.0492ZM93.5482 30.7446C93.8715 31.2923 94.2466 31.6332 94.8907 31.6332C95.5598 31.6332 96.041 31.0604 96.041 30.389C96.041 28.8023 93.4471 29.5022 93.4471 27.5754C93.4471 26.4757 94.2975 25.9359 95.2875 25.9359C95.6843 25.9359 96.1671 26.0639 96.4737 26.3451C96.3743 26.5701 96.3158 26.8063 96.2498 27.0468H96.1663C95.99 26.5874 95.6275 26.3036 95.1388 26.3036C94.569 26.3036 94.0962 26.6972 94.0962 27.302C94.0962 28.8697 96.7068 28.2399 96.7068 30.0568C96.7068 31.2767 95.7845 32 94.6592 32C94.2533 32 93.5891 31.8209 93.3068 31.5051C93.3903 31.2585 93.4304 31.0016 93.4638 30.7446H93.5482Z" fill="black"/>
</svg>
