<svg width="207" height="32" viewBox="0 0 207 32" fill="none" xmlns="http://www.w3.org/2000/svg">
<path d="M18.8233 20.0781H16.4019V6.9684L9.26892 17.9587L2.4262 6.99638V20.0781H0V3.13708H2.81524L9.28963 13.3628L15.8295 3.13708H18.8233V20.0781Z" fill="black"/>
<path d="M85.9561 5.71236H73.4073V10.1972H81.199V12.7156H73.4073V20.0781H70.9014V3.13708H85.96L85.9561 5.71236Z" fill="black"/>
<path d="M139.92 5.71236H132.428V20.0781H129.86V5.71236H122.352V3.13708H139.92V5.71236Z" fill="black"/>
<path d="M150.265 3.13708C144.493 3.13708 139.92 6.71563 139.92 11.6089C139.92 16.5022 144.596 20.0781 150.284 20.0781C155.972 20.0781 160.626 16.5377 160.626 11.6089C160.626 6.68013 156.032 3.13708 150.265 3.13708ZM150.281 17.4285C145.915 17.4285 142.501 14.9082 142.501 11.6085C142.501 8.30128 145.915 5.79064 150.268 5.79064C154.612 5.79064 158.046 8.2364 158.046 11.6085C158.046 14.9805 154.65 17.4289 150.281 17.4289V17.4285Z" fill="black"/>
<path d="M112.356 3.13708C106.719 3.13708 102.274 6.86451 102.274 11.9152C102.274 16.9727 106.75 20.7055 112.356 20.7055C116.101 20.7055 119.315 19.0355 121.097 16.5054L119.176 14.6871C117.962 16.6745 115.366 17.9527 112.356 17.9527C108.101 17.9527 104.771 15.388 104.771 11.9138C104.771 8.44776 108.142 5.88129 112.356 5.88129C114.975 5.88129 117.247 6.91724 118.574 8.35685L120.485 6.54768C118.653 4.45078 115.719 3.13708 112.356 3.13708Z" fill="black"/>
<path d="M37.371 20.0781H40.1561L31.4396 3.13708H29.4199L20.7053 20.0781H23.4858L26.2588 14.6879H34.6L37.371 20.0781ZM27.5376 12.1853L30.4299 6.55138L33.3192 12.1853H27.5376Z" fill="black"/>
<path d="M98.868 20.0781H101.646L92.932 3.13708H90.9092L82.1956 20.0781H84.9792L87.75 14.6879H96.0942L98.868 20.0781ZM89.031 12.1853L91.9191 6.55138L94.8089 12.1853H89.031Z" fill="black"/>
<path d="M52.8236 11.2276L60.1928 3.13708H56.8198L51.1323 9.37623L45.4501 3.13708H42.074L49.4476 11.2276L41.4114 20.0781H44.7844L51.1323 13.0821L57.4848 20.0781H60.8622L52.8236 11.2276Z" fill="black"/>
<path d="M163.135 3.13708V20.0781H165.684V13.3182H172.659L177.675 20.0781H180.704L175.683 13.2494C177.938 13.253 180.332 10.9248 180.332 8.23148C180.332 5.53815 178.231 3.13708 174.903 3.13708H163.135ZM165.682 5.75982H175.27C176.335 5.75982 177.738 6.67844 177.738 8.26836C177.738 10.1879 176.298 10.7962 175.045 10.7962H165.684L165.682 5.76027V5.75982Z" fill="black"/>
<path d="M201.19 22.0392C201.047 21.9096 200.899 21.7748 200.761 21.6394C200.761 21.6394 200.012 20.9188 199.652 20.4857C199.548 20.3536 197.893 18.3753 197.893 18.3753L196.737 16.9976C196.228 16.3884 195.775 15.8265 195.351 15.2805C194.996 14.8198 194.534 14.4694 194.666 13.9357C194.791 13.4073 196.712 10.9567 197.628 9.84254C197.628 9.84254 198.374 8.9491 199.441 7.67528V7.68696C201.421 5.3304 204.53 1.66678 206.148 0C206.148 0 204.456 0.100636 202.666 1.99445C201.784 2.93042 193.783 11.0756 193.504 11.3185C193.088 11.6839 192.743 11.5662 192.438 11.2739C192.2 11.0451 191.409 10.0106 190.969 9.33337C190.393 8.44263 189.769 7.55967 189.315 6.60213C189.291 6.54462 189.264 6.50299 189.245 6.46405L189.244 6.45836L189.241 6.45237L189.208 6.39247C189.079 6.1292 189.02 6.02138 188.979 5.83298C188.939 5.66526 188.901 5.40977 188.823 4.89641L188.799 4.71371L188.793 4.70832V4.69933C188.699 3.53513 188.409 2.67044 187.933 2.12503C187.515 1.63473 187.034 1.53829 186.871 1.52122C186.865 1.52064 186.859 1.52064 186.853 1.52122C186.786 1.51335 186.719 1.51125 186.652 1.51493C186.022 1.60179 185.494 1.98636 185.077 2.66625C185 2.80826 184.935 2.95584 184.881 3.10773C184.77 3.41051 184.692 3.72429 184.648 4.0437C184.556 4.78709 184.695 5.42535 185.06 5.9426C185.274 6.20617 185.645 6.54462 186.007 6.87468C186.26 7.1068 186.497 7.31976 186.678 7.50515C187.492 8.34379 188.122 9.32379 188.776 10.2774C189.269 11.0013 189.831 11.6851 190.32 12.4165C190.429 12.593 190.533 12.7526 190.617 12.8994C190.631 12.9163 190.641 12.9349 190.65 12.9548C191.009 13.5478 191.134 13.9432 190.658 14.6368C190.456 14.9363 189.564 16.0466 189.091 16.6501C188.373 17.5698 187.662 18.4916 186.959 19.4155C185.641 21.1422 184.356 22.8976 183.22 24.7351C182.614 25.711 181.748 26.8512 181.808 28.057C181.907 30.1236 184.286 30.2318 185.612 29.2068C186.164 28.7821 186.467 28.361 186.094 28.0786C185.392 27.5485 185.526 26.7347 186.62 24.6875C187.018 23.9271 189.9 20.043 192.205 16.9805C192.205 16.9805 192.461 16.6382 192.455 16.6471C192.558 16.5109 192.73 16.3249 192.995 16.3249C193.25 16.3222 193.439 16.6471 193.607 16.864C194.862 18.5218 195.364 19.219 196.462 20.9436C196.78 21.4399 197.22 22.3019 197.502 22.8743C197.499 22.8728 197.495 22.871 197.492 22.8689L197.497 22.8728C197.832 23.4656 198.113 24.0871 198.338 24.7298C198.56 25.3399 198.804 26.0272 199.426 26.5151C199.706 26.7267 200.039 26.8564 200.388 26.8895C200.396 26.8895 200.4 26.8895 200.406 26.8895C201.539 26.986 202.518 26.1108 202.631 24.9017C202.641 24.8166 202.645 24.7309 202.643 24.6453C202.626 23.9564 202.355 23.2975 201.816 22.6469C201.686 22.4996 201.446 22.2762 201.19 22.0392Z" fill="black"/>
<path d="M33.6719 31.902H32.8021V25.7824H31.0334V25.0309H35.4506V25.7824H33.6719V31.902Z" fill="black"/>
<path d="M40.162 31.902H39.3003V28.5915H36.9V31.902H36.0393V25.0309H36.9V27.8411H39.2994V25.0309H40.1611L40.162 31.902Z" fill="black"/>
<path d="M41.0459 25.0309H44.6584V25.7821H41.9073V27.937H44.5017V28.6882H41.9073V31.1507H44.7759V31.902H41.0459V25.0309Z" fill="black"/>
<path d="M48.0151 25.0309H49.4579L50.8519 30.4777H50.8716L52.2656 25.0309H53.7083V31.902H52.8506V25.8966H52.8311L51.2908 31.9017H50.4327L48.8923 25.8966H48.8744V31.9017H48.0151V25.0309Z" fill="black"/>
<path d="M56.1973 25.0309H57.3423L59.2051 31.902H58.3112L57.8163 30.0159H55.6044L55.0901 31.902H54.199L56.1973 25.0309ZM55.7802 29.323H57.6432L56.7604 26.0031H56.741L55.7802 29.323Z" fill="black"/>
<path d="M59.6953 25.0309H60.5534V28.3603H60.5729L62.9818 25.0309H63.9375L61.8305 27.8985L64.1124 31.902H63.1573L61.2752 28.5915L60.5534 29.5634V31.902H59.6953V25.0309Z" fill="black"/>
<path d="M64.604 25.0309H68.2168V25.7821H65.4657V27.937H68.0601V28.6882H65.4657V31.1507H68.334V31.902H64.604V25.0309Z" fill="black"/>
<path d="M72.4563 25.0309H73.3232V29.8365C73.3232 30.8419 73.6576 31.3108 74.5134 31.3108C75.438 31.3108 75.7132 30.7938 75.7132 29.8365V25.0309H76.579V29.8365C76.579 31.1482 75.8905 32.0001 74.5134 32.0001C73.1067 32.0001 72.4575 31.2438 72.4575 29.8365L72.4563 25.0309Z" fill="black"/>
<path d="M77.364 25.0309H79.1366C79.7406 25.0309 81.2904 25.0309 81.2904 27.0038C81.2904 28.2835 80.4627 28.9957 79.2838 28.9957H78.2222V31.902H77.364V25.0309ZM78.221 28.303H79.2437C79.8671 28.303 80.3933 27.8795 80.3933 26.9653C80.3933 26.2138 80.0328 25.7238 79.1854 25.7238H78.221V28.303Z" fill="black"/>
<path d="M88.8495 28.466C88.8495 30.1804 88.5255 31.9995 86.5917 31.9995C84.658 31.9995 84.3342 30.1804 84.3342 28.466C84.3342 26.7516 84.658 24.9321 86.5917 24.9321C88.5255 24.9321 88.8495 26.7516 88.8495 28.466ZM85.2371 28.466C85.2371 30.0376 85.3941 31.3137 86.5917 31.3137C87.7894 31.3137 87.9464 30.0376 87.9464 28.466C87.9464 26.8944 87.7894 25.6183 86.5917 25.6183C85.3941 25.6183 85.2371 26.8944 85.2371 28.466Z" fill="black"/>
<path d="M89.6345 25.0309H93.2664V25.7822H90.5005V27.9373H93.1089V28.6887H90.5005V31.902H89.6345V25.0309Z" fill="black"/>
<path d="M96.3088 25.0309H97.7515L99.1457 30.4777H99.1652L100.559 25.0309H102.002V31.902H101.144V25.8966H101.126L99.5858 31.9017H98.7281L97.186 25.8966H97.1665V31.9017H96.3088V25.0309Z" fill="black"/>
<path d="M104.532 25.0309H105.699L107.597 31.902H106.686L106.182 30.0159H103.928L103.404 31.902H102.493L104.532 25.0309ZM104.107 29.323H106.005L105.105 26.0031H105.085L104.107 29.323Z" fill="black"/>
<path d="M108.088 25.0309H108.946V28.3602H108.966L111.374 25.0309H112.33L110.223 27.8987L112.505 31.902H111.549L109.667 28.5916L108.946 29.5635V31.902H108.088V25.0309Z" fill="black"/>
<path d="M112.897 25.0309H116.509V25.7821H113.759V27.937H116.353V28.6882H113.759V31.1507H116.627V31.902H112.897V25.0309Z" fill="black"/>
<path d="M120.848 25.0309H121.694V29.8365C121.694 30.8419 122.02 31.3108 122.856 31.3108C123.759 31.3108 124.028 30.7938 124.028 29.8365V25.0309H124.873V29.8365C124.873 31.1482 124.201 32.0001 122.856 32.0001C121.483 32.0001 120.848 31.2438 120.848 29.8365V25.0309Z" fill="black"/>
<path d="M125.757 25.0309H127.529C128.134 25.0309 129.683 25.0309 129.683 27.0038C129.683 28.2835 128.855 28.9957 127.677 28.9957H126.615V31.902H125.757L125.757 25.0309ZM126.614 28.303H127.636C128.259 28.303 128.785 27.8795 128.785 26.9653C128.785 26.2138 128.424 25.7238 127.577 25.7238H126.613L126.614 28.303Z" fill="black"/>
<path d="M133.84 25.0309H134.986L136.849 31.902H135.955L135.46 30.0159H133.25L132.735 31.902H131.843L133.84 25.0309ZM133.423 29.323H135.286L134.403 26.0031H134.384L133.423 29.323Z" fill="black"/>
<path d="M137.241 25.0309H139.512C140.614 25.0309 141.312 25.6661 141.312 26.7537C141.312 27.5052 141.047 28.2934 140.23 28.4858V28.5051C140.84 28.5724 141.184 29.063 141.224 29.6501L141.284 30.824C141.324 31.5845 141.451 31.7766 141.658 31.902H140.615C140.468 31.7577 140.399 31.2475 140.379 30.91L140.319 29.8419C140.25 28.8986 139.719 28.8411 139.276 28.8411H138.106V31.9011H137.241V25.0309ZM138.106 28.1488H138.962C139.473 28.1488 140.407 28.1488 140.407 26.821C140.407 26.1474 139.945 25.7238 139.139 25.7238H138.106V28.1488Z" fill="black"/>
<path d="M144.336 31.902H143.486V25.7824H141.756V25.0309H146.075V25.7824H144.336V31.902Z" fill="black"/>
<path d="M146.664 25.0309H147.547V31.902H146.664V25.0309Z" fill="black"/>
<path d="M151.685 26.8274C151.685 26.1134 151.419 25.6183 150.591 25.6183C149.861 25.6183 149.427 25.9991 149.427 26.7227C149.427 28.6374 152.75 27.4945 152.75 29.9801C152.75 31.552 151.557 31.9995 150.561 31.9995C148.914 31.9995 148.431 31.1804 148.431 29.7326H149.299C149.299 30.4949 149.348 31.3137 150.62 31.3137C151.311 31.3137 151.843 30.8376 151.843 30.1137C151.843 28.1896 148.52 29.3038 148.52 26.8087C148.52 26.18 148.796 24.9321 150.581 24.9321C151.922 24.9321 152.533 25.5799 152.553 26.8274H151.685Z" fill="black"/>
<path d="M155.487 31.902H154.617V25.7824H152.848V25.0309H157.265V25.7824H155.486L155.487 31.902Z" fill="black"/>
<path d="M160.839 26.8274C160.839 26.1134 160.578 25.6183 159.769 25.6183C159.055 25.6183 158.632 25.9991 158.632 26.7227C158.632 28.6374 161.879 27.4945 161.879 29.9801C161.879 31.552 160.713 31.9995 159.74 31.9995C158.131 31.9995 157.658 31.1804 157.658 29.7326H158.506C158.506 30.4949 158.555 31.3137 159.798 31.3137C160.472 31.3137 160.993 30.8376 160.993 30.1137C160.993 28.1896 157.745 29.3038 157.745 26.8087C157.745 26.18 158.015 24.9321 159.759 24.9321C161.07 24.9321 161.667 25.5799 161.686 26.8274H160.839Z" fill="black"/>
</svg>
