<svg width="168" height="32" viewBox="0 0 168 32" fill="none" xmlns="http://www.w3.org/2000/svg">
<g clip-path="url(#clip0_2204_20158)">
<path d="M29.8196 0.0961442H33.5313V21.4321H29.8196V0.0961442ZM69.2331 0.102554L58.8296 13.5083L47.8531 0.102554H46.5196V21.4514H47.3977V4.77677L57.2008 17.4117L67.0052 4.77677V21.4514H70.5064V0.102554H69.2331ZM105.264 0.102554L94.8582 13.5083L83.8844 0.102554H82.5496V21.4514H83.4263V4.77677L93.2308 17.4117L103.034 4.77677V21.4514H106.535V0.102554H105.264ZM117.715 0.102554V21.4514H137.948V20.4066H121.434V10.5871H131.327V9.60321H121.434V0.940611H136.94V0.102554H117.715ZM148.209 0.102554V21.4514H168V20.4066H151.874V0.102554H148.209ZM11.1379 11.2168C14.2711 11.2168 15.0069 8.3325 15.0069 6.05228C15.0069 3.82654 14.2725 0.815624 11.276 0.815624H3.76369V11.2168H11.1379ZM0 0H11.3225C16.2049 0 18.5997 2.22894 18.5997 5.97536C18.5997 8.9991 16.845 11.4652 13.813 12.0228L20.0288 21.4562H16.0217L9.80585 12.0645H3.76369V21.4562H0V0Z" fill="black"/>
<path d="M162.996 25.183L162.955 25.2311V31.809L162.996 31.8571H163.727L163.768 31.809V26.7085L167.104 31.809L167.186 31.8571H167.959L168 31.809V25.2311L167.959 25.183H167.226L167.185 25.2311V30.3316L163.849 25.2311L163.767 25.183H162.996ZM155.851 26.0403C156.271 26.0308 156.684 26.1679 157.037 26.4343C157.391 26.7007 157.668 27.0842 157.835 27.5361C158.001 27.9879 158.049 28.4876 157.972 28.9715C157.896 29.4554 157.698 29.9016 157.404 30.2532C157.11 30.6049 156.733 30.846 156.322 30.946C155.911 31.046 155.483 31.0002 155.094 30.8146C154.705 30.629 154.372 30.3119 154.138 29.9036C153.903 29.4954 153.777 29.0146 153.777 28.5224C153.774 28.2 153.825 27.8799 153.928 27.5807C154.03 27.2814 154.182 27.0089 154.375 26.7786C154.568 26.5483 154.797 26.3648 155.051 26.2387C155.304 26.1126 155.576 26.0463 155.851 26.0435M155.851 25.042C155.265 25.0509 154.695 25.2625 154.211 25.6504C153.728 26.0382 153.353 26.5849 153.134 27.2217C152.915 27.8585 152.862 28.5569 152.981 29.2291C153.1 29.9013 153.386 30.5173 153.803 30.9995C154.22 31.4817 154.75 31.8086 155.325 31.9391C155.9 32.0696 156.495 31.9979 157.036 31.733C157.577 31.468 158.038 31.0217 158.363 30.4502C158.687 29.8786 158.86 29.2074 158.86 28.5208C158.853 27.5926 158.533 26.7054 157.969 26.0534C157.405 25.4014 156.644 25.0378 155.851 25.042ZM144.91 26.1381H146.05C147.27 26.1381 148.124 27.186 148.124 28.5208C148.124 29.8557 147.27 30.9036 146.05 30.9036H144.91V26.1381ZM144.138 25.1846L144.097 25.2327V31.8106L144.138 31.8587H146.052C147.802 31.8587 149.061 30.3812 149.061 28.5224C149.061 26.6637 147.8 25.1862 146.052 25.1862L144.138 25.1846ZM134.701 25.1846L134.66 25.2327V31.8106L134.701 31.8587H135.434L135.475 31.8106V26.7085L138.814 31.809L138.894 31.8571H139.667L139.708 31.809V25.2311L139.667 25.183H138.935L138.894 25.2311V30.3316L135.559 25.2311L135.477 25.183L134.701 25.1846ZM127.557 26.0419C127.977 26.0324 128.39 26.1696 128.743 26.436C129.096 26.7025 129.374 27.0861 129.54 27.5381C129.707 27.99 129.755 28.4898 129.678 28.9737C129.601 29.4577 129.403 29.9039 129.109 30.2554C128.815 30.607 128.438 30.848 128.027 30.9478C127.615 31.0476 127.188 31.0016 126.799 30.8158C126.41 30.6299 126.077 30.3125 125.842 29.9041C125.608 29.4957 125.482 29.0147 125.482 28.5224C125.479 28.2 125.53 27.8799 125.633 27.5807C125.735 27.2814 125.888 27.0089 126.08 26.7786C126.273 26.5483 126.503 26.3648 126.756 26.2387C127.009 26.1126 127.281 26.0463 127.557 26.0435M127.557 25.042C126.971 25.0509 126.4 25.2625 125.917 25.6504C125.433 26.0382 125.059 26.5849 124.84 27.2217C124.621 27.8585 124.567 28.5569 124.686 29.2291C124.805 29.9013 125.091 30.5173 125.508 30.9995C125.926 31.4817 126.455 31.8086 127.03 31.9391C127.605 32.0696 128.201 31.9979 128.741 31.733C129.282 31.468 129.743 31.0217 130.068 30.4502C130.393 29.8786 130.566 29.2074 130.565 28.5208C130.559 27.5926 130.238 26.7054 129.674 26.0534C129.11 25.4014 128.349 25.0378 127.557 25.042ZM117.747 25.1846L117.714 25.2231V31.8202L117.747 31.8587H121.181L121.214 31.8202V30.9533L121.181 30.9052H118.528V25.2215L118.495 25.183L117.747 25.1846Z" fill="black"/>
</g>
<defs>
<clipPath id="clip0_2204_20158">
<rect width="168" height="32" fill="white"/>
</clipPath>
</defs>
</svg>
