<svg width="102" height="32" viewBox="0 0 102 32" fill="none" xmlns="http://www.w3.org/2000/svg">
<g id="Group 5367">
<rect id="Rectangle 4480" width="101.042" height="31.9081" rx="4.5583" fill="#202020"/>
<g id="Group 5366">
<g id="App Store">
<path d="M67.0234 14.8778V16.5859H65.9528V17.706H67.0234V21.512C67.0234 22.8117 67.6113 23.3315 69.0904 23.3315C69.3503 23.3315 69.5979 23.3006 69.8145 23.2634V22.1557C69.6288 22.1742 69.5112 22.1866 69.307 22.1866C68.6448 22.1866 68.3539 21.8772 68.3539 21.1717V17.706H69.8145V16.5859H68.3539V14.8778H67.0234Z" fill="white"/>
<path d="M73.5824 23.4243C75.5504 23.4243 76.7571 22.1061 76.7571 19.9216C76.7571 17.7493 75.5442 16.425 73.5824 16.425C71.6144 16.425 70.4014 17.7493 70.4014 19.9216C70.4014 22.1061 71.6082 23.4243 73.5824 23.4243ZM73.5824 22.2423C72.4251 22.2423 71.7753 21.3945 71.7753 19.9216C71.7753 18.461 72.4251 17.607 73.5824 17.607C74.7334 17.607 75.3894 18.461 75.3894 19.9216C75.3894 21.3883 74.7334 22.2423 73.5824 22.2423Z" fill="white"/>
<path d="M77.7896 23.2944H79.1202V19.3151C79.1202 18.3682 79.8319 17.7308 80.8406 17.7308C81.0758 17.7308 81.4719 17.7741 81.5833 17.8112V16.4992C81.4409 16.4621 81.1872 16.4435 80.9892 16.4435C80.1104 16.4435 79.3616 16.9263 79.1697 17.5884H79.0707V16.5549H77.7896V23.2944Z" fill="white"/>
<path d="M84.887 17.5575C85.871 17.5575 86.5146 18.2444 86.5456 19.3027H83.1418C83.2161 18.2506 83.903 17.5575 84.887 17.5575ZM86.5394 21.4749C86.2919 22.0009 85.7411 22.2918 84.9365 22.2918C83.8721 22.2918 83.1852 21.543 83.1418 20.361V20.2867H87.9009V19.8225C87.9009 17.706 86.7684 16.425 84.8932 16.425C82.9933 16.425 81.7865 17.7927 81.7865 19.9463C81.7865 22.1 82.9686 23.4243 84.8994 23.4243C86.4404 23.4243 87.5172 22.6817 87.8204 21.4749H86.5394Z" fill="white"/>
<path d="M58.2978 20.8056C58.4004 22.4605 59.7795 23.5189 61.8321 23.5189C64.0258 23.5189 65.3985 22.4092 65.3985 20.6388C65.3985 19.2469 64.6159 18.4772 62.7173 18.0346L61.6974 17.7844C60.4915 17.5022 60.004 17.1238 60.004 16.4631C60.004 15.6292 60.7609 15.084 61.8962 15.084C62.9738 15.084 63.7179 15.6164 63.8526 16.4695H65.2509C65.1676 14.9108 63.7949 13.814 61.9155 13.814C59.895 13.814 58.5479 14.9108 58.5479 16.5593C58.5479 17.9191 59.3113 18.7274 60.9854 19.1186L62.1785 19.4073C63.4036 19.6959 63.9424 20.1193 63.9424 20.8248C63.9424 21.6459 63.0957 22.2424 61.9411 22.2424C60.7032 22.2424 59.8436 21.6844 59.7218 20.8056H58.2978Z" fill="white"/>
<path d="M44.5146 16.4435C43.5986 16.4435 42.8065 16.9015 42.398 17.6689H42.299V16.5549H41.018V25.5347H42.3485V22.2732H42.4537C42.8065 22.9849 43.5677 23.4058 44.5269 23.4058C46.2288 23.4058 47.3118 22.0628 47.3118 19.9216C47.3118 17.7803 46.2288 16.4435 44.5146 16.4435ZM44.1371 22.2114C43.0231 22.2114 42.3238 21.3326 42.3238 19.9277C42.3238 18.5167 43.0231 17.6379 44.1432 17.6379C45.2696 17.6379 45.9441 18.4982 45.9441 19.9216C45.9441 21.3511 45.2696 22.2114 44.1371 22.2114Z" fill="white"/>
<path d="M51.9677 16.4435C51.0518 16.4435 50.2596 16.9015 49.8512 17.6689H49.7521V16.5549H48.4711V25.5347H49.8016V22.2732H49.9069C50.2596 22.9849 51.0208 23.4058 51.98 23.4058C53.6819 23.4058 54.7649 22.0628 54.7649 19.9216C54.7649 17.7803 53.6819 16.4435 51.9677 16.4435ZM51.5902 22.2114C50.4762 22.2114 49.7769 21.3326 49.7769 19.9277C49.7769 18.5167 50.4762 17.6379 51.5964 17.6379C52.7227 17.6379 53.3972 18.4982 53.3972 19.9216C53.3972 21.3511 52.7227 22.2114 51.5902 22.2114Z" fill="white"/>
<path d="M38.6307 23.2944H40.1573L36.8155 14.0385H35.2696L31.9277 23.2944H33.403L34.2561 20.8377H37.784L38.6307 23.2944ZM35.9688 15.719H36.0778L37.4184 19.6318H34.6218L35.9688 15.719Z" fill="white"/>
</g>
<g id="Download on the">
<path d="M32.8184 7.0571V11.5222H34.4305C35.7611 11.5222 36.5315 10.7022 36.5315 9.27573C36.5315 7.87091 35.7549 7.0571 34.4305 7.0571H32.8184ZM33.5115 7.68834H34.3531C35.2783 7.68834 35.826 8.27626 35.826 9.28501C35.826 10.3092 35.2876 10.891 34.3531 10.891H33.5115V7.68834Z" fill="white"/>
<path d="M38.8913 11.5872C39.8753 11.5872 40.4787 10.9281 40.4787 9.8358C40.4787 8.74969 39.8722 8.08751 38.8913 8.08751C37.9073 8.08751 37.3008 8.74969 37.3008 9.8358C37.3008 10.9281 37.9042 11.5872 38.8913 11.5872ZM38.8913 10.9962C38.3126 10.9962 37.9877 10.5722 37.9877 9.8358C37.9877 9.10554 38.3126 8.67852 38.8913 8.67852C39.4668 8.67852 39.7948 9.10554 39.7948 9.8358C39.7948 10.5692 39.4668 10.9962 38.8913 10.9962Z" fill="white"/>
<path d="M45.6171 8.15249H44.9518L44.3515 10.7239H44.2989L43.6058 8.15249H42.9684L42.2752 10.7239H42.2257L41.6223 8.15249H40.9478L41.8761 11.5222H42.5599L43.253 9.04056H43.3056L44.0019 11.5222H44.6919L45.6171 8.15249Z" fill="white"/>
<path d="M46.3832 11.5222H47.0485V9.55112C47.0485 9.02509 47.3611 8.69709 47.853 8.69709C48.345 8.69709 48.5802 8.9663 48.5802 9.5078V11.5222H49.2455V9.34071C49.2455 8.53928 48.8309 8.08751 48.0789 8.08751C47.5715 8.08751 47.2373 8.31339 47.0733 8.68781H47.0238V8.15249H46.3832V11.5222Z" fill="white"/>
<path d="M50.2932 11.5222H50.9585V6.8374H50.2932V11.5222Z" fill="white"/>
<path d="M53.4606 11.5872C54.4446 11.5872 55.048 10.9281 55.048 9.8358C55.048 8.74969 54.4415 8.08751 53.4606 8.08751C52.4766 8.08751 51.8701 8.74969 51.8701 9.8358C51.8701 10.9281 52.4735 11.5872 53.4606 11.5872ZM53.4606 10.9962C52.8819 10.9962 52.557 10.5722 52.557 9.8358C52.557 9.10554 52.8819 8.67852 53.4606 8.67852C54.0361 8.67852 54.3641 9.10554 54.3641 9.8358C54.3641 10.5692 54.0361 10.9962 53.4606 10.9962Z" fill="white"/>
<path d="M57.0302 11.0178C56.6682 11.0178 56.4051 10.8415 56.4051 10.5382C56.4051 10.2412 56.6155 10.0833 57.0797 10.0524L57.9028 9.9998V10.2814C57.9028 10.6991 57.5315 11.0178 57.0302 11.0178ZM56.86 11.5779C57.3025 11.5779 57.6707 11.3861 57.8718 11.0488H57.9244V11.5222H58.565V9.22003C58.565 8.50834 58.0884 8.08751 57.2437 8.08751C56.4794 8.08751 55.9348 8.45883 55.8667 9.03747H56.5103C56.5846 8.7992 56.8414 8.66305 57.2128 8.66305C57.6676 8.66305 57.9028 8.86418 57.9028 9.22003V9.5109L56.99 9.5635C56.1885 9.61301 55.7368 9.96267 55.7368 10.5692C55.7368 11.1849 56.2102 11.5779 56.86 11.5779Z" fill="white"/>
<path d="M60.8226 11.5779C61.2867 11.5779 61.6797 11.3582 61.8808 10.99H61.9335V11.5222H62.5709V6.8374H61.9056V8.68781H61.8561C61.6735 8.31649 61.2836 8.09679 60.8226 8.09679C59.9717 8.09679 59.424 8.77135 59.424 9.8358C59.424 10.9033 59.9655 11.5779 60.8226 11.5779ZM61.0113 8.694C61.5683 8.694 61.918 9.13648 61.918 9.83889C61.918 10.5444 61.5714 10.9807 61.0113 10.9807C60.4482 10.9807 60.1109 10.5506 60.1109 9.8358C60.1109 9.1272 60.4513 8.694 61.0113 8.694Z" fill="white"/>
<path d="M66.885 11.5872C67.869 11.5872 68.4724 10.9281 68.4724 9.8358C68.4724 8.74969 67.8659 8.08751 66.885 8.08751C65.901 8.08751 65.2945 8.74969 65.2945 9.8358C65.2945 10.9281 65.8979 11.5872 66.885 11.5872ZM66.885 10.9962C66.3063 10.9962 65.9814 10.5722 65.9814 9.8358C65.9814 9.10554 66.3063 8.67852 66.885 8.67852C67.4605 8.67852 67.7885 9.10554 67.7885 9.8358C67.7885 10.5692 67.4605 10.9962 66.885 10.9962Z" fill="white"/>
<path d="M69.353 11.5222H70.0183V9.55112C70.0183 9.02509 70.3308 8.69709 70.8228 8.69709C71.3148 8.69709 71.55 8.9663 71.55 9.5078V11.5222H72.2153V9.34071C72.2153 8.53928 71.8006 8.08751 71.0487 8.08751C70.5412 8.08751 70.2071 8.31339 70.0431 8.68781H69.9935V8.15249H69.353V11.5222Z" fill="white"/>
<path d="M75.2793 7.31393V8.16796H74.7439V8.72803H75.2793V10.631C75.2793 11.2808 75.5732 11.5408 76.3128 11.5408C76.4427 11.5408 76.5665 11.5253 76.6748 11.5067V10.9529C76.582 10.9621 76.5232 10.9683 76.4211 10.9683C76.09 10.9683 75.9445 10.8136 75.9445 10.4609V8.72803H76.6748V8.16796H75.9445V7.31393H75.2793Z" fill="white"/>
<path d="M77.5678 11.5222H78.2331V9.55422C78.2331 9.04365 78.5363 8.70018 79.0809 8.70018C79.5513 8.70018 79.8019 8.97248 79.8019 9.5109V11.5222H80.4672V9.3469C80.4672 8.54547 80.0247 8.0906 79.3068 8.0906C78.7994 8.0906 78.4435 8.31649 78.2795 8.694H78.2269V6.8374H77.5678V11.5222Z" fill="white"/>
<path d="M82.8672 8.65377C83.3592 8.65377 83.681 8.99724 83.6964 9.52637H81.9946C82.0317 9.00033 82.3752 8.65377 82.8672 8.65377ZM83.6933 10.6125C83.5696 10.8755 83.2942 11.0209 82.8919 11.0209C82.3597 11.0209 82.0162 10.6465 81.9946 10.0555V10.0184H84.3741V9.78629C84.3741 8.72803 83.8078 8.08751 82.8703 8.08751C81.9203 8.08751 81.3169 8.77135 81.3169 9.84818C81.3169 10.925 81.9079 11.5872 82.8733 11.5872C83.6438 11.5872 84.1822 11.2159 84.3339 10.6125H83.6933Z" fill="white"/>
</g>
<g id="Apple logo">
<path d="M24.7069 15.6982C24.7231 14.4449 25.3961 13.259 26.4639 12.6026C25.7903 11.6406 24.6621 11.0307 23.4883 10.994C22.2363 10.8626 21.0226 11.7431 20.3846 11.7431C19.7343 11.7431 18.752 11.007 17.6943 11.0288C16.3156 11.0733 15.0303 11.8572 14.3595 13.0625C12.9176 15.5589 13.9931 19.2278 15.3744 21.2457C16.0654 22.2339 16.873 23.3376 17.9298 23.2985C18.9639 23.2556 19.3502 22.639 20.5984 22.639C21.8351 22.639 22.1975 23.2985 23.2757 23.2736C24.3854 23.2556 25.0845 22.2811 25.7513 21.2836C26.2478 20.5795 26.6299 19.8014 26.8834 18.978C25.5793 18.4264 24.7085 17.1141 24.7069 15.6982Z" fill="white"/>
<path d="M22.6703 9.66688C23.2754 8.94056 23.5735 8.007 23.5013 7.06445C22.5769 7.16154 21.7231 7.60332 21.1099 8.30177C20.5102 8.9842 20.1982 9.90134 20.2572 10.8079C21.1819 10.8174 22.0909 10.3876 22.6703 9.66688Z" fill="white"/>
</g>
</g>
</g>
</svg>
