<svg width="28" height="28" viewBox="0 0 28 28" fill="none" xmlns="http://www.w3.org/2000/svg">
<path d="M26.5833 4.82551H11.4701C11.1105 4.82551 10.8203 4.53528 10.8203 4.17575C10.8203 3.81622 11.1105 3.526 11.4701 3.526H26.5833C26.9428 3.526 27.2331 3.81622 27.2331 4.17575C27.2331 4.53528 26.9428 4.82551 26.5833 4.82551Z" fill="black"/>
<path d="M4.42265 4.82551H0.649752C0.290223 4.82551 0 4.53528 0 4.17575C0 3.81622 0.290223 3.526 0.649752 3.526H4.42265C4.78218 3.526 5.0724 3.81622 5.0724 4.17575C5.0724 4.53528 4.78218 4.82551 4.42265 4.82551Z" fill="black"/>
<path d="M7.95309 8.34715C5.64863 8.34715 3.77734 6.47587 3.77734 4.17574C3.77734 1.87129 5.64863 0 7.95309 0C10.2532 0 12.1245 1.87129 12.1245 4.17574C12.1202 6.47587 10.2532 8.34715 7.95309 8.34715ZM7.95309 1.2995C6.36769 1.2995 5.07685 2.59035 5.07685 4.17574C5.07685 5.76114 6.36769 7.04765 7.95309 7.04765C9.53848 7.04765 10.825 5.76114 10.825 4.17574C10.8207 2.59035 9.53415 1.2995 7.95309 1.2995Z" fill="black"/>
<path d="M26.5834 14.6497H20.9999C20.6403 14.6497 20.3501 14.3595 20.3501 14C20.3501 13.6404 20.6403 13.3502 20.9999 13.3502H26.5834C26.9429 13.3502 27.2331 13.6404 27.2331 14C27.2331 14.3595 26.9429 14.6497 26.5834 14.6497Z" fill="black"/>
<path d="M13.9524 14.6497H0.649752C0.290223 14.6497 0 14.3595 0 14C0 13.6404 0.290223 13.3502 0.649752 13.3502H13.9524C14.3119 13.3502 14.6021 13.6404 14.6021 14C14.6021 14.3595 14.3119 14.6497 13.9524 14.6497Z" fill="black"/>
<path d="M17.4824 18.1714C15.1779 18.1714 13.3066 16.3001 13.3066 14C13.3066 11.6955 15.1779 9.82422 17.4824 9.82422C19.7825 9.82422 21.6538 11.6955 21.6538 14C21.6495 16.3001 19.7782 18.1714 17.4824 18.1714ZM17.4824 11.1237C15.897 11.1237 14.6061 12.4146 14.6061 14C14.6061 15.5854 15.897 16.8719 17.4824 16.8719C19.0678 16.8719 20.3543 15.5854 20.3543 14C20.35 12.4146 19.0634 11.1237 17.4824 11.1237Z" fill="black"/>
<path d="M26.5835 24.4741H13.203C12.8434 24.4741 12.5532 24.1838 12.5532 23.8243C12.5532 23.4648 12.8434 23.1746 13.203 23.1746H26.5835C26.9431 23.1746 27.2333 23.4648 27.2333 23.8243C27.2333 24.1838 26.9431 24.4741 26.5835 24.4741Z" fill="black"/>
<path d="M6.15532 24.4741H0.649752C0.290223 24.4741 0 24.1838 0 23.8243C0 23.4648 0.290223 23.1746 0.649752 23.1746H6.15532C6.51485 23.1746 6.80507 23.4648 6.80507 23.8243C6.80507 24.1838 6.51485 24.4741 6.15532 24.4741Z" fill="black"/>
<path d="M9.68551 28C7.38105 28 5.50977 26.1244 5.50977 23.8242C5.50977 21.5241 7.38105 19.6528 9.68551 19.6528C11.9856 19.6528 13.8569 21.5241 13.8569 23.8242C13.8526 26.1287 11.9856 28 9.68551 28ZM9.68551 20.9523C8.10011 20.9523 6.80927 22.2388 6.80927 23.8242C6.80927 25.4096 8.10011 26.7005 9.68551 26.7005C11.2709 26.7005 12.5574 25.4096 12.5574 23.8242C12.5531 22.2388 11.2666 20.9523 9.68551 20.9523Z" fill="black"/>
</svg>
