<svg width="87" height="20" viewBox="0 0 87 20" fill="none" xmlns="http://www.w3.org/2000/svg">
<g id="text">
<path id="Vector" d="M76.1168 6.70373C75.0741 5.99328 73.8575 5.5806 72.5978 5.51011C71.3381 5.43961 70.083 5.71398 68.9676 6.30367C67.8522 6.89337 66.9187 7.77606 66.2676 8.85677C65.6165 9.93748 65.2725 11.1753 65.2725 12.437C65.2725 13.6986 65.6165 14.9364 66.2676 16.0172C66.9187 17.0979 67.8522 17.9806 68.9676 18.5703C70.083 19.1599 71.3381 19.4343 72.5978 19.3638C73.8575 19.2933 75.0741 18.8806 76.1168 18.1702V19.0102H80.0532V5.86279H76.1168V6.70373ZM72.5366 15.8197C71.8752 15.7846 71.2387 15.5563 70.7057 15.1631C70.1727 14.77 69.7666 14.2292 69.5378 13.6077C69.3089 12.9862 69.2672 12.3112 69.4179 11.6663C69.5686 11.0214 69.9051 10.4348 70.3857 9.97904C70.8663 9.52332 71.4699 9.21849 72.122 9.10225C72.774 8.98602 73.4458 9.06347 74.0543 9.32503C74.6627 9.5866 75.1812 10.0208 75.5455 10.5739C75.9097 11.127 76.1039 11.7748 76.1039 12.4371C76.0787 13.3585 75.6889 14.2322 75.0201 14.8665C74.3512 15.5007 73.458 15.8435 72.5366 15.8197Z" fill="black"/>
<path id="Vector_2" d="M22.1343 0.00366211H18.0146V19.0105H22.1343V0.00366211Z" fill="black"/>
<path id="Vector_3" d="M58.2815 5.50906C57.5075 5.46332 56.7341 5.60645 56.0277 5.92612C55.3214 6.2458 54.7033 6.73242 54.2269 7.34407V5.86345H50.3066V19.0105H54.274V12.1012C54.2435 11.7043 54.2989 11.3055 54.4363 10.9319C54.5737 10.5583 54.7899 10.2187 55.0703 9.93608C55.3507 9.6535 55.6886 9.4346 56.0611 9.29428C56.4336 9.15395 56.832 9.09548 57.2291 9.12285C58.9593 9.12285 59.9537 10.1564 59.9537 12.074V19.0105H63.8859V10.6496C63.8858 7.58981 61.453 5.50906 58.2815 5.50906Z" fill="black"/>
<path id="Vector_4" d="M34.5875 6.70373C33.5448 5.99328 32.3282 5.5806 31.0685 5.51011C29.8088 5.43961 28.5537 5.71398 27.4383 6.30367C26.3229 6.89337 25.3894 7.77606 24.7383 8.85677C24.0872 9.93748 23.7432 11.1753 23.7432 12.437C23.7432 13.6986 24.0872 14.9364 24.7383 16.0172C25.3894 17.0979 26.3229 17.9806 27.4383 18.5703C28.5537 19.1599 29.8088 19.4343 31.0685 19.3638C32.3282 19.2933 33.5448 18.8806 34.5875 18.1702V19.0102H38.5239V5.86279H34.5875V6.70373ZM31.0072 15.8197C30.3458 15.7846 29.7092 15.5564 29.1761 15.1633C28.6431 14.7702 28.2369 14.2295 28.008 13.608C27.7791 12.9865 27.7373 12.3115 27.888 11.6665C28.0387 11.0216 28.3751 10.4349 28.8557 9.97916C29.3363 9.5234 29.9399 9.21853 30.592 9.10226C31.244 8.98599 31.9158 9.06342 32.5243 9.32497C33.1328 9.58652 33.6513 10.0207 34.0156 10.5739C34.3799 11.127 34.574 11.7748 34.574 12.4371C34.5489 13.3585 34.1591 14.2322 33.4903 14.8664C32.8216 15.5006 31.9284 15.8435 31.0071 15.8197H31.0072Z" fill="black"/>
<path id="Vector_5" d="M44.6133 7.57527V5.8628H40.583V19.0105H44.622V12.8725C44.622 10.8014 46.8668 9.68816 48.4245 9.68816C48.4402 9.68816 48.4554 9.68973 48.4712 9.68985V5.86358C47.7413 5.84399 47.0163 5.98748 46.3489 6.2836C45.6815 6.57971 45.0886 7.02098 44.6133 7.57527Z" fill="black"/>
<path id="Vector_6" d="M84.2324 14.3472C83.7437 14.3472 83.266 14.4921 82.8597 14.7636C82.4534 15.0351 82.1368 15.421 81.9498 15.8725C81.7628 16.324 81.7139 16.8207 81.8092 17.3C81.9046 17.7793 82.1399 18.2195 82.4854 18.5651C82.831 18.9106 83.2712 19.1459 83.7505 19.2412C84.2298 19.3365 84.7265 19.2876 85.178 19.1006C85.6295 18.9136 86.0154 18.5969 86.2868 18.1906C86.5583 17.7843 86.7032 17.3066 86.7032 16.8179C86.7033 16.4934 86.6394 16.1721 86.5152 15.8723C86.391 15.5726 86.209 15.3002 85.9796 15.0707C85.7501 14.8413 85.4777 14.6593 85.1779 14.5352C84.8782 14.411 84.5568 14.3471 84.2324 14.3472Z" fill="black"/>
<path id="Vector_7" d="M15.1739 0H10.9045C10.9111 1.71213 10.515 3.40182 9.74821 4.93264C8.98138 6.46346 7.86531 7.79251 6.49013 8.81246L4.79883 10.0793L11.3527 19.0165H16.7409L10.7108 10.793C12.1329 9.37953 13.2598 7.69748 14.026 5.84461C14.7922 3.99174 15.1824 2.00503 15.1739 0Z" fill="black"/>
<path id="Vector_8" d="M4.27697 0H0V19.0157H4.27697V0Z" fill="black"/>
</g>
</svg>
