<svg width="200" height="107" viewBox="0 0 200 107" fill="none" xmlns="http://www.w3.org/2000/svg">
<rect x="1.04102" y="1" width="174.529" height="104.778" rx="3" stroke="#8B929D" stroke-width="2"/>
<line x1="0.902344" y1="17.0835" x2="176.57" y2="17.0835" stroke="#8B929D" stroke-width="2"/>
<circle cx="9.94359" cy="9.04174" r="3.0139" fill="#8B929D"/>
<circle cx="18.9709" cy="9.04174" r="3.0139" fill="#8B929D"/>
<circle cx="27.9983" cy="9.04174" r="3.0139" fill="#8B929D"/>
<path d="M199.664 54.9571C200.055 54.5666 200.055 53.9334 199.664 53.5429L193.3 47.1789C192.91 46.7884 192.277 46.7884 191.886 47.1789C191.496 47.5695 191.496 48.2026 191.886 48.5931L197.543 54.25L191.886 59.9069C191.496 60.2974 191.496 60.9305 191.886 61.3211C192.277 61.7116 192.91 61.7116 193.3 61.3211L199.664 54.9571ZM152.457 55.25L198.957 55.25L198.957 53.25L152.457 53.25L152.457 55.25Z" fill="#8B929D"/>
</svg>
