<svg width="76" height="29" viewBox="0 0 76 29" fill="none" xmlns="http://www.w3.org/2000/svg">
<g id="Group 1000003444">
<path id="badge" d="M66.298 0.293945H8.81733C3.94765 0.293945 0 3.96756 0 8.49919V20.3632C0 24.8948 3.94765 28.5684 8.81733 28.5684H66.298C71.1676 28.5684 75.1153 24.8948 75.1153 20.3632V8.49919C75.1153 3.96756 71.1676 0.293945 66.298 0.293945Z" fill="#FFB3C7"/>
<g id="text">
<path id="Vector" d="M58.2401 12.6747C57.5674 12.2188 56.7825 11.9539 55.9699 11.9087C55.1572 11.8634 54.3475 12.0395 53.6279 12.418C52.9084 12.7964 52.3062 13.3629 51.8861 14.0565C51.4661 14.7501 51.2441 15.5445 51.2441 16.3542C51.2441 17.1639 51.4661 17.9583 51.8861 18.6518C52.3062 19.3454 52.9084 19.9119 53.6279 20.2904C54.3475 20.6688 55.1572 20.8449 55.9699 20.7996C56.7825 20.7544 57.5674 20.4896 58.2401 20.0336V20.5727H60.7796V12.135H58.2401V12.6747ZM55.9304 18.5251C55.5037 18.5026 55.0931 18.3561 54.7492 18.1038C54.4054 17.8514 54.1434 17.5044 53.9958 17.1055C53.8481 16.7067 53.8212 16.2735 53.9185 15.8596C54.0157 15.4457 54.2328 15.0692 54.5428 14.7767C54.8528 14.4843 55.2423 14.2886 55.6629 14.214C56.0836 14.1394 56.5169 14.1891 56.9095 14.357C57.302 14.5249 57.6365 14.8035 57.8715 15.1585C58.1065 15.5135 58.2317 15.9292 58.2317 16.3543C58.2155 16.9456 57.964 17.5063 57.5325 17.9134C57.1011 18.3204 56.5248 18.5404 55.9304 18.5251Z" fill="black"/>
<path id="Vector_2" d="M23.4155 8.37488H20.7578V20.573H23.4155V8.37488Z" fill="black"/>
<path id="Vector_3" d="M46.7327 11.9082C46.2334 11.8788 45.7344 11.9707 45.2787 12.1758C44.823 12.381 44.4243 12.6933 44.1169 13.0858V12.1356H41.5879V20.573H44.1473V16.1389C44.1277 15.8841 44.1634 15.6282 44.252 15.3884C44.3407 15.1486 44.4802 14.9307 44.661 14.7493C44.8419 14.568 45.0599 14.4275 45.3002 14.3374C45.5405 14.2474 45.7975 14.2099 46.0537 14.2274C47.1699 14.2274 47.8114 14.8907 47.8114 16.1214V20.573H50.3482V15.2073C50.3481 13.2435 48.7787 11.9082 46.7327 11.9082Z" fill="black"/>
<path id="Vector_4" d="M31.449 12.6747C30.7764 12.2188 29.9915 11.9539 29.1789 11.9087C28.3662 11.8634 27.5565 12.0395 26.8369 12.418C26.1174 12.7964 25.5152 13.3629 25.0951 14.0565C24.6751 14.7501 24.4531 15.5445 24.4531 16.3542C24.4531 17.1639 24.6751 17.9583 25.0951 18.6518C25.5152 19.3454 26.1174 19.9119 26.8369 20.2904C27.5565 20.6688 28.3662 20.8449 29.1789 20.7996C29.9915 20.7544 30.7764 20.4896 31.449 20.0336V20.5727H33.9885V12.135H31.449V12.6747ZM29.1393 18.5251C28.7126 18.5026 28.3019 18.3562 27.9581 18.1039C27.6142 17.8516 27.3522 17.5046 27.2045 17.1057C27.0568 16.7068 27.0299 16.2736 27.1271 15.8597C27.2242 15.4458 27.4413 15.0693 27.7513 14.7768C28.0614 14.4843 28.4508 14.2887 28.8714 14.214C29.2921 14.1394 29.7255 14.1891 30.118 14.357C30.5106 14.5248 30.8451 14.8035 31.0801 15.1585C31.3151 15.5135 31.4404 15.9292 31.4404 16.3543C31.4241 16.9456 31.1727 17.5063 30.7413 17.9133C30.3098 18.3203 29.7336 18.5404 29.1392 18.5251H29.1393Z" fill="black"/>
<path id="Vector_5" d="M37.9165 13.2341V12.135H35.3164V20.5729H37.922V16.6337C37.922 15.3045 39.3702 14.5901 40.3751 14.5901C40.3852 14.5901 40.3951 14.5911 40.4053 14.5911V12.1355C39.9344 12.123 39.4667 12.215 39.0361 12.4051C38.6056 12.5951 38.2231 12.8783 37.9165 13.2341Z" fill="black"/>
<path id="Vector_6" d="M63.4728 17.5798C63.1575 17.5798 62.8494 17.6729 62.5872 17.8471C62.3251 18.0213 62.1208 18.269 62.0002 18.5587C61.8796 18.8485 61.848 19.1673 61.9095 19.4749C61.9711 19.7825 62.1229 20.065 62.3458 20.2868C62.5687 20.5085 62.8527 20.6595 63.1619 20.7207C63.4711 20.7819 63.7916 20.7505 64.0828 20.6305C64.3741 20.5104 64.623 20.3072 64.7982 20.0464C64.9733 19.7857 65.0668 19.4791 65.0668 19.1655C65.0668 18.9573 65.0256 18.751 64.9455 18.5587C64.8654 18.3663 64.748 18.1914 64.5999 18.0442C64.4519 17.897 64.2762 17.7802 64.0828 17.7005C63.8894 17.6208 63.6821 17.5798 63.4728 17.5798Z" fill="black"/>
<path id="Vector_7" d="M18.9237 8.37231H16.1694C16.1737 9.47112 15.9181 10.5555 15.4234 11.538C14.9287 12.5204 14.2087 13.3733 13.3216 14.0279L12.2305 14.8409L16.4585 20.5766H19.9346L16.0444 15.299C16.9618 14.3919 17.6888 13.3124 18.1831 12.1232C18.6774 10.9341 18.9292 9.65909 18.9237 8.37231Z" fill="black"/>
<path id="Vector_8" d="M11.8939 8.37231H9.13477V20.5761H11.8939V8.37231Z" fill="black"/>
</g>
</g>
</svg>
