<svg width="216" height="27" viewBox="0 0 216 27" fill="none" xmlns="http://www.w3.org/2000/svg">
<g id="Group">
<g id="Group_2">
<path id="Vector" d="M21.9849 4.98426C20.9636 4.03139 19.7532 3.29841 18.3915 2.78532C17.0297 2.27224 15.5545 2.01569 14.0037 2.01569C12.3772 2.01569 10.902 2.27224 9.54029 2.82197C8.17857 3.37171 7.00598 4.14134 6.02252 5.16751C5.03906 6.15703 4.24472 7.36645 3.71517 8.72246C3.14778 10.0785 2.84518 11.5811 2.84518 13.2303C2.84518 14.8428 3.10996 16.3454 3.63951 17.7015C4.16907 19.0575 4.92558 20.2669 5.90904 21.2564C6.89251 22.2459 8.02727 23.0522 9.35116 23.6019C10.6751 24.1517 12.1124 24.4449 13.7011 24.4449C15.1763 24.4449 16.5758 24.1883 17.8619 23.7119C19.148 23.1988 20.2449 22.5025 21.2284 21.6229C22.174 20.7067 22.9683 19.6439 23.5357 18.3978C24.1031 17.1517 24.4435 15.7957 24.5192 14.2931H14.2306V12.4607H26.5618L26.6374 13.2669C26.6374 15.2093 26.3348 16.9685 25.6918 18.581C25.0487 20.1936 24.1787 21.5863 23.0062 22.759C21.8714 23.9318 20.5097 24.848 18.921 25.471C17.3702 26.1307 15.6302 26.4239 13.7389 26.4239C11.8098 26.4239 10.0698 26.0941 8.44335 25.4344C6.81685 24.7747 5.41731 23.8585 4.24472 22.6857C3.03431 21.513 2.1265 20.1203 1.44564 18.5077C0.764778 16.8952 0.5 15.1727 0.5 13.3036C0.5 11.3978 0.840429 9.63868 1.52129 8.02613C2.20215 6.41357 3.14778 5.02091 4.3582 3.81149C5.56861 2.60208 7.00598 1.68585 8.63248 1.02617C10.259 0.329841 12.0368 0 14.0037 0C15.8193 0 17.5593 0.293192 19.2236 0.916225C20.8879 1.53926 22.2875 2.41883 23.5735 3.55495L21.9849 4.98426Z" fill="#202020"/>
<path id="Vector_2" d="M43.2803 25.9476H27.5449V0.513184H29.8523V23.9319H43.2803V25.9476Z" fill="#202020"/>
<path id="Vector_3" d="M44.5663 25.9476H42.1455L53.0392 0.513184H55.6114L66.5051 25.9476H64.0465L60.9448 18.6178H47.7059L44.5663 25.9476ZM48.5002 16.6021H60.0748L54.2875 2.93202L48.5002 16.6021Z" fill="#202020"/>
<path id="Vector_4" d="M92.0755 25.9476H89.7681V3.5917L80.1983 21.6596H78.0422L68.4724 3.665V25.9109H66.165V0.513184H69.1911L79.1014 19.3508L89.0116 0.513184H92.0755V25.9476Z" fill="#202020"/>
</g>
<g id="Group_3">
<path id="Vector_5" d="M131.111 25.9842L141.589 0.549805H142.875L153.391 25.9842H152.369L144.842 7.69636C144.766 7.51311 144.615 7.21992 144.426 6.74348C144.237 6.26705 144.01 5.68066 143.707 5.02098C143.442 4.3613 143.14 3.62832 142.837 2.89534C142.535 2.16236 142.232 1.46603 141.929 0.769699L142.345 0.806348C142.194 1.24614 141.967 1.79587 141.702 2.4922C141.438 3.18853 141.135 3.88486 140.832 4.58119C140.53 5.27752 140.265 5.93721 140.038 6.52359C139.811 7.10997 139.622 7.51311 139.546 7.76966L132.133 25.9842H131.111ZM135.007 17.6282L135.31 16.7853H149.23L149.532 17.6282H135.007Z" fill="#202020"/>
<path id="Vector_6" d="M164.625 26.2041C162.658 26.2041 160.918 25.7643 159.405 24.9214C157.892 24.0785 156.682 22.869 155.85 21.3664C154.98 19.8638 154.563 18.1413 154.563 16.1989V0.549805H155.433V15.8691C155.433 17.7382 155.812 19.3874 156.606 20.8167C157.4 22.246 158.46 23.3821 159.859 24.1884C161.221 24.9947 162.847 25.3978 164.663 25.3978C166.554 25.3978 168.181 24.9947 169.618 24.1884C171.055 23.3821 172.152 22.246 172.984 20.8167C173.779 19.3874 174.195 17.7382 174.195 15.8691V0.549805H175.065V16.1989C175.065 18.1413 174.611 19.8638 173.703 21.3664C172.795 22.869 171.585 24.0418 169.996 24.9214C168.408 25.7643 166.63 26.2041 164.625 26.2041Z" fill="#202020"/>
<path id="Vector_7" d="M185.278 25.9842V1.35608H176.956V0.549805H194.431V1.35608H186.11V25.9842H185.278Z" fill="#202020"/>
</g>
<g id="Group_4">
<path id="Vector_8" d="M94.3828 25.9476V0.513184H104.86C106.298 0.513184 107.546 0.806376 108.605 1.35611C109.664 1.90585 110.496 2.63882 111.102 3.55505C111.669 4.47127 111.972 5.49745 111.972 6.63356C111.972 8.17282 111.404 9.52884 110.27 10.665C109.135 11.8011 107.622 12.5341 105.768 12.7906L105.541 12.3142C107.281 12.4241 108.756 12.7539 109.929 13.377C111.102 14 111.972 14.7696 112.577 15.7225C113.144 16.6754 113.447 17.7382 113.447 18.9476C113.447 19.9005 113.296 20.8167 112.955 21.6596C112.615 22.5026 112.123 23.2356 111.404 23.8952C110.686 24.5549 109.778 25.0314 108.643 25.3978C107.508 25.7643 106.184 25.9109 104.634 25.9109H94.3828V25.9476ZM95.215 12.2042H104.634C105.806 12.2042 106.865 11.9477 107.849 11.4712C108.832 10.9581 109.589 10.2985 110.194 9.45554C110.761 8.61261 111.064 7.65974 111.064 6.63356C111.064 5.16761 110.496 3.92154 109.362 2.85872C108.227 1.83255 106.676 1.31946 104.747 1.31946H95.215V12.2042ZM95.215 25.1413H104.634C106.525 25.1413 108.076 24.8848 109.21 24.335C110.383 23.7853 111.215 23.089 111.745 22.1727C112.274 21.2565 112.539 20.2303 112.539 19.0942C112.539 17.9215 112.236 16.8586 111.631 15.9424C111.026 15.0262 110.156 14.2932 109.021 13.7801C107.887 13.267 106.487 13.0105 104.86 13.0105H95.2528V25.1413H95.215Z" fill="#202020"/>
<path id="Vector_9" d="M116.17 25.9476V0.513184H131.414V1.31946H117.002V25.1413H131.187V25.9476H116.17ZM116.662 13.1937V12.3875H129.144V13.1937H116.662Z" fill="#202020"/>
</g>
<g id="Group_5">
<path id="Vector_10" d="M204.417 25.9476V13.6335L204.758 15.0262L193.939 0.513184H194.961L205.06 14.0733H204.644L214.479 0.513184H215.5L204.947 15.0262L205.287 13.5969V25.9109H204.417V25.9476Z" fill="#202020"/>
</g>
</g>
</svg>
