<svg width="76" height="24" viewBox="0 0 76 24" fill="none" xmlns="http://www.w3.org/2000/svg">
<g id="PayPal" clip-path="url(#clip0_2323_37977)">
<path id="Vector" d="M9.30262 2.1001H3.45262C3.07762 2.1001 2.70262 2.4001 2.62762 2.7751L0.302622 17.7751C0.227622 18.0751 0.452622 18.3001 0.752622 18.3001H3.52762C3.90262 18.3001 4.27762 18.0001 4.35262 17.6251L4.95262 13.5751C5.02762 13.2001 5.32762 12.9001 5.77762 12.9001H7.65262C11.4776 12.9001 13.7276 11.0251 14.3276 7.3501C14.5526 5.7751 14.3276 4.5001 13.5776 3.6001C12.7526 2.6251 11.2526 2.1001 9.30262 2.1001ZM9.97762 7.5751C9.67762 9.6751 8.02762 9.6751 6.52762 9.6751H5.62762L6.22762 5.7751C6.22762 5.5501 6.45262 5.4001 6.67762 5.4001H7.05262C8.10262 5.4001 9.07762 5.4001 9.60262 6.0001C9.97762 6.3001 10.1276 6.8251 9.97762 7.5751Z" fill="#003087"/>
<path id="Vector_2" d="M26.7024 7.5H23.9274C23.7024 7.5 23.4774 7.65 23.4774 7.875L23.3274 8.625L23.1024 8.325C22.5024 7.425 21.1524 7.125 19.8024 7.125C16.7274 7.125 14.1024 9.45 13.5774 12.75C13.2774 14.4 13.6524 15.975 14.6274 17.025C15.4524 18 16.7274 18.45 18.1524 18.45C20.6274 18.45 22.0524 16.875 22.0524 16.875L21.9024 17.625C21.8274 17.925 22.0524 18.225 22.3524 18.225H24.9024C25.2774 18.225 25.6524 17.925 25.7274 17.55L27.2274 7.95C27.3024 7.8 27.0024 7.5 26.7024 7.5ZM22.8774 12.9C22.5774 14.475 21.3774 15.6 19.7274 15.6C18.9024 15.6 18.3024 15.375 17.8524 14.85C17.4024 14.325 17.2524 13.65 17.4024 12.9C17.6274 11.325 18.9774 10.2 20.5524 10.2C21.3774 10.2 21.9774 10.5 22.4274 10.95C22.8024 11.475 22.9524 12.15 22.8774 12.9Z" fill="#003087"/>
<path id="Vector_3" d="M41.6282 7.5H38.8532C38.5532 7.5 38.3282 7.65 38.1782 7.875L34.2782 13.575L32.6282 8.1C32.5532 7.725 32.1782 7.5 31.8782 7.5H29.1032C28.8032 7.5 28.5032 7.8 28.6532 8.175L31.7282 17.25L28.8032 21.3C28.5782 21.6 28.8032 22.05 29.1782 22.05H31.9532C32.2532 22.05 32.4782 21.9 32.6282 21.675L42.0032 8.175C42.2282 7.95 42.0032 7.5 41.6282 7.5Z" fill="#003087"/>
<path id="Vector_4" d="M50.9276 2.1001H45.0776C44.7026 2.1001 44.3276 2.4001 44.2526 2.7751L41.9276 17.7001C41.8526 18.0001 42.0776 18.2251 42.3776 18.2251H45.3776C45.6776 18.2251 45.9026 18.0001 45.9026 17.7751L46.5776 13.5001C46.6526 13.1251 46.9526 12.8251 47.4026 12.8251H49.2776C53.1026 12.8251 55.3526 10.9501 55.9526 7.2751C56.1776 5.7001 55.9526 4.4251 55.2026 3.5251C54.3026 2.6251 52.8776 2.1001 50.9276 2.1001ZM51.6026 7.5751C51.3026 9.6751 49.6526 9.6751 48.1526 9.6751H47.2526L47.8526 5.7751C47.8526 5.5501 48.0776 5.4001 48.3026 5.4001H48.6776C49.7276 5.4001 50.7026 5.4001 51.2276 6.0001C51.6026 6.3001 51.6776 6.8251 51.6026 7.5751Z" fill="#009CDE"/>
<path id="Vector_5" d="M68.3274 7.5H65.5524C65.3274 7.5 65.1024 7.65 65.1024 7.875L64.9524 8.625L64.7274 8.325C64.1274 7.425 62.7774 7.125 61.4274 7.125C58.3524 7.125 55.7274 9.45 55.2024 12.75C54.9024 14.4 55.2774 15.975 56.2524 17.025C57.0774 18 58.3524 18.45 59.7774 18.45C62.2524 18.45 63.6774 16.875 63.6774 16.875L63.5274 17.625C63.4524 17.925 63.6774 18.225 63.9774 18.225H66.5274C66.9024 18.225 67.2774 17.925 67.3524 17.55L68.8524 7.95C68.8524 7.8 68.6274 7.5 68.3274 7.5ZM64.4274 12.9C64.1274 14.475 62.9274 15.6 61.2774 15.6C60.4524 15.6 59.8524 15.375 59.4024 14.85C58.9524 14.325 58.8024 13.65 58.9524 12.9C59.1774 11.325 60.5274 10.2 62.1024 10.2C62.9274 10.2 63.5274 10.5 63.9774 10.95C64.4274 11.475 64.5774 12.15 64.4274 12.9Z" fill="#009CDE"/>
<path id="Vector_6" d="M71.6274 2.4751L69.2274 17.7001C69.1524 18.0001 69.3774 18.2251 69.6774 18.2251H72.0774C72.4524 18.2251 72.8274 17.9251 72.9024 17.5501L75.3024 2.6251C75.3774 2.3251 75.1524 2.1001 74.8524 2.1001H72.1524C71.8524 2.1001 71.7024 2.2501 71.6274 2.4751Z" fill="#009CDE"/>
</g>
<defs>
<clipPath id="clip0_2323_37977">
<rect width="75.75" height="24" fill="white" transform="translate(0.125)"/>
</clipPath>
</defs>
</svg>
