<svg width="102" height="32" viewBox="0 0 102 32" fill="none" xmlns="http://www.w3.org/2000/svg">
<g id="Group 5368">
<rect id="Rectangle 4479" x="0.0419922" width="101.042" height="31.9081" rx="4.5583" fill="#202020"/>
<g id="Group 5365">
<path id="Google Play" d="M52.0958 16.8365C50.636 16.8365 49.4463 17.9468 49.4463 19.476C49.4463 20.996 50.636 22.1156 52.0958 22.1156C53.5561 22.1156 54.7459 20.996 54.7459 19.476C54.7453 17.9468 53.5555 16.8365 52.0958 16.8365ZM52.0958 21.0766C51.2958 21.0766 50.6062 20.4169 50.6062 19.4766C50.6062 18.5265 51.2964 17.8766 52.0958 17.8766C52.8958 17.8766 53.5853 18.5265 53.5853 19.4766C53.5853 20.4163 52.8958 21.0766 52.0958 21.0766ZM46.3152 16.8365C44.8554 16.8365 43.6657 17.9468 43.6657 19.476C43.6657 20.996 44.8554 22.1156 46.3152 22.1156C47.7755 22.1156 48.9653 20.996 48.9653 19.476C48.9653 17.9468 47.7755 16.8365 46.3152 16.8365ZM46.3152 21.0766C45.5152 21.0766 44.8256 20.4169 44.8256 19.4766C44.8256 18.5265 45.5158 17.8766 46.3152 17.8766C47.1152 17.8766 47.8047 18.5265 47.8047 19.4766C47.8053 20.4163 47.1152 21.0766 46.3152 21.0766ZM39.4398 17.647V18.7666H42.1197C42.0396 19.3966 41.8298 19.8565 41.5096 20.1761C41.1198 20.5659 40.5097 20.996 39.4398 20.996C37.7901 20.996 36.5004 19.6659 36.5004 18.0163C36.5004 16.3666 37.7901 15.0366 39.4398 15.0366C40.3298 15.0366 40.9796 15.3867 41.4593 15.8366L42.2494 15.0465C41.5791 14.4067 40.6897 13.917 39.4398 13.917C37.18 13.917 35.2803 15.7566 35.2803 18.0163C35.2803 20.276 37.18 22.1156 39.4398 22.1156C40.6593 22.1156 41.5797 21.7153 42.299 20.9655C43.0388 20.2257 43.2691 19.1856 43.2691 18.3458C43.2691 18.0864 43.2492 17.8462 43.2089 17.6464H39.4398V17.647ZM67.5595 18.5165C67.3398 17.9269 66.6695 16.8365 65.2998 16.8365C63.94 16.8365 62.8098 17.9064 62.8098 19.476C62.8098 20.9556 63.93 22.1156 65.4295 22.1156C66.6391 22.1156 67.3392 21.3758 67.6296 20.9457L66.7297 20.3455C66.43 20.7856 66.0197 21.0754 65.4295 21.0754C64.8399 21.0754 64.4197 20.8054 64.1497 20.2754L67.6793 18.8157L67.5595 18.5165ZM63.9598 19.3966C63.93 18.3763 64.7499 17.8568 65.3401 17.8568C65.8 17.8568 66.1898 18.087 66.3201 18.4166L63.9598 19.3966ZM61.0906 21.9561H62.25V14.1975H61.0906V21.9561ZM59.1902 17.4267H59.1505C58.8905 17.1164 58.3902 16.8365 57.7609 16.8365C56.4408 16.8365 55.2312 17.9964 55.2312 19.4866C55.2312 20.9662 56.4408 22.1162 57.7609 22.1162C58.3909 22.1162 58.8905 21.8363 59.1505 21.5167H59.1902V21.8965C59.1902 22.9063 58.6503 23.4462 57.7808 23.4462C57.0708 23.4462 56.6307 22.9367 56.4508 22.5066L55.441 22.9268C55.7308 23.6262 56.5004 24.4864 57.7808 24.4864C59.1406 24.4864 60.2906 23.6864 60.2906 21.7364V16.9972H59.1909V17.4267H59.1902ZM57.8608 21.0766C57.0609 21.0766 56.3912 20.4064 56.3912 19.4866C56.3912 18.5562 57.0609 17.8766 57.8608 17.8766C58.6503 17.8766 59.2703 18.5562 59.2703 19.4866C59.2703 20.4064 58.6503 21.0766 57.8608 21.0766ZM72.9926 14.1975H70.2177V21.9561H71.3752V19.0168H72.9919C74.2754 19.0168 75.5378 18.0877 75.5378 16.6074C75.5378 15.1272 74.276 14.1975 72.9926 14.1975ZM73.0223 17.9368H71.3752V15.2774H73.0223C73.8881 15.2774 74.3797 15.9943 74.3797 16.6074C74.3797 17.2082 73.8881 17.9368 73.0223 17.9368ZM80.1795 16.8228C79.341 16.8228 78.4728 17.1921 78.1134 18.0107L79.1412 18.4396C79.3609 18.0107 79.7705 17.8704 80.1994 17.8704C80.7983 17.8704 81.4071 18.2298 81.4171 18.8684V18.9485C81.2073 18.8287 80.7579 18.6493 80.2093 18.6493C79.1015 18.6493 77.9732 19.2582 77.9732 20.3958C77.9732 21.4341 78.8818 22.1026 79.8996 22.1026C80.6779 22.1026 81.1074 21.7531 81.3767 21.3435H81.4164V21.9424H82.5348V18.9677C82.5354 17.5912 81.5064 16.8228 80.1795 16.8228ZM80.0392 21.0748C79.6607 21.0748 79.1313 20.8849 79.1313 20.4157C79.1313 19.8168 79.7904 19.5871 80.3595 19.5871C80.8678 19.5871 81.108 19.697 81.4171 19.8465C81.3271 20.5659 80.7083 21.0748 80.0392 21.0748ZM86.6074 16.9922L85.2799 20.3561H85.2402L83.8624 16.9922H82.6149L84.681 21.6936L83.503 24.3089H84.7108L87.8952 16.9922H86.6074ZM76.177 21.9561H77.3345V14.1975H76.177V21.9561Z" fill="white"/>
<g id="Get it on">
<path d="M39.2355 9.69364C39.2355 10.2137 39.0816 10.6277 38.7731 10.9368C38.4231 11.3042 37.9663 11.4879 37.4052 11.4879C36.8678 11.4879 36.4103 11.3017 36.0349 10.9293C35.6588 10.5563 35.4707 10.0946 35.4707 9.54345C35.4707 8.99171 35.6588 8.52995 36.0349 8.15757C36.4103 7.78457 36.8678 7.59838 37.4052 7.59838C37.6721 7.59838 37.9272 7.65051 38.1692 7.75416C38.4119 7.85843 38.6062 7.99683 38.7514 8.16999L38.4243 8.49768C38.1779 8.20288 37.8384 8.05579 37.4046 8.05579C37.0124 8.05579 36.6735 8.19357 36.3874 8.46913C36.1013 8.74469 35.9585 9.1028 35.9585 9.54283C35.9585 9.98286 36.1013 10.341 36.3874 10.6165C36.6735 10.8921 37.0124 11.0299 37.4046 11.0299C37.8204 11.0299 38.1674 10.8915 38.4448 10.614C38.6248 10.4334 38.729 10.1821 38.757 9.85997H37.4046V9.4125H39.2088C39.2274 9.50994 39.2355 9.60365 39.2355 9.69364Z" fill="white"/>
<path d="M42.0967 8.13837H40.4011V9.31882H41.9303V9.76629H40.4011V10.9467H42.0967V11.4048H39.9226V7.68096H42.0967V8.13837Z" fill="white"/>
<path d="M44.1143 11.4048H43.6358V8.13837H42.5956V7.68096H45.1545V8.13837H44.1143V11.4048Z" fill="white"/>
<path d="M47.0058 11.4048V7.68096H47.4843V11.4048H47.0058Z" fill="white"/>
<path d="M49.6064 11.4048H49.1278V8.13837H48.0877V7.68096H50.6465V8.13837H49.6064V11.4048Z" fill="white"/>
<path d="M55.4905 10.9238C55.1243 11.2999 54.6694 11.4879 54.1251 11.4879C53.5808 11.4879 53.1258 11.2999 52.7603 10.9238C52.3941 10.5477 52.2116 10.0872 52.2116 9.54286C52.2116 8.99856 52.3941 8.53805 52.7603 8.16195C53.1258 7.78584 53.5808 7.59717 54.1251 7.59717C54.6663 7.59717 55.1206 7.78646 55.488 8.16443C55.8554 8.5424 56.0391 9.00167 56.0391 9.54286C56.0391 10.0872 55.856 10.5477 55.4905 10.9238ZM53.1134 10.6116C53.389 10.8909 53.726 11.0299 54.1251 11.0299C54.5241 11.0299 54.8618 10.8903 55.1367 10.6116C55.4123 10.3323 55.5507 9.97606 55.5507 9.54286C55.5507 9.10966 55.4123 8.75341 55.1367 8.47413C54.8618 8.19484 54.5241 8.05582 54.1251 8.05582C53.726 8.05582 53.389 8.19546 53.1134 8.47413C52.8385 8.75341 52.7001 9.10966 52.7001 9.54286C52.7001 9.97606 52.8385 10.3323 53.1134 10.6116Z" fill="white"/>
<path d="M56.7106 11.4048V7.68096H57.2928L59.1026 10.5775H59.1231L59.1026 9.86001V7.68096H59.5811V11.4048H59.0815L57.1879 8.36738H57.1674L57.1879 9.08484V11.4048H56.7106Z" fill="white"/>
</g>
<g id="Google Play logo">
<path id="Subtract" fill-rule="evenodd" clip-rule="evenodd" d="M16.0824 8.34908C16.0265 8.50159 15.9961 8.68181 15.9961 8.88698V22.6129C15.9961 22.8183 16.0265 22.9985 16.0823 23.1508L23.4827 15.7494L16.0824 8.34908ZM16.6146 23.6929C16.8806 23.7765 17.2132 23.7275 17.5731 23.5234L26.2985 18.5652L24.0199 16.2866L16.6146 23.6929ZM26.9841 18.1763L29.6761 16.6468C30.5432 16.1534 30.5432 15.3472 29.6761 14.8544L26.9824 13.3237L24.5571 15.7493L26.9841 18.1763ZM26.2973 12.9344L17.5731 7.97714C17.2134 7.77272 16.881 7.72387 16.6151 7.80735L24.0199 15.2121L26.2973 12.9344Z" fill="white"/>
</g>
</g>
</g>
</svg>
