<svg width="25" height="25" viewBox="0 0 25 25" fill="none" xmlns="http://www.w3.org/2000/svg">
<g id="Component 1">
<path id="Vector" d="M18.5427 9.63004L7.74268 3.99023" stroke="#8B929D" stroke-width="2" stroke-linecap="round" stroke-linejoin="round"/>
<path id="Vector_2" d="M23.9428 16.802V8.1086C23.9423 7.72748 23.8312 7.35316 23.6206 7.0232C23.41 6.69323 23.1073 6.41923 22.7428 6.22867L14.3428 1.88199C13.9779 1.69124 13.5641 1.59082 13.1428 1.59082C12.7215 1.59082 12.3076 1.69124 11.9428 1.88199L3.54277 6.22867C3.17829 6.41923 2.87555 6.69323 2.66493 7.0232C2.4543 7.35316 2.34321 7.72748 2.34277 8.1086V16.802C2.34321 17.1831 2.4543 17.5574 2.66493 17.8874C2.87555 18.2173 3.17829 18.4913 3.54277 18.6819L11.9428 23.0286C12.3076 23.2193 12.7215 23.3197 13.1428 23.3197C13.5641 23.3197 13.9779 23.2193 14.3428 23.0286L22.7428 18.6819C23.1073 18.4913 23.41 18.2173 23.6206 17.8874C23.8312 17.5574 23.9423 17.1831 23.9428 16.802Z" stroke="#8B929D" stroke-width="2" stroke-linecap="round" stroke-linejoin="round"/>
<path id="Vector_3" d="M2.66699 6.97852L13.143 12.4662L23.619 6.97852" stroke="#8B929D" stroke-width="2" stroke-linecap="round" stroke-linejoin="round"/>
<path id="Vector_4" d="M13.1431 23.4097V12.4561" stroke="#8B929D" stroke-width="2" stroke-linecap="round" stroke-linejoin="round"/>
</g>
</svg>
