<svg width="20" height="23" viewBox="0 0 20 23" fill="none" xmlns="http://www.w3.org/2000/svg">
<g id="Vector">
<path id="Vector-9" fill-rule="evenodd" clip-rule="evenodd" d="M13.7151 14.374H6.28426C4.09723 14.478 2.15962 15.7578 1.28039 17.6791C0.219923 19.6736 2.33637 21.5589 4.7978 21.5589H15.2015C17.6645 21.5589 19.7809 19.6736 18.7189 17.6791C17.8397 15.7578 15.9021 14.478 13.7151 14.374Z" stroke="#202020" stroke-width="2" stroke-linecap="round" stroke-linejoin="round"/>
<path id="Vector-10" fill-rule="evenodd" clip-rule="evenodd" d="M14.4998 5.75233C14.4998 8.13319 12.4851 10.0633 9.99988 10.0633C7.51467 10.0633 5.5 8.13319 5.5 5.75233C5.5 3.37147 7.51467 1.44141 9.99988 1.44141C11.1933 1.44141 12.3379 1.89559 13.1818 2.70405C14.0257 3.5125 14.4998 4.609 14.4998 5.75233Z" stroke="#202020" stroke-width="2" stroke-linecap="round" stroke-linejoin="round"/>
</g>
</svg>
