<?xml version="1.0" encoding="utf-8"?>
<!-- Generator: Adobe Illustrator 27.0.0, SVG Export Plug-In . SVG Version: 6.00 Build 0)  -->
<svg version="1.1" id="Layer_1" xmlns="http://www.w3.org/2000/svg" xmlns:xlink="http://www.w3.org/1999/xlink" x="0px" y="0px"
	 viewBox="0 0 54 21" style="enable-background:new 0 0 54 21;" xml:space="preserve">
<style type="text/css">
	.st0{fill:#FFB3C7;}
</style>
<path class="st0" d="M47.6,0.4h-41C3,0.4,0.2,3,0.2,6.2v8.5c0,3.3,2.8,5.9,6.3,5.9h41c3.5,0,6.3-2.6,6.3-5.9V6.2
	C53.8,3,51,0.4,47.6,0.4z"/>
<g>
	<path d="M41.6,9.1c-0.5-0.3-1-0.5-1.6-0.5c-0.6,0-1.2,0.1-1.7,0.4c-0.5,0.3-0.9,0.7-1.2,1.2c-0.3,0.5-0.5,1.1-0.5,1.6
		c0,0.6,0.2,1.2,0.5,1.6c0.3,0.5,0.7,0.9,1.2,1.2c0.5,0.3,1.1,0.4,1.7,0.4c0.6,0,1.1-0.2,1.6-0.5v0.4h1.8V8.7h-1.8V9.1z M39.9,13.3
		c-0.3,0-0.6-0.1-0.8-0.3c-0.2-0.2-0.4-0.4-0.5-0.7c-0.1-0.3-0.1-0.6-0.1-0.9c0.1-0.3,0.2-0.6,0.4-0.8c0.2-0.2,0.5-0.4,0.8-0.4
		c0.3-0.1,0.6,0,0.9,0.1c0.3,0.1,0.5,0.3,0.7,0.6c0.2,0.3,0.3,0.6,0.3,0.9c0,0.4-0.2,0.8-0.5,1.1C40.8,13.2,40.4,13.3,39.9,13.3z"/>
	<path d="M16.7,6h-1.9v8.8h1.9V6z"/>
	<path d="M33.4,8.6c-0.4,0-0.7,0-1,0.2c-0.3,0.1-0.6,0.4-0.8,0.7V8.7h-1.8v6.1h1.8v-3.2c0-0.2,0-0.4,0.1-0.5
		c0.1-0.2,0.2-0.3,0.3-0.5c0.1-0.1,0.3-0.2,0.5-0.3c0.2-0.1,0.4-0.1,0.5-0.1c0.8,0,1.3,0.5,1.3,1.4v3.2h1.8v-3.9
		C35.9,9.5,34.8,8.6,33.4,8.6z"/>
	<path d="M22.5,9.1c-0.5-0.3-1-0.5-1.6-0.5c-0.6,0-1.2,0.1-1.7,0.4c-0.5,0.3-0.9,0.7-1.2,1.2c-0.3,0.5-0.5,1.1-0.5,1.6
		c0,0.6,0.2,1.2,0.5,1.6c0.3,0.5,0.7,0.9,1.2,1.2c0.5,0.3,1.1,0.4,1.7,0.4c0.6,0,1.1-0.2,1.6-0.5v0.4h1.8V8.7h-1.8V9.1z M20.8,13.3
		c-0.3,0-0.6-0.1-0.8-0.3c-0.2-0.2-0.4-0.4-0.5-0.7c-0.1-0.3-0.1-0.6-0.1-0.9c0.1-0.3,0.2-0.6,0.4-0.8c0.2-0.2,0.5-0.4,0.8-0.4
		c0.3-0.1,0.6,0,0.9,0.1c0.3,0.1,0.5,0.3,0.7,0.6c0.2,0.3,0.3,0.6,0.3,0.9c0,0.4-0.2,0.8-0.5,1.1C21.6,13.2,21.2,13.3,20.8,13.3
		L20.8,13.3z"/>
	<path d="M27.1,9.5V8.7h-1.9v6.1h1.9V12c0-1,1-1.5,1.8-1.5c0,0,0,0,0,0V8.7c-0.3,0-0.7,0.1-1,0.2S27.3,9.3,27.1,9.5z"/>
	<path d="M45.3,12.6c-0.2,0-0.4,0.1-0.6,0.2c-0.2,0.1-0.3,0.3-0.4,0.5c-0.1,0.2-0.1,0.4-0.1,0.7c0,0.2,0.2,0.4,0.3,0.6
		c0.2,0.2,0.4,0.3,0.6,0.3c0.2,0,0.4,0,0.7-0.1c0.2-0.1,0.4-0.2,0.5-0.4c0.1-0.2,0.2-0.4,0.2-0.6c0-0.1,0-0.3-0.1-0.4
		c-0.1-0.1-0.1-0.3-0.2-0.4c-0.1-0.1-0.2-0.2-0.4-0.2C45.6,12.7,45.5,12.6,45.3,12.6z"/>
	<path d="M13.5,6h-2c0,0.8-0.2,1.6-0.5,2.3c-0.4,0.7-0.9,1.3-1.5,1.8l-0.8,0.6l3,4.1h2.5L11.5,11c0.7-0.7,1.2-1.4,1.5-2.3
		C13.3,7.9,13.5,7,13.5,6z"/>
	<path d="M8.5,6h-2v8.8h2V6z"/>
</g>
</svg>
