<svg width="1649" height="39" viewBox="0 0 1649 39" fill="none" xmlns="http://www.w3.org/2000/svg">
<g clip-path="url(#clip0_2204_18137)">
<g clip-path="url(#clip1_2204_18137)">
<path d="M34.2571 0.117176H38.5211V26.1204H34.2571V0.117176ZM79.5356 0.124987L67.584 16.4632L54.9741 0.124987H53.4422V26.1439H54.4509V5.82168L65.7128 21.2205L76.9763 5.82168V26.1439H80.9984V0.124987H79.5356ZM120.929 0.124987L108.974 16.4632L96.3672 0.124987H94.8338V26.1439H95.8409V5.82168L107.104 21.2205L118.366 5.82168V26.1439H122.388V0.124987H120.929ZM135.232 0.124987V26.1439H158.476V24.8706H139.504V12.903H150.87V11.7039H139.504V1.14637H157.318V0.124987H135.232ZM170.264 0.124987V26.1439H193V24.8706H174.475V0.124987H170.264ZM12.7953 13.6705C16.3948 13.6705 17.2401 10.1552 17.2401 7.37621C17.2401 4.6636 16.3964 0.994041 12.954 0.994041H4.32377V13.6705H12.7953ZM0 0H13.0074C18.6164 0 21.3675 2.71653 21.3675 7.28247C21.3675 10.9677 19.3517 13.9732 15.8685 14.6528L23.0093 26.1497H18.4059L11.265 14.7036H4.32377V26.1497H0V0Z" fill="#8B929D"/>
<path d="M187.251 30.6922L187.204 30.7508V38.7676L187.251 38.8262H188.092L188.139 38.7676V32.5514L191.971 38.7676L192.065 38.8262H192.953L193 38.7676V30.7508L192.953 30.6922H192.111L192.063 30.7508V36.967L188.231 30.7508L188.137 30.6922H187.251ZM179.043 31.737C179.526 31.7254 180 31.8926 180.406 32.2172C180.812 32.5419 181.131 33.0093 181.322 33.56C181.513 34.1107 181.568 34.7197 181.48 35.3095C181.392 35.8992 181.165 36.443 180.827 36.8715C180.489 37.3001 180.057 37.594 179.584 37.7159C179.112 37.8377 178.621 37.7819 178.174 37.5557C177.727 37.3295 177.344 36.943 177.075 36.4455C176.805 35.948 176.661 35.362 176.66 34.7621C176.656 34.3691 176.715 33.979 176.833 33.6143C176.951 33.2496 177.126 32.9174 177.347 32.6368C177.569 32.3561 177.833 32.1326 178.124 31.9788C178.415 31.8251 178.727 31.7443 179.043 31.741M179.043 30.5204C178.37 30.5312 177.715 30.7891 177.159 31.2618C176.604 31.7345 176.174 32.4008 175.922 33.1769C175.671 33.9529 175.609 34.8041 175.746 35.6234C175.883 36.4426 176.211 37.1933 176.69 37.781C177.17 38.3687 177.778 38.7671 178.439 38.9262C179.099 39.0852 179.783 38.9978 180.404 38.6749C181.025 38.352 181.556 37.8081 181.928 37.1115C182.301 36.4149 182.5 35.5969 182.5 34.7602C182.492 33.6289 182.124 32.5476 181.476 31.753C180.828 30.9584 179.954 30.5152 179.043 30.5204ZM166.474 31.8562H167.783C169.185 31.8562 170.166 33.1334 170.166 34.7602C170.166 36.387 169.185 37.6642 167.783 37.6642H166.474V31.8562ZM165.587 30.6942L165.539 30.7528V38.7695L165.587 38.8281H167.786C169.796 38.8281 171.243 37.0275 171.243 34.7621C171.243 32.4967 169.794 30.6961 167.786 30.6961L165.587 30.6942ZM154.746 30.6942L154.699 30.7528V38.7695L154.746 38.8281H155.588L155.635 38.7695V32.5514L159.47 38.7676L159.563 38.8262H160.451L160.498 38.7676V30.7508L160.451 30.6922H159.61L159.563 30.7508V36.967L155.731 30.7508L155.637 30.6922L154.746 30.6942ZM146.538 31.739C147.021 31.7274 147.495 31.8946 147.901 32.2193C148.307 32.544 148.626 33.0116 148.817 33.5624C149.008 34.1132 149.063 34.7223 148.975 35.3121C148.887 35.9019 148.659 36.4457 148.321 36.8742C147.983 37.3027 147.551 37.5964 147.078 37.7181C146.605 37.8397 146.114 37.7836 145.667 37.5571C145.221 37.3306 144.838 36.9438 144.569 36.446C144.299 35.9482 144.155 35.3621 144.155 34.7621C144.151 34.3691 144.21 33.979 144.328 33.6143C144.446 33.2496 144.621 32.9174 144.842 32.6368C145.064 32.3561 145.327 32.1326 145.618 31.9788C145.909 31.8251 146.222 31.7443 146.538 31.741M146.538 30.5204C145.865 30.5312 145.21 30.7891 144.654 31.2618C144.099 31.7345 143.668 32.4008 143.417 33.1769C143.165 33.9529 143.104 34.8041 143.241 35.6234C143.378 36.4426 143.706 37.1933 144.185 37.781C144.664 38.3687 145.273 38.7671 145.933 38.9262C146.594 39.0852 147.278 38.9978 147.899 38.6749C148.52 38.352 149.05 37.8081 149.423 37.1115C149.796 36.4149 149.995 35.5969 149.995 34.7602C149.987 33.6289 149.619 32.5476 148.971 31.753C148.323 30.9584 147.448 30.5152 146.538 30.5204ZM135.268 30.6942L135.231 30.7411V38.7813L135.268 38.8281H139.214L139.251 38.7813V37.7247L139.214 37.6661H136.166V30.7391L136.128 30.6922L135.268 30.6942Z" fill="#8B929D"/>
</g>
<path fill-rule="evenodd" clip-rule="evenodd" d="M330.764 24.9201H327.111L337.83 3.86877H338.338H341.484H342.04L352.759 24.9201H349.057L346.25 19.379H333.595L330.764 24.9201ZM344.895 16.7899L339.887 6.96597L334.878 16.7899H344.895ZM314.044 3.31223L316.537 0.432798H322.078L314.044 3.31223ZM306.906 24.9685H325.731V22.573H310.149V15.2897H321.715V12.8216H310.149V6.24006H325.635V3.89296H306.906V24.9685ZM281.306 3.86877H284.234H295.171C298.873 3.86877 301.897 6.62721 301.897 9.99059C301.897 12.9184 299.599 15.3865 296.55 15.9672L303.059 24.9443H299.236L292.824 16.1124H284.234V24.9443H281.306V16.1124V3.86877ZM295.34 6.38524L295.534 6.40944L295.727 6.43363L295.921 6.48203L296.114 6.53043L296.284 6.60302L296.453 6.6756L296.623 6.7482L296.792 6.84498L296.961 6.94177L297.106 7.03856L297.252 7.15954L297.397 7.28053L297.518 7.40151L297.639 7.5225L297.76 7.66768L297.881 7.81286L297.978 7.95805L298.074 8.10323L298.171 8.2484L298.244 8.39359L298.316 8.53877L298.389 8.68395L298.437 8.82914L298.486 8.97431L298.534 9.11949L298.558 9.28888L298.582 9.45825L298.607 9.62763V9.79701V9.96639V10.1358V10.3051L298.582 10.4745L298.558 10.6439L298.534 10.8133L298.486 10.9827L298.437 11.1278L298.389 11.273L298.316 11.4182L298.244 11.5634L298.171 11.7086L298.074 11.8538L297.978 11.9989L297.881 12.1441L297.76 12.2893L297.639 12.4345L297.518 12.5555L297.397 12.6764L297.252 12.7974L297.106 12.9184L296.961 13.0152L296.792 13.112L296.623 13.2088L296.453 13.2814L296.284 13.354L296.114 13.4266L295.921 13.4749L295.727 13.5233L295.534 13.5717L295.34 13.5959L295.146 13.6201H294.929H284.403V6.36105H294.929H295.171L295.34 6.38524ZM263.303 2.63472C257.351 2.63472 252.536 7.44991 252.536 13.4024C252.536 19.3548 257.351 24.17 263.303 24.17C269.256 24.17 274.071 19.3548 274.071 13.4024C274.071 7.44991 269.232 2.63472 263.303 2.63472ZM263.303 0.215027C255.391 0.215027 248.955 6.11908 248.955 13.4024C248.955 20.6856 255.367 26.5897 263.303 26.5897C271.24 26.5897 277.652 20.6856 277.652 13.4024C277.628 6.11908 271.216 0.215027 263.303 0.215027ZM228 24.9685V3.89296H230.686V22.6698H246.607V24.9685H228ZM354.284 24.9685H373.182V22.573H357.26V3.89296H354.308V24.9685H354.284ZM286.484 38.6639H284.887L289.605 30.4612H289.823H291.202H291.444L296.163 38.6639H294.542L293.308 36.5104H287.742L286.484 38.6639ZM292.678 35.4942L290.476 31.671L288.275 35.4942H292.678ZM299.187 30.4612H300.421H305.019C306.567 30.4612 307.85 31.5259 307.85 32.8325C307.85 33.9697 306.882 34.9376 305.6 35.1554L308.334 38.6398H306.737L304.027 35.2038H300.712V38.6639H299.163V35.228V30.4612H299.187ZM305.067 31.4533H305.14L305.212 31.4775L305.285 31.5017L305.358 31.5259L305.43 31.5501L305.503 31.5743L305.575 31.5984L305.648 31.6226L305.721 31.671L305.793 31.7194L305.842 31.7678L305.89 31.8162L305.938 31.8646L305.987 31.913L306.035 31.9614L306.083 32.0098L306.132 32.0582L306.18 32.1066L306.229 32.155L306.253 32.2034L306.277 32.2518L306.301 32.3002L306.325 32.3485L306.35 32.4211L306.374 32.4937V32.5663V32.6389V32.7115V32.7841V32.8567V32.9293V33.0019V33.0745V33.1471V33.2196L306.35 33.2922L306.325 33.3648L306.301 33.4132L306.277 33.4616L306.253 33.51L306.229 33.5584L306.18 33.6068L306.132 33.6552L306.083 33.7036L306.035 33.752L305.987 33.8004L305.938 33.8488L305.89 33.8972L305.842 33.9455L305.793 33.9939L305.721 34.0423L305.648 34.0907L305.575 34.1149L305.503 34.1391L305.43 34.1633L305.358 34.1875L305.285 34.2117L305.212 34.2359L305.14 34.2601H305.067H304.995H304.898H300.784V31.4291H304.898H304.995L305.067 31.4533ZM275.595 30.4612H276.829H281.427C282.975 30.4612 284.258 31.5259 284.258 32.8325C284.258 33.6552 283.75 34.3811 283 34.8166C282.491 35.107 281.959 35.1796 281.378 35.2038C281.088 35.2038 280.774 35.2038 280.459 35.2038H277.144V38.6639H275.595V35.228V30.4612ZM281.475 31.4533H281.548L281.62 31.4775L281.693 31.5017L281.766 31.5259L281.838 31.5501L281.911 31.5743L281.983 31.5984L282.056 31.6226L282.129 31.671L282.201 31.7194L282.274 31.7678L282.322 31.8162L282.371 31.8646L282.419 31.913L282.467 31.9614L282.516 32.0098L282.564 32.0582L282.612 32.1066L282.637 32.155L282.661 32.2034L282.685 32.2518L282.709 32.3002L282.733 32.3485L282.758 32.4211L282.782 32.4937L282.806 32.5663V32.6389V32.7115V32.7841V32.8567V32.9293V33.0019V33.0745V33.1471L282.782 33.2196L282.758 33.2922L282.733 33.3648L282.709 33.4132L282.685 33.4616L282.661 33.51L282.637 33.5584L282.612 33.6068L282.564 33.6552L282.516 33.7036L282.467 33.752L282.419 33.8004L282.371 33.8488L282.322 33.8972L282.274 33.9455L282.201 33.9939L282.129 34.0423L282.056 34.0907L281.983 34.1149L281.911 34.1391L281.838 34.1633L281.766 34.1875L281.693 34.2117L281.62 34.2359L281.548 34.2601H281.475H281.403H281.306H277.192V31.4291H281.306H281.403L281.475 31.4533ZM317.142 36.0265L318.545 35.9297C318.618 36.341 318.763 36.6798 319.005 36.946C319.247 37.2121 319.634 37.4299 320.142 37.5751C320.65 37.7445 321.231 37.8171 321.884 37.8171C322.465 37.8171 322.973 37.7687 323.409 37.6235C323.844 37.5025 324.183 37.3331 324.376 37.1153C324.594 36.8976 324.691 36.6798 324.691 36.4136C324.691 36.1475 324.594 35.9297 324.376 35.7361C324.183 35.5425 323.82 35.3732 323.36 35.2522C323.046 35.1554 322.392 35.0344 321.328 34.8408C320.287 34.6715 319.561 34.5021 319.15 34.3327C318.618 34.1391 318.206 33.873 317.94 33.5826C317.674 33.268 317.553 32.9293 317.553 32.5663C317.553 32.155 317.722 31.7678 318.037 31.4049C318.351 31.0419 318.835 30.7758 319.464 30.5822C320.094 30.3886 320.795 30.316 321.545 30.316C322.392 30.316 323.118 30.4128 323.771 30.6064C324.425 30.7999 324.909 31.0903 325.247 31.4775C325.586 31.8646 325.78 32.3002 325.804 32.7599L324.401 32.8567C324.328 32.3485 324.062 31.9372 323.602 31.671C323.167 31.4049 322.489 31.2839 321.618 31.2839C320.698 31.2839 320.045 31.4049 319.634 31.6468C319.222 31.8888 319.005 32.1792 319.005 32.5179C319.005 32.8083 319.15 33.0503 319.44 33.2438C319.731 33.4374 320.481 33.631 321.715 33.8246C322.925 34.0181 323.771 34.2117 324.231 34.3569C324.885 34.5747 325.368 34.865 325.707 35.1796C326.022 35.5183 326.167 35.9055 326.167 36.341C326.167 36.7766 325.998 37.1879 325.659 37.5751C325.32 37.9622 324.812 38.2526 324.159 38.4704C323.505 38.6881 322.779 38.7849 321.981 38.7849C320.965 38.7849 320.094 38.6881 319.392 38.4704C318.69 38.2526 318.158 37.938 317.746 37.5025C317.383 37.067 317.166 36.583 317.142 36.0265ZM312.084 32.8809H313.609V38.6639H312.084V32.8809ZM312.084 30.4612H313.609V31.9856H312.084V30.4612ZM241.139 11.273H243.631L247.358 4.03814H244.188L241.139 11.273Z" fill="#8B929D"/>
<path fill-rule="evenodd" clip-rule="evenodd" d="M422.215 11.2376C428.433 11.8454 427.58 21.5543 422.957 23.1961C422.195 23.4658 421.25 23.6026 420.123 23.6026H408.182V23.0474C408.818 22.8054 409.004 22.4436 409.004 21.7858V1.81811C409.004 1.16033 408.818 0.79723 408.182 0.555166V0H418.476C419.611 0 420.526 0.121031 421.215 0.348625C425.385 1.72997 425.955 8.87613 422.215 11.2376ZM412.817 9.39052H417.979C419.912 9.39052 420.783 8.60776 420.783 6.64098C420.783 4.68736 419.958 3.89013 417.979 3.89013H412.817V9.39052ZM412.817 19.7125H419.289C421.56 19.7125 422.797 19.302 422.797 16.9077C422.797 14.5094 421.556 13.2807 419.289 13.2807H412.817V19.7125ZM450.085 0C454.231 0 457.515 1.11033 459.946 3.33496C462.51 5.66614 463.793 8.6709 463.793 12.3598C463.801 14.6006 463.161 16.7966 461.949 18.6876C459.54 22.5173 455.596 24.4314 450.118 24.4314C446.003 24.4314 442.738 23.3211 440.305 21.0964C439.009 19.9087 437.997 18.4483 437.343 16.8222C436.753 15.3542 436.452 13.7875 436.457 12.2072C436.457 9.84571 437.07 7.68554 438.29 5.72535C440.622 1.97729 444.553 0.0710407 450.085 0ZM450.104 3.99537C447.837 3.99537 445.951 4.66237 444.441 6.00162C442.651 7.57635 441.759 9.64837 441.759 12.2045C441.759 14.7594 442.651 16.8314 444.441 18.4074C445.953 19.748 447.85 20.415 450.133 20.415C452.424 20.415 454.314 19.7467 455.814 18.4074C456.717 17.6037 457.421 16.6037 457.871 15.4855C458.285 14.4771 458.497 13.3985 458.496 12.3098C458.496 9.63522 457.603 7.52899 455.814 6.0003C454.29 4.68605 452.387 4.01905 450.104 3.99537ZM495.205 1.81811V15.0448C495.205 17.5405 494.833 19.4217 494.082 20.6636C491.276 25.3089 478.666 25.7022 476.728 19.3296C476.364 18.1351 476.196 16.7024 476.196 15.0448V1.81811C476.196 0.493333 475.293 1.09324 475.293 0H481.297C481.297 1.09192 480.385 0.482808 480.385 1.81811V13.5872C480.385 18.2732 481.555 20.0032 485.87 20.0032C490.204 20.0032 491.351 18.2772 491.351 13.5872V1.81811C491.351 0.493333 490.448 1.09324 490.448 0H496.106C496.107 1.09324 495.205 0.493333 495.205 1.81811ZM540.921 1.00378C540.753 0.820915 540.467 0.673567 540.046 0.555166V0H547.475V0.555166C547.059 0.672251 546.769 0.820915 546.6 1.00378C546.44 1.18664 546.357 1.45896 546.357 1.81811V15.7171C546.357 19.6993 546.536 21.3175 545.169 23.4434C542.613 27.4204 535.769 27.673 534.726 24.1288C535.565 24.6248 540.922 29.6661 541.274 19.1691C541.292 18.6666 541.165 16.4485 541.165 15.4566V1.81811C541.165 1.45764 541.079 1.18664 540.921 1.00378ZM572.872 0C577.017 0 580.301 1.11033 582.733 3.33496C585.297 5.66614 586.583 8.6709 586.583 12.3598C586.59 14.6009 585.949 16.7971 584.736 18.6876C582.328 22.5173 578.384 24.4314 572.908 24.4314C568.791 24.4314 565.526 23.3211 563.094 21.0964C561.798 19.9091 560.786 18.4486 560.133 16.8222C559.542 15.3544 559.241 13.7876 559.247 12.2072C559.247 9.84571 559.858 7.68554 561.078 5.72535C563.407 1.97729 567.341 0.0710407 572.872 0ZM572.889 3.99537C570.621 3.99537 568.735 4.66237 567.227 6.00162C565.437 7.57635 564.545 9.64837 564.545 12.2045C564.545 14.7594 565.438 16.8314 567.227 18.4074C568.737 19.748 570.634 20.415 572.918 20.415C575.21 20.415 577.1 19.7467 578.599 18.4074C579.502 17.603 580.207 16.6033 580.658 15.4855C581.072 14.4771 581.284 13.3985 581.282 12.3098C581.282 9.63522 580.389 7.52899 578.6 6.0003C577.076 4.68605 575.173 4.01905 572.889 3.99537ZM602.245 21.7858V1.79969C602.245 1.45107 602.163 1.18533 602.001 1.00378C601.836 0.820915 601.548 0.673567 601.126 0.555166V0H608.556V0.555166C608.14 0.661727 607.849 0.802491 607.684 0.997195C607.523 1.18664 607.44 1.45238 607.44 1.79969V21.7858C607.44 22.1449 607.522 22.416 607.693 22.6054C607.861 22.8001 608.146 22.9422 608.555 23.0474V23.6026H601.125V23.0474C601.547 22.929 601.834 22.783 602 22.6001C602.162 22.416 602.245 22.1463 602.245 21.7858ZM640.622 2.40222L638.68 7.95655L638.349 7.67897C638.356 7.56188 638.359 7.47374 638.359 7.4027C638.359 7.01329 638.128 6.58836 637.668 6.13975C636.252 4.71236 634.593 3.99801 632.686 3.99801C631.842 3.99801 631.105 4.14535 630.456 4.44662C629.986 4.67882 629.592 5.03935 629.32 5.48592C629.032 5.94636 628.885 6.44759 628.885 6.99092C628.885 7.8763 629.255 8.47752 629.991 8.80247C630.374 8.96165 631.192 9.13793 632.449 9.32211L634.321 9.59838C635.432 9.7694 636.331 10.0062 637.019 10.3075C637.706 10.6087 638.317 11.0271 638.844 11.5704C639.385 12.1308 639.812 12.8741 640.126 13.8016C640.439 14.7212 640.597 15.7066 640.597 16.7524C640.597 18.4179 640.227 19.8927 639.491 21.1793C638.823 22.3581 637.788 23.2277 636.378 23.7947C635.307 24.223 634.162 24.4393 633.007 24.4314C630.855 24.4314 628.731 23.6815 626.631 22.1805C626.189 21.8792 625.922 21.7332 625.833 21.7332C625.733 21.7332 625.569 21.8568 625.344 22.1107L624.999 21.8516L626.76 16.0605L627.107 16.3038V16.5275C627.107 17.0471 627.278 17.5247 627.618 17.9614C628.136 18.6284 628.933 19.2073 630.016 19.6901C631.093 20.1729 632.119 20.4176 633.087 20.4176C634.146 20.4176 635.047 20.1558 635.792 19.6362C636.206 19.348 636.538 18.9705 636.781 18.4864C637.024 18.0254 637.151 17.5132 637.151 16.9932C637.151 16.2078 636.861 15.6526 636.282 15.3172C635.877 15.0869 635.059 14.8751 633.826 14.6804L631.991 14.4015C630.759 14.2187 629.889 14.0424 629.381 13.8766C628.834 13.6877 628.319 13.4152 627.856 13.0688C627.137 12.5545 626.566 11.7756 626.155 10.7377C625.78 9.80492 625.593 8.7301 625.593 7.52109C625.593 5.52669 626.067 3.87961 627.015 2.57588C628.25 0.85775 630.109 0.00131485 632.589 0.00131485C633.627 0.00131485 634.599 0.155234 635.494 0.461762C636.393 0.763027 637.511 1.33004 638.86 2.14306C639.319 2.4088 639.599 2.54562 639.705 2.54562C639.873 2.54562 640.063 2.4088 640.287 2.14306L640.622 2.40222ZM511.036 13.97V21.8016C511.036 22.929 511.835 22.6593 511.835 23.6026H506.525C506.525 22.6567 507.325 22.9317 507.325 21.8016V1.81811C507.325 0.669619 506.525 0.947209 506.525 0H517.162C521.609 0 523.481 2.70744 523.381 7.75132C523.292 12.2835 520.919 13.0439 517.443 13.7819C518.205 14.7015 524.374 22.9816 525.113 23.0474V23.6026H520.179C517.866 20.2216 515.156 17.1774 512.668 13.97H511.036ZM511.036 10.0812H516.767C519.035 10.0812 519.849 9.26291 519.965 6.98303C520.087 4.59001 519.031 3.89013 516.767 3.89013H511.036V10.0812ZM474.163 33.0194C475.008 33.0247 475.638 33.1405 476.054 33.3615C476.469 33.5851 476.753 33.8285 476.908 34.0943C476.995 34.2403 477.054 34.3824 477.084 34.5205C477.115 34.6586 477.128 34.777 477.128 34.8797C477.128 34.9125 477.127 34.9494 477.123 34.9849C477.119 35.0204 477.117 35.0599 477.117 35.098C477.059 35.5401 476.818 35.9413 476.396 36.3084C475.973 36.6754 475.325 36.8583 474.451 36.8583H473.448V38.9395H471.883V33.0194H474.163ZM474.163 35.8518C474.539 35.8571 474.817 35.8032 475.001 35.6874C475.159 35.5963 475.292 35.4674 475.387 35.3125C475.449 35.1889 475.479 35.0519 475.475 34.9139C475.475 34.8914 475.473 34.8689 475.469 34.8468C475.465 34.8211 475.464 34.7951 475.464 34.7691C475.427 34.5836 475.309 34.4126 475.11 34.2574C474.913 34.1035 474.596 34.0232 474.163 34.0232H473.446V35.8505L474.163 35.8518ZM501.286 33.0194L504.35 38.9395H502.62L501.936 37.6108H498.751L498.068 38.9395H496.426L499.5 33.0194H501.286ZM501.462 36.6149L500.636 34.8139L500.371 34.2127H500.349L500.085 34.8139L499.248 36.6149H501.462ZM527.041 33.0194C528.017 33.0247 528.691 33.176 529.058 33.4746C529.423 33.7759 529.625 34.1021 529.664 34.456C529.669 34.4889 529.674 34.5205 529.674 34.5508V34.6323C529.674 35.0099 529.519 35.3283 529.205 35.5861C528.891 35.844 528.524 35.9795 528.097 35.9953V36.0058C528.221 36.0225 528.341 36.0627 528.449 36.1242C528.582 36.1913 528.721 36.3583 528.868 36.6228L530.202 38.9408H528.449L527.458 37.199C527.37 37.0411 527.248 36.9049 527.1 36.8004C526.958 36.6978 526.745 36.6491 526.467 36.6491H525.872V38.9408H524.306V33.0207L527.041 33.0194ZM525.874 35.6414H526.71C527.142 35.6466 527.471 35.5664 527.691 35.3967C527.911 35.227 528.02 35.0375 528.02 34.8283C528.021 34.7076 527.99 34.5887 527.928 34.4843C527.867 34.3799 527.779 34.2937 527.673 34.235C527.442 34.0916 527.142 34.0166 526.776 34.0166H525.872L525.874 35.6414ZM550.329 33.0194H551.893V38.9395H550.329V33.0194ZM571.973 38.7185L572.139 37.67C572.263 37.7213 572.389 37.7647 572.524 37.8015C572.846 37.8895 573.175 37.9511 573.507 37.9857C573.696 38.0068 573.877 38.016 574.045 38.016H574.154C574.441 37.9975 574.7 37.9291 574.933 37.8081C575.164 37.6871 575.281 37.5305 575.281 37.3411C575.281 37.0819 575.139 36.8806 574.851 36.7425C574.478 36.5679 574.091 36.4223 573.695 36.307C573.578 36.2689 573.462 36.2268 573.348 36.1886C573.234 36.1505 573.122 36.1071 573.011 36.0623C572.695 35.9308 572.459 35.7795 572.307 35.6098C572.165 35.4572 572.055 35.2772 571.986 35.0809C571.958 34.9967 571.938 34.9099 571.926 34.8218C571.916 34.7397 571.911 34.6571 571.911 34.5744C571.915 34.3428 571.982 34.1167 572.107 33.9206C572.246 33.6943 572.49 33.4891 572.84 33.3036C573.19 33.1155 573.696 33.0234 574.367 33.0234C574.727 33.0234 575.057 33.0418 575.359 33.0747C575.702 33.1114 576.044 33.1645 576.382 33.2339C576.458 33.2523 576.52 33.2641 576.569 33.2773L576.406 34.2153C576.274 34.1916 576.129 34.1692 575.977 34.1429C575.822 34.1166 575.669 34.0942 575.513 34.0706C575.376 34.055 575.238 34.0431 575.1 34.0351C574.974 34.025 574.847 34.0197 574.72 34.0193C574.272 34.0193 573.967 34.0758 573.804 34.189C573.643 34.3021 573.562 34.4258 573.562 34.5613C573.56 34.6368 573.574 34.712 573.604 34.7817C573.633 34.8514 573.677 34.914 573.734 34.9652C573.907 35.125 574.119 35.2367 574.35 35.2888C574.428 35.3111 574.492 35.3322 574.544 35.348C575.269 35.5453 575.848 35.7874 576.279 36.0755C576.71 36.3636 576.923 36.7741 576.923 37.3108C576.922 37.3596 576.919 37.4084 576.913 37.4568L576.889 37.5976C576.808 37.9528 576.56 38.2738 576.145 38.5632C575.731 38.8566 575.107 39 574.276 39C574.056 38.9992 573.835 38.993 573.616 38.9816C573.337 38.9653 573.06 38.9363 572.784 38.8948C572.511 38.8529 572.24 38.7945 571.974 38.7198L571.973 38.7185ZM408.484 35.3559H469.944V36.6714H408.484V35.3559ZM579.723 35.3559H641.182V36.6714H579.723V35.3559Z" fill="#8B929D"/>
<path fill-rule="evenodd" clip-rule="evenodd" d="M686.182 8.86057L682.956 12.2833C685.993 15.9454 689.144 19.5264 692.179 23.2296L695.255 27.2081V27.4073C694.493 27.3683 693.81 27.2513 693.167 27.2513C692.444 27.2513 691.726 27.3683 691.041 27.4073C690.205 26.1346 689.371 24.9357 688.422 23.7842L680.149 13.6351C679.959 13.477 679.504 13.3546 679.504 13.5181V27.4073C678.898 27.3683 678.371 27.2513 677.843 27.2513C677.276 27.2513 676.71 27.3683 676.182 27.4073V0.19191C676.71 0.231979 677.276 0.342702 677.843 0.342702C678.371 0.342702 678.898 0.231979 679.504 0.19191V12.4805C679.54 12.7199 680.072 12.5606 680.453 12.2411C681.137 11.6855 681.933 10.8514 682.465 10.2925L691.801 0.190856C692.294 0.230925 692.789 0.341648 693.319 0.341648C693.775 0.341648 694.268 0.230925 694.797 0.190856L686.182 8.86057ZM701.393 15.0144H706.143C707.064 15.0144 707.952 14.8868 708.871 14.8562C708.84 15.1114 708.762 15.4003 708.762 15.6903C708.762 15.9454 708.84 16.2344 708.871 16.5887C707.952 16.5581 707.064 16.4284 706.143 16.4284H701.393V25.8257C703.264 25.89 705.101 25.7613 706.941 25.6939C707.886 25.6635 708.828 25.5666 709.761 25.4039C709.729 25.7624 709.679 26.0503 709.679 26.3698C709.679 26.6914 709.729 27.0119 709.761 27.3335H698.69V5.42938H709.576C709.542 5.78157 709.501 6.07154 709.501 6.39421C709.501 6.71476 709.542 7.03426 709.576 7.35692C708.655 7.16396 707.737 7.07011 706.818 7.00368L703.751 6.9383H701.393V15.0144ZM716.51 6.62408C717.797 6.55765 719.882 6.46169 721.015 6.65466C723.315 7.0427 724.39 8.4873 724.39 10.7111C724.39 13.2197 722.702 14.8256 720.463 15.3096C718.9 15.6312 716.938 15.5036 716.509 15.472L716.51 6.62408ZM713.807 27.4432C714.239 27.4126 714.697 27.3325 715.158 27.3325C715.589 27.3325 716.018 27.4126 716.51 27.4432V16.6962H717.674L720.126 19.7214L723.745 24.6499C724.401 25.5717 725.045 26.5025 725.678 27.4421C726.234 27.4116 726.848 27.3314 727.432 27.3314C728.016 27.3314 728.567 27.4116 729.212 27.4421L728.626 26.6429L727.156 24.8408L720.832 16.44C723.928 15.8569 727.125 14.0548 727.125 10.321C727.125 7.07116 725.034 5.43149 720.31 5.43149H713.806L713.807 27.4432ZM743.233 17.3827H736.482L739.827 9.14844L743.233 17.3827ZM740.932 4.94117H740.228L730.659 27.4421C730.995 27.4116 731.333 27.3314 731.732 27.3314C732.1 27.3314 732.437 27.4116 732.865 27.4421C733.724 24.4169 734.828 21.5752 735.9 18.7324H743.692C744.921 21.6711 746.023 24.7733 746.913 27.4421C747.432 27.4116 747.952 27.3314 748.536 27.3314C749.057 27.3314 749.548 27.4116 750.128 27.4421L740.932 4.94117ZM753.094 23.0851C754.286 25.1424 755.661 26.4278 758.046 26.4278C760.526 26.4278 762.298 24.2735 762.298 21.7344C762.298 15.7535 752.73 18.3897 752.73 11.1245C752.73 6.97626 755.844 4.94328 759.514 4.94328C760.984 4.94328 762.758 5.42938 763.892 6.49333C763.526 7.32951 763.311 8.22896 763.066 9.12946H762.758C762.114 7.39383 760.769 6.33094 758.966 6.33094C756.854 6.33094 755.111 7.81139 755.111 10.0943C755.111 16.0087 764.753 13.632 764.753 20.4806C764.753 25.0791 761.35 27.8186 757.191 27.8186C755.691 27.8186 753.249 27.1385 752.206 25.949C752.512 25.0158 752.668 24.05 752.788 23.0862L753.094 23.0851ZM776.696 27.5086C776.205 27.4759 775.777 27.4158 775.344 27.4158C774.885 27.4158 774.423 27.4759 773.995 27.5086V6.97521C770.899 6.97521 769.028 7.16923 767.282 7.36114C767.311 7.03953 767.375 6.71898 767.375 6.39421C767.375 6.07576 767.312 5.78684 767.282 5.4336H783.102C783.071 5.78684 782.972 6.07576 782.972 6.39421C782.972 6.71898 783.071 7.03953 783.102 7.36114C780.976 7.09808 778.836 6.9692 776.695 6.97521V27.5086H776.696ZM795.31 17.3827H788.558L791.901 9.14844L795.31 17.3827ZM793.01 4.94117H792.302L782.736 27.4421C783.074 27.4116 783.411 27.3314 783.808 27.3314C784.177 27.3314 784.514 27.4116 784.942 27.4421C785.801 24.4169 786.903 21.5752 787.977 18.7324H795.769C796.994 21.6711 798.104 24.7733 798.99 27.4421C799.511 27.4116 800.029 27.3314 800.613 27.3314C801.134 27.3314 801.625 27.4116 802.207 27.4421L793.01 4.94117ZM805.14 23.0851C806.332 25.1424 807.705 26.4278 810.092 26.4278C812.572 26.4278 814.344 24.2735 814.344 21.7344C814.344 15.7535 804.772 18.3897 804.772 11.1245C804.772 6.97626 807.89 4.94328 811.558 4.94328C813.03 4.94328 814.804 5.42938 815.938 6.49333C815.57 7.32951 815.354 8.22896 815.112 9.12946H814.804C814.16 7.39383 812.815 6.33094 811.009 6.33094C808.898 6.33094 807.156 7.81139 807.156 10.0943C807.156 16.0087 816.795 13.632 816.795 20.4806C816.795 25.0791 813.398 27.8186 809.234 27.8186C807.737 27.8186 805.292 27.1385 804.252 25.949C804.556 25.0158 804.712 24.05 804.834 23.0862L805.14 23.0851ZM823.812 15.0144H828.563C829.482 15.0144 830.37 14.8868 831.292 14.8562C831.262 15.1114 831.184 15.4003 831.184 15.6903C831.184 15.9454 831.262 16.2344 831.292 16.5887C830.37 16.5581 829.482 16.4284 828.563 16.4284H823.812V25.8257C825.683 25.89 827.523 25.7613 829.36 25.6939C830.306 25.6635 831.248 25.5666 832.182 25.4039C832.15 25.7624 832.101 26.0503 832.101 26.3698C832.101 26.6914 832.15 27.0119 832.182 27.3335H821.113V5.42938H831.996C831.966 5.78157 831.923 6.07154 831.923 6.39421C831.923 6.71476 831.966 7.03426 831.996 7.35692C831.074 7.16396 830.159 7.07011 829.239 7.00368L826.171 6.9383H823.811L823.812 15.0144ZM702.373 3.46704L705.839 0H708.077L703.348 3.46704H702.373ZM723.328 32.1503C723.808 32.1251 724.289 32.1287 724.769 32.1608C725.563 32.2346 725.903 32.7988 725.903 33.5137C725.903 34.4427 725.322 35.1038 724.32 35.2061C723.99 35.2389 723.658 35.2389 723.329 35.2061L723.328 32.1503ZM723.328 35.6194C723.579 35.6194 724.229 35.6932 724.681 35.5973C726.093 35.3052 726.823 34.7263 726.823 33.462C726.823 32.1956 726.183 31.7485 724.238 31.7485H722.446V38.8872C722.585 38.8745 722.738 38.8482 722.886 38.8482C723.028 38.8482 723.168 38.8745 723.329 38.8872L723.328 35.6194ZM741.226 35.631H739.03L740.117 32.9664L741.226 35.631ZM740.475 31.6115H740.245L737.127 38.8851C737.237 38.8724 737.345 38.8461 737.477 38.8461C737.596 38.8461 737.707 38.8724 737.849 38.8851C738.129 37.9065 738.486 36.9839 738.84 36.0612H741.376C741.777 37.0145 742.137 38.0215 742.428 38.8851C742.596 38.8724 742.766 38.8461 742.957 38.8461C743.127 38.8461 743.289 38.8724 743.478 38.8851L740.475 31.6115ZM757.046 32.1387C757.466 32.1176 758.149 32.087 758.52 32.1492C759.272 32.2747 759.623 32.7439 759.623 33.4631C759.623 34.275 759.071 34.7938 758.34 34.9499C757.829 35.0532 757.188 35.0142 757.046 35.0036V32.1387ZM756.166 38.8851C756.307 38.8724 756.456 38.8461 756.607 38.8461C756.749 38.8461 756.889 38.8724 757.047 38.8851V35.3959H757.428L758.229 36.3807L759.415 37.9814C759.624 38.2756 759.821 38.5666 760.04 38.8851C760.22 38.8724 760.417 38.8461 760.605 38.8461C760.798 38.8461 760.976 38.8724 761.187 38.8851L760.997 38.6278L760.515 38.0426L758.461 35.3094C759.474 35.1238 760.505 34.5428 760.505 33.3344C760.505 32.2821 759.83 31.7506 758.29 31.7506H756.166V38.8851ZM774.449 31.7475C774.59 31.758 774.741 31.7865 774.89 31.7865C775.032 31.7865 775.17 31.758 775.33 31.7475V38.8861C775.171 38.8735 775.032 38.8471 774.89 38.8471C774.742 38.8471 774.59 38.8735 774.449 38.8861V31.7475ZM789.31 37.47C789.701 38.1375 790.154 38.5529 790.933 38.5529C791.742 38.5529 792.324 37.8549 792.324 37.0366C792.324 35.1027 789.187 35.9558 789.187 33.6075C789.187 32.2673 790.216 31.6093 791.413 31.6093C791.893 31.6093 792.477 31.7654 792.847 32.1081C792.727 32.3823 792.657 32.6701 792.577 32.9633H792.476C792.263 32.4033 791.824 32.0575 791.233 32.0575C790.544 32.0575 789.972 32.5373 789.972 33.2743C789.972 35.185 793.129 34.4174 793.129 36.6317C793.129 38.1185 792.014 39 790.653 39C790.162 39 789.359 38.7817 789.018 38.3969C789.119 38.0963 789.167 37.7832 789.208 37.47H789.31Z" fill="#8B929D"/>
<path d="M889.87 24.415H886.951V8.61371L878.354 21.8604L870.106 8.64744V24.415H867.182V3.99579H870.575L878.379 16.3209L886.261 3.99579H889.87V24.415Z" fill="#8B929D"/>
<path d="M970.783 7.09979H955.658V12.5054H965.049V15.5409H955.658V24.415H952.637V3.99579H970.788L970.783 7.09979Z" fill="#8B929D"/>
<path d="M1035.82 7.09979H1026.79V24.415H1023.7V7.09979H1014.65V3.99579H1035.82V7.09979Z" fill="#8B929D"/>
<path d="M1048.29 3.99579C1041.33 3.99579 1035.82 8.30905 1035.82 14.207C1035.82 20.1049 1041.46 24.415 1048.31 24.415C1055.17 24.415 1060.78 20.1477 1060.78 14.207C1060.78 8.26625 1055.24 3.99579 1048.29 3.99579ZM1048.31 21.2214C1043.05 21.2214 1038.93 18.1836 1038.93 14.2064C1038.93 10.2202 1043.05 7.19414 1048.3 7.19414C1053.53 7.19414 1057.67 10.142 1057.67 14.2064C1057.67 18.2708 1053.58 21.2219 1048.31 21.2219V21.2214Z" fill="#8B929D"/>
<path d="M1002.6 3.99579C995.807 3.99579 990.449 8.48849 990.449 14.5761C990.449 20.6719 995.844 25.1712 1002.6 25.1712C1007.11 25.1712 1010.99 23.1583 1013.14 20.1087L1010.82 17.9171C1009.36 20.3125 1006.23 21.8532 1002.6 21.8532C997.472 21.8532 993.459 18.762 993.459 14.5745C993.459 10.3968 997.522 7.3034 1002.6 7.3034C1005.76 7.3034 1008.5 8.55205 1010.1 10.2872L1012.4 8.10661C1010.19 5.57919 1006.65 3.99579 1002.6 3.99579Z" fill="#8B929D"/>
<path d="M912.224 24.415H915.581L905.075 3.99579H902.641L892.137 24.415H895.488L898.831 17.9181H908.884L912.224 24.415ZM900.372 14.9017L903.858 8.11107L907.341 14.9017H900.372Z" fill="#8B929D"/>
<path d="M986.345 24.415H989.693L979.19 3.99579H976.752L966.249 24.415H969.604L972.944 17.9181H983.001L986.345 24.415ZM974.488 14.9017L977.969 8.11107L981.452 14.9017H974.488Z" fill="#8B929D"/>
<path d="M930.849 13.7473L939.731 3.99579H935.665L928.81 11.5159L921.961 3.99579H917.892L926.78 13.7473L917.094 24.415H921.159L928.81 15.9826L936.467 24.415H940.538L930.849 13.7473Z" fill="#8B929D"/>
<path d="M1063.8 3.99579V24.415H1066.88V16.2672H1075.28L1081.33 24.415H1084.98L1078.93 16.1843C1081.65 16.1886 1084.53 13.3824 1084.53 10.1361C1084.53 6.88982 1082 3.99579 1077.99 3.99579H1063.8ZM1066.87 7.157H1078.43C1079.71 7.157 1081.4 8.26421 1081.4 10.1806C1081.4 12.4942 1079.67 13.2274 1078.16 13.2274H1066.88L1066.87 7.15754V7.157Z" fill="#8B929D"/>
<path d="M1109.67 26.7788C1109.5 26.6225 1109.32 26.46 1109.15 26.2968C1109.15 26.2968 1108.25 25.4283 1107.82 24.9062C1107.69 24.747 1105.7 22.3626 1105.7 22.3626L1104.3 20.702C1103.69 19.9677 1103.14 19.2905 1102.63 18.6324C1102.21 18.0771 1101.65 17.6548 1101.81 17.0114C1101.96 16.3746 1104.27 13.4209 1105.38 12.078C1105.38 12.078 1106.28 11.0011 1107.56 9.46575V9.47983C1109.95 6.63945 1113.7 2.22365 1115.65 0.214661C1115.65 0.214661 1113.61 0.335958 1111.45 2.61859C1110.39 3.74672 1100.74 13.5642 1100.41 13.857C1099.91 14.2974 1099.49 14.1555 1099.12 13.8032C1098.84 13.5274 1097.88 12.2805 1097.35 11.4643C1096.66 10.3906 1095.91 9.3264 1095.36 8.17227C1095.33 8.10296 1095.3 8.05278 1095.27 8.00585L1095.27 7.99899L1095.27 7.99177L1095.23 7.91957C1095.07 7.60224 1095 7.47228 1094.95 7.24521C1094.9 7.04305 1094.86 6.73511 1094.76 6.11635L1094.74 5.89614L1094.73 5.88964V5.87881C1094.61 4.47559 1094.27 3.43337 1093.69 2.77598C1093.19 2.18502 1092.61 2.06878 1092.41 2.0482C1092.41 2.0475 1092.4 2.0475 1092.39 2.0482C1092.31 2.03872 1092.23 2.03619 1092.15 2.04062C1091.39 2.14531 1090.75 2.60884 1090.25 3.42832C1090.16 3.59948 1090.08 3.77736 1090.01 3.96044C1089.88 4.32538 1089.79 4.70359 1089.73 5.08857C1089.62 5.98459 1089.79 6.75388 1090.23 7.37734C1090.49 7.69502 1090.93 8.10296 1091.37 8.50078C1091.68 8.78056 1091.96 9.03723 1092.18 9.2607C1093.16 10.2715 1093.92 11.4527 1094.71 12.6021C1095.3 13.4747 1095.98 14.2989 1096.57 15.1804C1096.7 15.3931 1096.83 15.5855 1096.93 15.7624C1096.94 15.7828 1096.96 15.8053 1096.97 15.8292C1097.4 16.5439 1097.55 17.0205 1096.98 17.8566C1096.73 18.2176 1095.66 19.5558 1095.09 20.2832C1094.22 21.3918 1093.37 22.5028 1092.52 23.6164C1090.93 25.6976 1089.38 27.8134 1088.01 30.0282C1087.28 31.2043 1086.24 32.5787 1086.31 34.0321C1086.43 36.523 1089.3 36.6533 1090.89 35.418C1091.56 34.9061 1091.92 34.3985 1091.48 34.0581C1090.63 33.4191 1090.79 32.4382 1092.11 29.9708C1092.59 29.0542 1096.06 24.3727 1098.84 20.6814C1098.84 20.6814 1099.15 20.2688 1099.14 20.2796C1099.27 20.1154 1099.47 19.8912 1099.79 19.8912C1100.1 19.8879 1100.33 20.2796 1100.53 20.541C1102.04 22.5391 1102.65 23.3796 1103.97 25.4582C1104.35 26.0564 1104.89 27.0954 1105.23 27.7852C1105.22 27.7835 1105.22 27.7813 1105.21 27.7788L1105.22 27.7834C1105.62 28.498 1105.96 29.247 1106.23 30.0217C1106.5 30.757 1106.79 31.5855 1107.55 32.1736C1107.88 32.4286 1108.28 32.5849 1108.7 32.6249C1108.71 32.6249 1108.72 32.6249 1108.73 32.6249C1110.09 32.7411 1111.27 31.6863 1111.41 30.2289C1111.42 30.1263 1111.42 30.0231 1111.42 29.9199C1111.4 29.0896 1111.07 28.2953 1110.42 27.5112C1110.27 27.3336 1109.98 27.0643 1109.67 26.7788Z" fill="#8B929D"/>
<path d="M907.765 38.667H906.717V31.2911H904.585V30.3853H909.909V31.2911H907.765V38.667Z" fill="#8B929D"/>
<path d="M915.588 38.667H914.55V34.6769H911.657V38.667H910.619V30.3853H911.657V33.7725H914.549V30.3853H915.587L915.588 38.667Z" fill="#8B929D"/>
<path d="M916.654 30.3853H921.008V31.2907H917.692V33.888H920.819V34.7934H917.692V37.7616H921.15V38.667H916.654V30.3853Z" fill="#8B929D"/>
<path d="M925.053 30.3853H926.792L928.472 36.9503H928.496L930.176 30.3853H931.915V38.667H930.881V31.4288H930.857L929.001 38.6667H927.967L926.11 31.4288H926.088V38.6667H925.053V30.3853Z" fill="#8B929D"/>
<path d="M934.915 30.3853H936.295L938.54 38.667H937.463L936.866 36.3938H934.2L933.58 38.667H932.506L934.915 30.3853ZM934.412 35.5586H936.658L935.594 31.557H935.57L934.412 35.5586Z" fill="#8B929D"/>
<path d="M939.131 30.3853H940.165V34.3982H940.188L943.092 30.3853H944.244L941.704 33.8417L944.455 38.667H943.303L941.035 34.6769L940.165 35.8484V38.667H939.131V30.3853Z" fill="#8B929D"/>
<path d="M945.047 30.3853H949.402V31.2907H946.086V33.888H949.213V34.7934H946.086V37.7616H949.543V38.667H945.047V30.3853Z" fill="#8B929D"/>
<path d="M954.51 30.3853H955.555V36.1776C955.555 37.3894 955.958 37.9545 956.99 37.9545C958.104 37.9545 958.436 37.3313 958.436 36.1776V30.3853H959.48V36.1776C959.48 37.7585 958.65 38.7854 956.99 38.7854C955.294 38.7854 954.512 37.8738 954.512 36.1776L954.51 30.3853Z" fill="#8B929D"/>
<path d="M960.426 30.3853H962.563C963.291 30.3853 965.158 30.3853 965.158 32.7632C965.158 34.3057 964.161 35.164 962.74 35.164H961.46V38.667H960.426V30.3853ZM961.459 34.3292H962.692C963.443 34.3292 964.077 33.8187 964.077 32.7169C964.077 31.811 963.643 31.2204 962.621 31.2204H961.459V34.3292Z" fill="#8B929D"/>
<path d="M974.269 34.5258C974.269 36.5922 973.878 38.7848 971.548 38.7848C969.217 38.7848 968.827 36.5922 968.827 34.5258C968.827 32.4594 969.217 30.2664 971.548 30.2664C973.878 30.2664 974.269 32.4594 974.269 34.5258ZM969.915 34.5258C969.915 36.4201 970.104 37.9582 971.548 37.9582C972.991 37.9582 973.18 36.4201 973.18 34.5258C973.18 32.6315 972.991 31.0934 971.548 31.0934C970.104 31.0934 969.915 32.6315 969.915 34.5258Z" fill="#8B929D"/>
<path d="M975.215 30.3853H979.593V31.2908H976.259V33.8884H979.403V34.794H976.259V38.667H975.215V30.3853Z" fill="#8B929D"/>
<path d="M983.259 30.3853H984.998L986.678 36.9503H986.702L988.382 30.3853H990.121V38.667H989.087V31.4288H989.065L987.209 38.6667H986.175L984.316 31.4288H984.293V38.6667H983.259V30.3853Z" fill="#8B929D"/>
<path d="M993.171 30.3853H994.577L996.865 38.667H995.767L995.16 36.3938H992.443L991.811 38.667H990.713L993.171 30.3853ZM992.659 35.5586H994.947L993.862 31.557H993.838L992.659 35.5586Z" fill="#8B929D"/>
<path d="M997.457 30.3853H998.491V34.3981H998.515L1001.42 30.3853H1002.57L1000.03 33.8419L1002.78 38.667H1001.63L999.361 34.6771L998.491 35.8485V38.667H997.457V30.3853Z" fill="#8B929D"/>
<path d="M1003.25 30.3853H1007.61V31.2907H1004.29V33.888H1007.42V34.7934H1004.29V37.7616H1007.75V38.667H1003.25V30.3853Z" fill="#8B929D"/>
<path d="M1012.84 30.3853H1013.86V36.1776C1013.86 37.3894 1014.25 37.9545 1015.26 37.9545C1016.34 37.9545 1016.67 37.3313 1016.67 36.1776V30.3853H1017.69V36.1776C1017.69 37.7585 1016.88 38.7854 1015.26 38.7854C1013.6 38.7854 1012.84 37.8738 1012.84 36.1776V30.3853Z" fill="#8B929D"/>
<path d="M1018.75 30.3853H1020.89C1021.62 30.3853 1023.48 30.3853 1023.48 32.7632C1023.48 34.3057 1022.49 35.164 1021.07 35.164H1019.79V38.667H1018.75L1018.75 30.3853ZM1019.79 34.3292H1021.02C1021.77 34.3292 1022.4 33.8187 1022.4 32.7169C1022.4 31.811 1021.97 31.2204 1020.95 31.2204H1019.78L1019.79 34.3292Z" fill="#8B929D"/>
<path d="M1028.5 30.3853H1029.88L1032.12 38.667H1031.04L1030.45 36.3938H1027.78L1027.16 38.667H1026.09L1028.5 30.3853ZM1027.99 35.5586H1030.24L1029.17 31.557H1029.15L1027.99 35.5586Z" fill="#8B929D"/>
<path d="M1032.59 30.3853H1035.33C1036.66 30.3853 1037.5 31.1509 1037.5 32.4618C1037.5 33.3676 1037.18 34.3176 1036.2 34.5495V34.5727C1036.93 34.6539 1037.35 35.2452 1037.39 35.9528L1037.47 37.3677C1037.52 38.2844 1037.67 38.516 1037.92 38.667H1036.66C1036.48 38.4931 1036.4 37.8782 1036.38 37.4714L1036.3 36.184C1036.22 35.047 1035.58 34.9778 1035.05 34.9778H1033.64V38.666H1032.59V30.3853ZM1033.64 34.1433H1034.67C1035.28 34.1433 1036.41 34.1433 1036.41 32.5429C1036.41 31.7309 1035.85 31.2204 1034.88 31.2204H1033.64V34.1433Z" fill="#8B929D"/>
<path d="M1041.15 38.667H1040.12V31.2911H1038.04V30.3853H1043.24V31.2911H1041.15V38.667Z" fill="#8B929D"/>
<path d="M1043.95 30.3853H1045.02V38.667H1043.95V30.3853Z" fill="#8B929D"/>
<path d="M1050 32.5509C1050 31.6902 1049.68 31.0934 1048.68 31.0934C1047.8 31.0934 1047.28 31.5524 1047.28 32.4246C1047.28 34.7324 1051.29 33.3549 1051.29 36.3508C1051.29 38.2455 1049.85 38.7848 1048.65 38.7848C1046.66 38.7848 1046.08 37.7975 1046.08 36.0525H1047.13C1047.13 36.9713 1047.19 37.9582 1048.72 37.9582C1049.55 37.9582 1050.19 37.3844 1050.19 36.5119C1050.19 34.1926 1046.19 35.5357 1046.19 32.5283C1046.19 31.7705 1046.52 30.2664 1048.67 30.2664C1050.29 30.2664 1051.03 31.0471 1051.05 32.5509H1050Z" fill="#8B929D"/>
<path d="M1054.59 38.667H1053.54V31.2911H1051.41V30.3853H1056.73V31.2911H1054.59L1054.59 38.667Z" fill="#8B929D"/>
<path d="M1061.04 32.5509C1061.04 31.6902 1060.72 31.0934 1059.75 31.0934C1058.89 31.0934 1058.38 31.5524 1058.38 32.4246C1058.38 34.7324 1062.29 33.3549 1062.29 36.3508C1062.29 38.2455 1060.89 38.7848 1059.71 38.7848C1057.77 38.7848 1057.2 37.7975 1057.2 36.0525H1058.22C1058.22 36.9713 1058.28 37.9582 1059.78 37.9582C1060.59 37.9582 1061.22 37.3844 1061.22 36.5119C1061.22 34.1926 1057.31 35.5357 1057.31 32.5283C1057.31 31.7705 1057.63 30.2664 1059.74 30.2664C1061.31 30.2664 1062.03 31.0471 1062.06 32.5509H1061.04Z" fill="#8B929D"/>
<g clip-path="url(#clip2_2204_18137)">
<path d="M1182.42 0.117176H1186.37V26.1204H1182.42V0.117176ZM1224.41 0.124987L1213.33 16.4632L1201.63 0.124987H1200.21V26.1439H1201.15V5.82168L1211.59 21.2205L1222.04 5.82168V26.1439H1225.77V0.124987H1224.41ZM1262.8 0.124987L1251.72 16.4632L1240.02 0.124987H1238.6V26.1439H1239.54V5.82168L1249.98 21.2205L1260.43 5.82168V26.1439H1264.16V0.124987H1262.8ZM1276.07 0.124987V26.1439H1297.63V24.8706H1280.03V12.903H1290.57V11.7039H1280.03V1.14637H1296.55V0.124987H1276.07ZM1308.56 0.124987V26.1439H1329.65V24.8706H1312.47V0.124987H1308.56ZM1162.51 13.6705C1165.85 13.6705 1166.64 10.1552 1166.64 7.37621C1166.64 4.6636 1165.85 0.994041 1162.66 0.994041H1154.66V13.6705H1162.51ZM1150.65 0H1162.71C1167.91 0 1170.46 2.71653 1170.46 7.28247C1170.46 10.9677 1168.59 13.9732 1165.36 14.6528L1171.99 26.1497H1167.72L1161.09 14.7036H1154.66V26.1497H1150.65V0Z" fill="#8B929D"/>
<path d="M1324.31 30.6914L1324.27 30.75V38.7668L1324.31 38.8254H1325.09L1325.14 38.7668V32.5506L1328.69 38.7668L1328.78 38.8254H1329.6L1329.65 38.7668V30.75L1329.6 30.6914H1328.82L1328.78 30.75V36.9662L1325.22 30.75L1325.14 30.6914H1324.31ZM1316.7 31.7363C1317.15 31.7246 1317.59 31.8918 1317.97 32.2164C1318.34 32.5411 1318.64 33.0085 1318.82 33.5592C1318.99 34.1099 1319.04 34.7189 1318.96 35.3087C1318.88 35.8984 1318.67 36.4422 1318.36 36.8708C1318.04 37.2993 1317.64 37.5932 1317.2 37.7151C1316.77 37.8369 1316.31 37.7812 1315.9 37.5549C1315.48 37.3287 1315.13 36.9422 1314.88 36.4447C1314.63 35.9472 1314.49 35.3612 1314.49 34.7613C1314.49 34.3683 1314.54 33.9782 1314.65 33.6135C1314.76 33.2488 1314.92 32.9166 1315.13 32.636C1315.33 32.3553 1315.58 32.1318 1315.85 31.978C1316.12 31.8243 1316.41 31.7435 1316.7 31.7402M1316.7 30.5196C1316.08 30.5304 1315.47 30.7883 1314.96 31.261C1314.44 31.7337 1314.04 32.4 1313.81 33.1761C1313.57 33.9522 1313.52 34.8034 1313.64 35.6226C1313.77 36.4418 1314.08 37.1925 1314.52 37.7802C1314.96 38.3679 1315.53 38.7663 1316.14 38.9254C1316.75 39.0845 1317.39 38.997 1317.96 38.6741C1318.54 38.3513 1319.03 37.8073 1319.38 37.1107C1319.72 36.4142 1319.91 35.5961 1319.91 34.7594C1319.9 33.6281 1319.56 32.5468 1318.96 31.7522C1318.36 30.9576 1317.55 30.5144 1316.7 30.5196ZM1305.05 31.8554H1306.26C1307.56 31.8554 1308.47 33.1326 1308.47 34.7594C1308.47 36.3862 1307.56 37.6634 1306.26 37.6634H1305.05V31.8554ZM1304.22 30.6934L1304.18 30.752V38.7688L1304.22 38.8273H1306.26C1308.13 38.8273 1309.47 37.0267 1309.47 34.7613C1309.47 32.4959 1308.12 30.6953 1306.26 30.6953L1304.22 30.6934ZM1294.17 30.6934L1294.12 30.752V38.7688L1294.17 38.8273H1294.95L1294.99 38.7688V32.5506L1298.55 38.7668L1298.64 38.8254H1299.46L1299.5 38.7668V30.75L1299.46 30.6914H1298.68L1298.64 30.75V36.9662L1295.08 30.75L1294.99 30.6914L1294.17 30.6934ZM1286.56 31.7382C1287 31.7266 1287.44 31.8938 1287.82 32.2185C1288.2 32.5432 1288.49 33.0108 1288.67 33.5616C1288.85 34.1124 1288.9 34.7215 1288.82 35.3113C1288.73 35.9011 1288.52 36.4449 1288.21 36.8734C1287.9 37.3019 1287.49 37.5956 1287.06 37.7173C1286.62 37.8389 1286.16 37.7829 1285.75 37.5563C1285.33 37.3298 1284.98 36.943 1284.73 36.4452C1284.48 35.9475 1284.34 35.3613 1284.34 34.7613C1284.34 34.3683 1284.4 33.9782 1284.51 33.6135C1284.61 33.2488 1284.78 32.9166 1284.98 32.636C1285.19 32.3553 1285.43 32.1318 1285.7 31.978C1285.97 31.8243 1286.26 31.7435 1286.56 31.7402M1286.56 30.5196C1285.93 30.5304 1285.32 30.7883 1284.81 31.261C1284.29 31.7337 1283.89 32.4 1283.66 33.1761C1283.43 33.9522 1283.37 34.8034 1283.5 35.6226C1283.62 36.4418 1283.93 37.1925 1284.37 37.7802C1284.82 38.3679 1285.38 38.7663 1285.99 38.9254C1286.61 39.0845 1287.24 38.997 1287.82 38.6741C1288.39 38.3513 1288.89 37.8073 1289.23 37.1107C1289.58 36.4142 1289.76 35.5961 1289.76 34.7594C1289.75 33.6281 1289.41 32.5468 1288.81 31.7522C1288.21 30.9576 1287.4 30.5144 1286.56 30.5196ZM1276.1 30.6934L1276.07 30.7403V38.7805L1276.1 38.8273H1279.76L1279.8 38.7805V37.7239L1279.76 37.6653H1276.93V30.7383L1276.9 30.6914L1276.1 30.6934Z" fill="#8B929D"/>
</g>
<path fill-rule="evenodd" clip-rule="evenodd" d="M1467.41 24.9201H1463.76L1474.48 3.86877H1474.98H1478.13H1478.69L1489.41 24.9201H1485.7L1482.9 19.379H1470.24L1467.41 24.9201ZM1481.54 16.7899L1476.53 6.96597L1471.52 16.7899H1481.54ZM1450.69 3.31223L1453.18 0.432798H1458.72L1450.69 3.31223ZM1443.55 24.9685H1462.38V22.573H1446.8V15.2897H1458.36V12.8216H1446.8V6.24006H1462.28V3.89296H1443.55V24.9685ZM1417.95 3.86877H1420.88H1431.82C1435.52 3.86877 1438.54 6.62721 1438.54 9.99059C1438.54 12.9184 1436.25 15.3865 1433.2 15.9672L1439.71 24.9443H1435.88L1429.47 16.1124H1420.88V24.9443H1417.95V16.1124V3.86877ZM1431.99 6.38524L1432.18 6.40944L1432.37 6.43363L1432.57 6.48203L1432.76 6.53043L1432.93 6.60302L1433.1 6.6756L1433.27 6.7482L1433.44 6.84498L1433.61 6.94177L1433.75 7.03856L1433.9 7.15954L1434.04 7.28053L1434.16 7.40151L1434.29 7.5225L1434.41 7.66768L1434.53 7.81286L1434.62 7.95805L1434.72 8.10323L1434.82 8.2484L1434.89 8.39359L1434.96 8.53877L1435.04 8.68395L1435.08 8.82914L1435.13 8.97431L1435.18 9.11949L1435.2 9.28888L1435.23 9.45825L1435.25 9.62763V9.79701V9.96639V10.1358V10.3051L1435.23 10.4745L1435.2 10.6439L1435.18 10.8133L1435.13 10.9827L1435.08 11.1278L1435.04 11.273L1434.96 11.4182L1434.89 11.5634L1434.82 11.7086L1434.72 11.8538L1434.62 11.9989L1434.53 12.1441L1434.41 12.2893L1434.29 12.4345L1434.16 12.5555L1434.04 12.6764L1433.9 12.7974L1433.75 12.9184L1433.61 13.0152L1433.44 13.112L1433.27 13.2088L1433.1 13.2814L1432.93 13.354L1432.76 13.4266L1432.57 13.4749L1432.37 13.5233L1432.18 13.5717L1431.99 13.5959L1431.79 13.6201H1431.58H1421.05V6.36105H1431.58H1431.82L1431.99 6.38524ZM1399.95 2.63472C1394 2.63472 1389.18 7.44991 1389.18 13.4024C1389.18 19.3548 1394 24.17 1399.95 24.17C1405.9 24.17 1410.72 19.3548 1410.72 13.4024C1410.72 7.44991 1405.88 2.63472 1399.95 2.63472ZM1399.95 0.215027C1392.04 0.215027 1385.6 6.11908 1385.6 13.4024C1385.6 20.6856 1392.01 26.5897 1399.95 26.5897C1407.89 26.5897 1414.3 20.6856 1414.3 13.4024C1414.27 6.11908 1407.86 0.215027 1399.95 0.215027ZM1364.65 24.9685V3.89296H1367.33V22.6698H1383.25V24.9685H1364.65ZM1490.93 24.9685H1509.83V22.573H1493.91V3.89296H1490.95V24.9685H1490.93ZM1423.13 38.6639H1421.53L1426.25 30.4612H1426.47H1427.85H1428.09L1432.81 38.6639H1431.19L1429.95 36.5104H1424.39L1423.13 38.6639ZM1429.32 35.4942L1427.12 31.671L1424.92 35.4942H1429.32ZM1435.83 30.4612H1437.07H1441.67C1443.21 30.4612 1444.5 31.5259 1444.5 32.8325C1444.5 33.9697 1443.53 34.9376 1442.25 35.1554L1444.98 38.6398H1443.38L1440.67 35.2038H1437.36V38.6639H1435.81V35.228V30.4612H1435.83ZM1441.71 31.4533H1441.79L1441.86 31.4775L1441.93 31.5017L1442 31.5259L1442.08 31.5501L1442.15 31.5743L1442.22 31.5984L1442.29 31.6226L1442.37 31.671L1442.44 31.7194L1442.49 31.7678L1442.54 31.8162L1442.58 31.8646L1442.63 31.913L1442.68 31.9614L1442.73 32.0098L1442.78 32.0582L1442.83 32.1066L1442.88 32.155L1442.9 32.2034L1442.92 32.2518L1442.95 32.3002L1442.97 32.3485L1443 32.4211L1443.02 32.4937V32.5663V32.6389V32.7115V32.7841V32.8567V32.9293V33.0019V33.0745V33.1471V33.2196L1443 33.2922L1442.97 33.3648L1442.95 33.4132L1442.92 33.4616L1442.9 33.51L1442.88 33.5584L1442.83 33.6068L1442.78 33.6552L1442.73 33.7036L1442.68 33.752L1442.63 33.8004L1442.58 33.8488L1442.54 33.8972L1442.49 33.9455L1442.44 33.9939L1442.37 34.0423L1442.29 34.0907L1442.22 34.1149L1442.15 34.1391L1442.08 34.1633L1442 34.1875L1441.93 34.2117L1441.86 34.2359L1441.79 34.2601H1441.71H1441.64H1441.54H1437.43V31.4291H1441.54H1441.64L1441.71 31.4533ZM1412.24 30.4612H1413.48H1418.07C1419.62 30.4612 1420.9 31.5259 1420.9 32.8325C1420.9 33.6552 1420.4 34.3811 1419.65 34.8166C1419.14 35.107 1418.61 35.1796 1418.02 35.2038C1417.73 35.2038 1417.42 35.2038 1417.11 35.2038H1413.79V38.6639H1412.24V35.228V30.4612ZM1418.12 31.4533H1418.19L1418.27 31.4775L1418.34 31.5017L1418.41 31.5259L1418.48 31.5501L1418.56 31.5743L1418.63 31.5984L1418.7 31.6226L1418.78 31.671L1418.85 31.7194L1418.92 31.7678L1418.97 31.8162L1419.02 31.8646L1419.07 31.913L1419.11 31.9614L1419.16 32.0098L1419.21 32.0582L1419.26 32.1066L1419.28 32.155L1419.31 32.2034L1419.33 32.2518L1419.36 32.3002L1419.38 32.3485L1419.4 32.4211L1419.43 32.4937L1419.45 32.5663V32.6389V32.7115V32.7841V32.8567V32.9293V33.0019V33.0745V33.1471L1419.43 33.2196L1419.4 33.2922L1419.38 33.3648L1419.36 33.4132L1419.33 33.4616L1419.31 33.51L1419.28 33.5584L1419.26 33.6068L1419.21 33.6552L1419.16 33.7036L1419.11 33.752L1419.07 33.8004L1419.02 33.8488L1418.97 33.8972L1418.92 33.9455L1418.85 33.9939L1418.78 34.0423L1418.7 34.0907L1418.63 34.1149L1418.56 34.1391L1418.48 34.1633L1418.41 34.1875L1418.34 34.2117L1418.27 34.2359L1418.19 34.2601H1418.12H1418.05H1417.95H1413.84V31.4291H1417.95H1418.05L1418.12 31.4533ZM1453.79 36.0265L1455.19 35.9297C1455.26 36.341 1455.41 36.6798 1455.65 36.946C1455.89 37.2121 1456.28 37.4299 1456.79 37.5751C1457.3 37.7445 1457.88 37.8171 1458.53 37.8171C1459.11 37.8171 1459.62 37.7687 1460.05 37.6235C1460.49 37.5025 1460.83 37.3331 1461.02 37.1153C1461.24 36.8976 1461.34 36.6798 1461.34 36.4136C1461.34 36.1475 1461.24 35.9297 1461.02 35.7361C1460.83 35.5425 1460.47 35.3732 1460.01 35.2522C1459.69 35.1554 1459.04 35.0344 1457.97 34.8408C1456.93 34.6715 1456.21 34.5021 1455.8 34.3327C1455.26 34.1391 1454.85 33.873 1454.59 33.5826C1454.32 33.268 1454.2 32.9293 1454.2 32.5663C1454.2 32.155 1454.37 31.7678 1454.68 31.4049C1455 31.0419 1455.48 30.7758 1456.11 30.5822C1456.74 30.3886 1457.44 30.316 1458.19 30.316C1459.04 30.316 1459.76 30.4128 1460.42 30.6064C1461.07 30.7999 1461.56 31.0903 1461.89 31.4775C1462.23 31.8646 1462.43 32.3002 1462.45 32.7599L1461.05 32.8567C1460.97 32.3485 1460.71 31.9372 1460.25 31.671C1459.81 31.4049 1459.14 31.2839 1458.26 31.2839C1457.34 31.2839 1456.69 31.4049 1456.28 31.6468C1455.87 31.8888 1455.65 32.1792 1455.65 32.5179C1455.65 32.8083 1455.8 33.0503 1456.09 33.2438C1456.38 33.4374 1457.13 33.631 1458.36 33.8246C1459.57 34.0181 1460.42 34.2117 1460.88 34.3569C1461.53 34.5747 1462.01 34.865 1462.35 35.1796C1462.67 35.5183 1462.81 35.9055 1462.81 36.341C1462.81 36.7766 1462.64 37.1879 1462.31 37.5751C1461.97 37.9622 1461.46 38.2526 1460.81 38.4704C1460.15 38.6881 1459.43 38.7849 1458.63 38.7849C1457.61 38.7849 1456.74 38.6881 1456.04 38.4704C1455.34 38.2526 1454.8 37.938 1454.39 37.5025C1454.03 37.067 1453.81 36.583 1453.79 36.0265ZM1448.73 32.8809H1450.26V38.6639H1448.73V32.8809ZM1448.73 30.4612H1450.26V31.9856H1448.73V30.4612ZM1377.79 11.273H1380.28L1384 4.03814H1380.83L1377.79 11.273Z" fill="#8B929D"/>
<path d="M1567.52 24.415H1564.6V8.61371L1556 21.8604L1547.75 8.64744V24.415H1544.83V3.99579H1548.22L1556.03 16.3209L1563.91 3.99579H1567.52V24.415Z" fill="#8B929D"/>
<path d="M1648.43 7.09979H1633.3V12.5054H1642.7V15.5409H1633.3V24.415H1630.28V3.99579H1648.43L1648.43 7.09979Z" fill="#8B929D"/>
<path d="M1589.87 24.415H1593.23L1582.72 3.99579H1580.29L1569.78 24.415H1573.13L1576.48 17.9181H1586.53L1589.87 24.415ZM1578.02 14.9017L1581.5 8.11107L1584.99 14.9017H1578.02Z" fill="#8B929D"/>
<path d="M1663.99 24.415H1667.34L1656.84 3.99579H1654.4L1643.89 24.415H1647.25L1650.59 17.9181H1660.65L1663.99 24.415ZM1652.13 14.9017L1655.61 8.11107L1659.1 14.9017H1652.13Z" fill="#8B929D"/>
<path d="M1608.5 13.7473L1617.38 3.99579H1613.31L1606.46 11.5159L1599.61 3.99579H1595.54L1604.43 13.7473L1594.74 24.415H1598.81L1606.46 15.9826L1614.11 24.415H1618.18L1608.5 13.7473Z" fill="#8B929D"/>
<path d="M1585.41 38.667H1584.36V31.2911H1582.23V30.3853H1587.56V31.2911H1585.41V38.667Z" fill="#8B929D"/>
<path d="M1593.23 38.667H1592.2V34.6769H1589.3V38.667H1588.27V30.3853H1589.3V33.7725H1592.2V30.3853H1593.23L1593.23 38.667Z" fill="#8B929D"/>
<path d="M1594.3 30.3853H1598.65V31.2907H1595.34V33.888H1598.47V34.7934H1595.34V37.7616H1598.8V38.667H1594.3V30.3853Z" fill="#8B929D"/>
<path d="M1602.7 30.3853H1604.44L1606.12 36.9503H1606.14L1607.82 30.3853H1609.56V38.667H1608.53V31.4288H1608.5L1606.65 38.6667H1605.61L1603.76 31.4288H1603.73V38.6667H1602.7V30.3853Z" fill="#8B929D"/>
<path d="M1612.56 30.3853H1613.94L1616.19 38.667H1615.11L1614.51 36.3938H1611.85L1611.23 38.667H1610.15L1612.56 30.3853ZM1612.06 35.5586H1614.3L1613.24 31.557H1613.22L1612.06 35.5586Z" fill="#8B929D"/>
<path d="M1616.78 30.3853H1617.81V34.3982H1617.83L1620.74 30.3853H1621.89L1619.35 33.8417L1622.1 38.667H1620.95L1618.68 34.6769L1617.81 35.8484V38.667H1616.78V30.3853Z" fill="#8B929D"/>
<path d="M1622.69 30.3853H1627.05V31.2907H1623.73V33.888H1626.86V34.7934H1623.73V37.7616H1627.19V38.667H1622.69V30.3853Z" fill="#8B929D"/>
<path d="M1632.16 30.3853H1633.2V36.1776C1633.2 37.3894 1633.6 37.9545 1634.64 37.9545C1635.75 37.9545 1636.08 37.3313 1636.08 36.1776V30.3853H1637.13V36.1776C1637.13 37.7585 1636.3 38.7854 1634.64 38.7854C1632.94 38.7854 1632.16 37.8738 1632.16 36.1776L1632.16 30.3853Z" fill="#8B929D"/>
<path d="M1638.07 30.3853H1640.21C1640.94 30.3853 1642.8 30.3853 1642.8 32.7632C1642.8 34.3057 1641.81 35.164 1640.39 35.164H1639.11V38.667H1638.07V30.3853ZM1639.11 34.3292H1640.34C1641.09 34.3292 1641.72 33.8187 1641.72 32.7169C1641.72 31.811 1641.29 31.2204 1640.27 31.2204H1639.11V34.3292Z" fill="#8B929D"/>
<path d="M1651.92 34.5258C1651.92 36.5922 1651.52 38.7848 1649.19 38.7848C1646.86 38.7848 1646.47 36.5922 1646.47 34.5258C1646.47 32.4594 1646.86 30.2664 1649.19 30.2664C1651.52 30.2664 1651.92 32.4594 1651.92 34.5258ZM1647.56 34.5258C1647.56 36.4201 1647.75 37.9582 1649.19 37.9582C1650.64 37.9582 1650.83 36.4201 1650.83 34.5258C1650.83 32.6315 1650.64 31.0934 1649.19 31.0934C1647.75 31.0934 1647.56 32.6315 1647.56 34.5258Z" fill="#8B929D"/>
</g>
<defs>
<clipPath id="clip0_2204_18137">
<rect width="1649" height="39" fill="white"/>
</clipPath>
<clipPath id="clip1_2204_18137">
<rect width="193" height="39" fill="white"/>
</clipPath>
<clipPath id="clip2_2204_18137">
<rect width="179" height="39" fill="white" transform="translate(1150.65)"/>
</clipPath>
</defs>
</svg>
