<svg width="390" height="191" viewBox="0 0 390 191" fill="none" xmlns="http://www.w3.org/2000/svg">
    <rect width="390" height="191" fill="url(#paint0_linear_2011_22740)" fill-opacity="0.2" />
    <path
        d="M254.053 55.5568H252.502V48.0109L247.935 54.3369L243.554 48.0271V55.5568H242V45.8057H243.803L247.948 51.6915L252.136 45.8057H254.053V55.5568Z"
        fill="#202020" />
    <path d="M297.039 47.288H289.004V49.8694H293.993V51.319H289.004V55.5568H287.399V45.8057H297.041L297.039 47.288Z"
        fill="#202020" />
    <path d="M331.593 47.288H326.796V55.5568H325.151V47.288H320.344V45.8057H331.593V47.288Z" fill="#202020" />
    <path
        d="M338.217 45.8057C334.521 45.8057 331.593 47.8655 331.593 50.682C331.593 53.4985 334.587 55.5568 338.229 55.5568C341.872 55.5568 344.851 53.519 344.851 50.682C344.851 47.845 341.91 45.8057 338.217 45.8057ZM338.227 54.0317C335.432 54.0317 333.245 52.581 333.245 50.6817C333.245 48.7781 335.432 47.333 338.219 47.333C341.001 47.333 343.199 48.7408 343.199 50.6817C343.199 52.6227 341.025 54.032 338.227 54.032V54.0317Z"
        fill="#202020" />
    <path
        d="M313.943 45.8057C310.333 45.8057 307.487 47.9511 307.487 50.8583C307.487 53.7693 310.353 55.918 313.943 55.918C316.341 55.918 318.399 54.9567 319.54 53.5004L318.31 52.4538C317.532 53.5977 315.871 54.3334 313.943 54.3334C311.218 54.3334 309.086 52.8572 309.086 50.8575C309.086 48.8625 311.244 47.3852 313.943 47.3852C315.62 47.3852 317.075 47.9815 317.924 48.8101L319.148 47.7688C317.975 46.5618 316.096 45.8057 313.943 45.8057Z"
        fill="#202020" />
    <path
        d="M265.929 55.5568H267.713L262.131 45.8057H260.838L255.258 55.5568H257.038L258.814 52.4542H264.155L265.929 55.5568ZM259.633 51.0138L261.485 47.7709L263.335 51.0138H259.633Z"
        fill="#202020" />
    <path
        d="M305.307 55.5568H307.086L301.506 45.8057H300.21L294.631 55.5568H296.413L298.188 52.4542H303.531L305.307 55.5568ZM299.008 51.0138L300.857 47.7709L302.708 51.0138H299.008Z"
        fill="#202020" />
    <path
        d="M275.824 50.4625L280.543 45.8057H278.383L274.741 49.3969L271.103 45.8057H268.941L273.662 50.4625L268.516 55.5568H270.676L274.741 51.5299L278.809 55.5568H280.971L275.824 50.4625Z"
        fill="#202020" />
    <path
        d="M346.458 45.8057V55.5568H348.09V51.6659H352.557L355.768 55.5568H357.708L354.493 51.6263C355.937 51.6283 357.47 50.2882 357.47 48.738C357.47 47.1877 356.124 45.8057 353.993 45.8057H346.458ZM348.089 47.3153H354.228C354.91 47.3153 355.808 47.844 355.808 48.7592C355.808 49.864 354.886 50.2142 354.084 50.2142H348.09L348.089 47.3156V47.3153Z"
        fill="#202020" />
    <path
        d="M370.825 56.6857C370.734 56.611 370.639 56.5334 370.551 56.4555C370.551 56.4555 370.071 56.0407 369.841 55.7914C369.774 55.7154 368.714 54.5767 368.714 54.5767L367.974 53.7837C367.648 53.433 367.358 53.1096 367.087 52.7953C366.859 52.5302 366.563 52.3285 366.648 52.0213C366.728 51.7172 367.958 50.3066 368.545 49.6653C368.545 49.6653 369.022 49.151 369.705 48.4178V48.4246C370.973 47.0681 372.964 44.9594 374 44C374 44 372.917 44.0579 371.77 45.148C371.206 45.6867 366.082 50.3751 365.904 50.5149C365.638 50.7252 365.417 50.6575 365.221 50.4892C365.069 50.3575 364.563 49.762 364.281 49.3722C363.912 48.8595 363.512 48.3513 363.222 47.8001C363.206 47.767 363.189 47.7431 363.177 47.7207L363.176 47.7174L363.174 47.7139L363.153 47.6795C363.07 47.5279 363.033 47.4659 363.006 47.3574C362.981 47.2609 362.956 47.1138 362.907 46.8183L362.891 46.7132L362.887 46.7101V46.7049C362.827 46.0348 362.641 45.5371 362.337 45.2232C362.069 44.9409 361.761 44.8854 361.657 44.8756C361.653 44.8753 361.649 44.8753 361.645 44.8756C361.603 44.8711 361.559 44.8699 361.516 44.872C361.113 44.922 360.775 45.1433 360.508 45.5347C360.459 45.6164 360.417 45.7014 360.382 45.7888C360.311 45.9631 360.261 46.1437 360.233 46.3275C360.174 46.7554 360.263 47.1228 360.497 47.4205C360.634 47.5722 360.872 47.767 361.104 47.957C361.265 48.0906 361.417 48.2132 361.533 48.3199C362.054 48.8026 362.458 49.3667 362.876 49.9156C363.192 50.3323 363.552 50.7259 363.865 51.1469C363.935 51.2484 364.002 51.3403 364.055 51.4248C364.064 51.4345 364.071 51.4453 364.076 51.4567C364.306 51.798 364.386 52.0256 364.082 52.4249C363.952 52.5973 363.381 53.2363 363.078 53.5837C362.618 54.1131 362.163 54.6437 361.713 55.1755C360.869 56.1693 360.046 57.1797 359.319 58.2374C358.931 58.7991 358.376 59.4554 358.414 60.1495C358.478 61.339 360.001 61.4012 360.85 60.8113C361.204 60.5668 361.398 60.3244 361.159 60.1619C360.71 59.8567 360.796 59.3883 361.496 58.21C361.751 57.7723 363.596 55.5366 365.072 53.7739C365.072 53.7739 365.236 53.5768 365.232 53.582C365.298 53.5036 365.408 53.3965 365.578 53.3965C365.741 53.3949 365.862 53.582 365.97 53.7068C366.773 54.661 367.095 55.0624 367.798 56.055C368.001 56.3407 368.283 56.8368 368.464 57.1663C368.462 57.1655 368.46 57.1644 368.458 57.1632L368.461 57.1654C368.675 57.5067 368.855 57.8644 368.999 58.2343C369.141 58.5855 369.298 58.9811 369.696 59.262C369.875 59.3837 370.088 59.4584 370.312 59.4775C370.317 59.4775 370.32 59.4775 370.323 59.4775C371.049 59.533 371.676 59.0292 371.748 58.3333C371.754 58.2843 371.757 58.235 371.756 58.1857C371.745 57.7892 371.571 57.4099 371.226 57.0354C371.143 56.9506 370.989 56.822 370.825 56.6857Z"
        fill="#202020" />
    <path d="M263.561 62.3624H263.004V58.8401H261.871V58.4075H264.7V58.8401H263.561V62.3624Z" fill="#202020" />
    <path
        d="M267.717 62.3624H267.165V60.4569H265.628V62.3624H265.077V58.4075H265.628V60.025H267.164V58.4075H267.716L267.717 62.3624Z"
        fill="#202020" />
    <path
        d="M268.282 58.4075H270.595V58.8399H268.834V60.0802H270.495V60.5126H268.834V61.93H270.671V62.3624H268.282V58.4075Z"
        fill="#202020" />
    <path
        d="M272.745 58.4075H273.669L274.561 61.5426H274.574L275.466 58.4075H276.39V62.3624H275.841V58.9058H275.829L274.842 62.3623H274.293L273.306 58.9058H273.295V62.3623H272.745V58.4075Z"
        fill="#202020" />
    <path
        d="M277.984 58.4075H278.717L279.91 62.3624H279.338L279.021 61.2768H277.604L277.275 62.3624H276.704L277.984 58.4075ZM277.717 60.878H278.91L278.345 58.9671H278.332L277.717 60.878Z"
        fill="#202020" />
    <path
        d="M280.224 58.4075H280.773V60.3239H280.786L282.328 58.4075H282.94L281.591 60.0581L283.052 62.3624H282.441L281.236 60.4569L280.773 61.0164V62.3624H280.224V58.4075Z"
        fill="#202020" />
    <path
        d="M283.367 58.4075H285.68V58.8399H283.919V60.0802H285.58V60.5126H283.919V61.93H285.755V62.3624H283.367V58.4075Z"
        fill="#202020" />
    <path
        d="M288.395 58.4075H288.95V61.1736C288.95 61.7523 289.164 62.0222 289.712 62.0222C290.304 62.0222 290.48 61.7246 290.48 61.1736V58.4075H291.035V61.1736C291.035 61.9285 290.594 62.4189 289.712 62.4189C288.811 62.4189 288.396 61.9836 288.396 61.1736L288.395 58.4075Z"
        fill="#202020" />
    <path
        d="M291.537 58.4075H292.673C293.059 58.4075 294.052 58.4075 294.052 59.5431C294.052 60.2797 293.522 60.6896 292.767 60.6896H292.087V62.3624H291.537V58.4075ZM292.086 60.2909H292.741C293.14 60.2909 293.477 60.0471 293.477 59.5209C293.477 59.0883 293.246 58.8063 292.704 58.8063H292.086V60.2909Z"
        fill="#202020" />
    <path
        d="M298.892 60.3846C298.892 61.3715 298.684 62.4185 297.446 62.4185C296.208 62.4185 296 61.3715 296 60.3846C296 59.3978 296.208 58.3506 297.446 58.3506C298.684 58.3506 298.892 59.3978 298.892 60.3846ZM296.579 60.3846C296.579 61.2892 296.679 62.0238 297.446 62.0238C298.213 62.0238 298.313 61.2892 298.313 60.3846C298.313 59.4801 298.213 58.7455 297.446 58.7455C296.679 58.7455 296.579 59.4801 296.579 60.3846Z"
        fill="#202020" />
    <path d="M299.395 58.4075H301.72V58.8399H299.949V60.0804H301.619V60.5129H299.949V62.3624H299.395V58.4075Z"
        fill="#202020" />
    <path
        d="M303.668 58.4075H304.592L305.485 61.5426H305.497L306.39 58.4075H307.314V62.3624H306.764V58.9058H306.753L305.767 62.3623H305.217L304.23 58.9058H304.218V62.3623H303.668V58.4075Z"
        fill="#202020" />
    <path
        d="M308.934 58.4075H309.681L310.896 62.3624H310.313L309.99 61.2768H308.547L308.211 62.3624H307.628L308.934 58.4075ZM308.661 60.878H309.877L309.301 58.9671H309.288L308.661 60.878Z"
        fill="#202020" />
    <path
        d="M311.211 58.4075H311.76V60.3238H311.773L313.315 58.4075H313.927L312.578 60.0582L314.039 62.3624H313.427L312.222 60.457L311.76 61.0164V62.3624H311.211V58.4075Z"
        fill="#202020" />
    <path
        d="M314.29 58.4075H316.603V58.8399H314.842V60.0802H316.503V60.5126H314.842V61.93H316.678V62.3624H314.29V58.4075Z"
        fill="#202020" />
    <path
        d="M319.381 58.4075H319.923V61.1736C319.923 61.7523 320.132 62.0222 320.667 62.0222C321.245 62.0222 321.417 61.7246 321.417 61.1736V58.4075H321.958V61.1736C321.958 61.9285 321.528 62.4189 320.667 62.4189C319.787 62.4189 319.381 61.9836 319.381 61.1736V58.4075Z"
        fill="#202020" />
    <path
        d="M322.524 58.4075H323.659C324.046 58.4075 325.038 58.4075 325.038 59.5431C325.038 60.2797 324.508 60.6896 323.753 60.6896H323.074V62.3624H322.525L322.524 58.4075ZM323.073 60.2909H323.727C324.126 60.2909 324.463 60.0471 324.463 59.5209C324.463 59.0883 324.232 58.8063 323.69 58.8063H323.072L323.073 60.2909Z"
        fill="#202020" />
    <path
        d="M327.7 58.4075H328.433L329.626 62.3624H329.054L328.737 61.2768H327.322L326.992 62.3624H326.421L327.7 58.4075ZM327.433 60.878H328.626L328.06 58.9671H328.048L327.433 60.878Z"
        fill="#202020" />
    <path
        d="M329.878 58.4075H331.332C332.037 58.4075 332.484 58.7731 332.484 59.3991C332.484 59.8317 332.314 60.2854 331.792 60.3961V60.4072C332.182 60.4459 332.403 60.7283 332.428 61.0663L332.467 61.7419C332.492 62.1797 332.574 62.2903 332.706 62.3624H332.038C331.944 62.2794 331.9 61.9857 331.887 61.7914L331.849 61.1767C331.805 60.6337 331.464 60.6006 331.181 60.6006H330.432V62.3619H329.878V58.4075ZM330.432 60.2021H330.98C331.307 60.2021 331.905 60.2021 331.905 59.4379C331.905 59.0501 331.609 58.8063 331.093 58.8063H330.432V60.2021Z"
        fill="#202020" />
    <path d="M334.42 62.3624H333.876V58.8401H332.768V58.4075H335.534V58.8401H334.42V62.3624Z" fill="#202020" />
    <path d="M335.911 58.4075H336.477V62.3624H335.911V58.4075Z" fill="#202020" />
    <path
        d="M339.127 59.4415C339.127 59.0305 338.956 58.7455 338.426 58.7455C337.958 58.7455 337.681 58.9647 337.681 59.3812C337.681 60.4833 339.808 59.8255 339.808 61.2562C339.808 62.161 339.045 62.4185 338.407 62.4185C337.352 62.4185 337.043 61.9471 337.043 61.1137H337.598C337.598 61.5525 337.63 62.0238 338.445 62.0238C338.887 62.0238 339.228 61.7498 339.228 61.3331C339.228 60.2255 337.1 60.8669 337.1 59.4307C337.1 59.0689 337.277 58.3506 338.419 58.3506C339.278 58.3506 339.67 58.7234 339.682 59.4415H339.127Z"
        fill="#202020" />
    <path d="M341.561 62.3624H341.003V58.8401H339.871V58.4075H342.699V58.8401H341.56L341.561 62.3624Z" fill="#202020" />
    <path
        d="M344.987 59.4415C344.987 59.0305 344.821 58.7455 344.302 58.7455C343.846 58.7455 343.574 58.9647 343.574 59.3812C343.574 60.4833 345.654 59.8255 345.654 61.2562C345.654 62.161 344.907 62.4185 344.284 62.4185C343.253 62.4185 342.951 61.9471 342.951 61.1137H343.494C343.494 61.5525 343.525 62.0238 344.321 62.0238C344.753 62.0238 345.086 61.7498 345.086 61.3331C345.086 60.2255 343.007 60.8669 343.007 59.4307C343.007 59.0689 343.179 58.3506 344.296 58.3506C345.135 58.3506 345.518 58.7234 345.53 59.4415H344.987Z"
        fill="#202020" />
    <path
        d="M284.639 91.5028C283.883 91.5028 283.206 91.3395 282.609 91.0128C282.012 90.6768 281.54 90.2195 281.195 89.6408C280.859 89.0528 280.691 88.3902 280.691 87.6528V81.6048H282.203V87.5268C282.203 88.0028 282.315 88.4322 282.539 88.8148C282.763 89.1882 283.057 89.4868 283.421 89.7108C283.794 89.9348 284.2 90.0468 284.639 90.0468C285.106 90.0468 285.526 89.9348 285.899 89.7108C286.282 89.4868 286.585 89.1882 286.809 88.8148C287.033 88.4322 287.145 88.0028 287.145 87.5268V81.6048H288.587V87.6528C288.587 88.3902 288.414 89.0528 288.069 89.6408C287.733 90.2195 287.266 90.6768 286.669 91.0128C286.072 91.3395 285.395 91.5028 284.639 91.5028ZM290.83 94.4988V84.0688H292.286V85.7488L292.062 85.6228C292.118 85.3428 292.277 85.0768 292.538 84.8248C292.8 84.5635 293.117 84.3535 293.49 84.1948C293.873 84.0268 294.265 83.9428 294.666 83.9428C295.329 83.9428 295.917 84.1062 296.43 84.4328C296.944 84.7595 297.35 85.2075 297.648 85.7768C297.947 86.3462 298.096 86.9995 298.096 87.7368C298.096 88.4648 297.947 89.1182 297.648 89.6968C297.359 90.2662 296.958 90.7188 296.444 91.0548C295.931 91.3815 295.352 91.5448 294.708 91.5448C294.279 91.5448 293.864 91.4608 293.462 91.2928C293.061 91.1155 292.72 90.8915 292.44 90.6208C292.16 90.3502 291.988 90.0702 291.922 89.7808L292.286 89.5848V94.4988H290.83ZM294.47 90.2148C294.9 90.2148 295.282 90.1075 295.618 89.8928C295.954 89.6782 296.22 89.3842 296.416 89.0108C296.612 88.6375 296.71 88.2128 296.71 87.7368C296.71 87.2608 296.612 86.8408 296.416 86.4768C296.23 86.1035 295.968 85.8095 295.632 85.5948C295.296 85.3802 294.909 85.2728 294.47 85.2728C294.032 85.2728 293.644 85.3802 293.308 85.5948C292.972 85.8002 292.706 86.0895 292.51 86.4628C292.314 86.8362 292.216 87.2608 292.216 87.7368C292.216 88.2128 292.314 88.6375 292.51 89.0108C292.706 89.3842 292.972 89.6782 293.308 89.8928C293.644 90.1075 294.032 90.2148 294.47 90.2148ZM304.496 91.4188V82.1928H305.938V91.4188H304.496ZM302.97 85.4688V84.0688H307.646V85.4688H302.97ZM312.195 91.5588C311.476 91.5588 310.832 91.3955 310.263 91.0688C309.703 90.7328 309.259 90.2802 308.933 89.7108C308.606 89.1322 308.443 88.4742 308.443 87.7368C308.443 86.9995 308.606 86.3462 308.933 85.7768C309.259 85.1982 309.703 84.7455 310.263 84.4188C310.832 84.0828 311.476 83.9148 312.195 83.9148C312.904 83.9148 313.539 84.0828 314.099 84.4188C314.668 84.7455 315.116 85.1982 315.443 85.7768C315.769 86.3462 315.933 86.9995 315.933 87.7368C315.933 88.4742 315.769 89.1322 315.443 89.7108C315.116 90.2802 314.668 90.7328 314.099 91.0688C313.539 91.3955 312.904 91.5588 312.195 91.5588ZM312.195 90.2428C312.633 90.2428 313.025 90.1355 313.371 89.9208C313.716 89.6968 313.987 89.3982 314.183 89.0248C314.379 88.6422 314.472 88.2128 314.463 87.7368C314.472 87.2515 314.379 86.8222 314.183 86.4488C313.987 86.0662 313.716 85.7675 313.371 85.5528C313.025 85.3382 312.633 85.2308 312.195 85.2308C311.756 85.2308 311.359 85.3428 311.005 85.5668C310.659 85.7815 310.389 86.0802 310.193 86.4628C309.997 86.8362 309.903 87.2608 309.913 87.7368C309.903 88.2128 309.997 88.6422 310.193 89.0248C310.389 89.3982 310.659 89.6968 311.005 89.9208C311.359 90.1355 311.756 90.2428 312.195 90.2428ZM324.256 91.5168C323.547 91.5168 322.903 91.3722 322.324 91.0828C321.755 90.7842 321.279 90.3548 320.896 89.7948L322.03 88.5348C322.431 88.9828 322.795 89.2908 323.122 89.4588C323.449 89.6175 323.808 89.6968 324.2 89.6968C324.527 89.6968 324.821 89.6268 325.082 89.4868C325.343 89.3468 325.549 89.1555 325.698 88.9128C325.847 88.6702 325.922 88.3995 325.922 88.1008C325.922 87.7928 325.847 87.5175 325.698 87.2748C325.549 87.0322 325.348 86.8408 325.096 86.7008C324.853 86.5515 324.573 86.4768 324.256 86.4768C324.051 86.4768 323.859 86.4955 323.682 86.5328C323.505 86.5608 323.309 86.6215 323.094 86.7148C322.879 86.7988 322.618 86.9248 322.31 87.0928L321.358 85.8328L321.96 81.5628H327.476V83.3688H323.024L323.542 82.7528L323.08 85.8608L322.408 85.5388C322.548 85.4082 322.739 85.2868 322.982 85.1748C323.234 85.0628 323.505 84.9695 323.794 84.8948C324.093 84.8202 324.382 84.7828 324.662 84.7828C325.278 84.7828 325.824 84.9228 326.3 85.2028C326.785 85.4828 327.168 85.8748 327.448 86.3788C327.737 86.8735 327.882 87.4428 327.882 88.0868C327.882 88.7308 327.723 89.3142 327.406 89.8368C327.089 90.3502 326.655 90.7608 326.104 91.0688C325.553 91.3675 324.937 91.5168 324.256 91.5168ZM333.201 91.5588C332.361 91.5588 331.642 91.3582 331.045 90.9568C330.457 90.5555 330.004 89.9815 329.687 89.2348C329.379 88.4788 329.225 87.5735 329.225 86.5188C329.225 85.4642 329.379 84.5635 329.687 83.8168C330.004 83.0608 330.457 82.4822 331.045 82.0808C331.642 81.6795 332.361 81.4788 333.201 81.4788C334.041 81.4788 334.759 81.6795 335.357 82.0808C335.954 82.4822 336.407 83.0608 336.715 83.8168C337.032 84.5635 337.191 85.4642 337.191 86.5188C337.191 87.5735 337.032 88.4788 336.715 89.2348C336.407 89.9815 335.954 90.5555 335.357 90.9568C334.759 91.3582 334.041 91.5588 333.201 91.5588ZM333.201 89.7528C333.826 89.7528 334.311 89.4728 334.657 88.9128C335.002 88.3528 335.175 87.5548 335.175 86.5188C335.175 85.4642 335.002 84.6522 334.657 84.0828C334.311 83.5135 333.826 83.2288 333.201 83.2288C332.566 83.2288 332.076 83.5135 331.731 84.0828C331.395 84.6522 331.227 85.4642 331.227 86.5188C331.227 87.5548 331.395 88.3528 331.731 88.9128C332.076 89.4728 332.566 89.7528 333.201 89.7528ZM339.981 91.4188L346.463 81.6188H348.339L341.787 91.4188H339.981ZM340.709 86.8128C340.252 86.8128 339.841 86.6962 339.477 86.4628C339.123 86.2295 338.843 85.9122 338.637 85.5108C338.441 85.1002 338.343 84.6335 338.343 84.1108C338.343 83.5882 338.441 83.1215 338.637 82.7108C338.843 82.2908 339.123 81.9688 339.477 81.7448C339.832 81.5115 340.243 81.3948 340.709 81.3948C341.176 81.3948 341.582 81.5115 341.927 81.7448C342.282 81.9688 342.557 82.2908 342.753 82.7108C342.959 83.1215 343.061 83.5882 343.061 84.1108C343.061 84.6242 342.959 85.0862 342.753 85.4968C342.548 85.8982 342.268 86.2202 341.913 86.4628C341.559 86.6962 341.157 86.8128 340.709 86.8128ZM340.709 85.4968C340.877 85.4968 341.022 85.4408 341.143 85.3288C341.265 85.2168 341.353 85.0582 341.409 84.8528C341.475 84.6382 341.507 84.3908 341.507 84.1108C341.507 83.8308 341.475 83.5835 341.409 83.3688C341.353 83.1542 341.265 82.9908 341.143 82.8788C341.022 82.7668 340.877 82.7108 340.709 82.7108C340.541 82.7108 340.392 82.7715 340.261 82.8928C340.14 83.0048 340.047 83.1682 339.981 83.3828C339.916 83.5882 339.883 83.8308 339.883 84.1108C339.883 84.3908 339.916 84.6382 339.981 84.8528C340.047 85.0582 340.14 85.2168 340.261 85.3288C340.392 85.4408 340.541 85.4968 340.709 85.4968ZM347.765 91.5448C347.308 91.5448 346.897 91.4282 346.533 91.1948C346.179 90.9615 345.899 90.6442 345.693 90.2428C345.488 89.8322 345.385 89.3702 345.385 88.8568C345.385 88.3248 345.483 87.8535 345.679 87.4428C345.885 87.0322 346.165 86.7102 346.519 86.4768C346.883 86.2435 347.299 86.1268 347.765 86.1268C348.223 86.1268 348.629 86.2435 348.983 86.4768C349.338 86.7102 349.613 87.0322 349.809 87.4428C350.005 87.8535 350.103 88.3248 350.103 88.8568C350.103 89.3608 350.001 89.8182 349.795 90.2288C349.59 90.6395 349.31 90.9615 348.955 91.1948C348.61 91.4282 348.213 91.5448 347.765 91.5448ZM347.765 90.2428C347.924 90.2428 348.064 90.1868 348.185 90.0748C348.316 89.9535 348.414 89.7902 348.479 89.5848C348.545 89.3795 348.577 89.1368 348.577 88.8568C348.577 88.5675 348.545 88.3202 348.479 88.1148C348.414 87.9002 348.316 87.7368 348.185 87.6248C348.064 87.5035 347.924 87.4428 347.765 87.4428C347.588 87.4428 347.439 87.5035 347.317 87.6248C347.196 87.7368 347.098 87.9002 347.023 88.1148C346.958 88.3202 346.925 88.5675 346.925 88.8568C346.925 89.1368 346.958 89.3795 347.023 89.5848C347.089 89.7902 347.182 89.9535 347.303 90.0748C347.434 90.1868 347.588 90.2428 347.765 90.2428ZM358.98 91.5588C358.261 91.5588 357.617 91.3955 357.048 91.0688C356.488 90.7328 356.045 90.2802 355.718 89.7108C355.391 89.1322 355.228 88.4742 355.228 87.7368C355.228 86.9995 355.391 86.3462 355.718 85.7768C356.045 85.1982 356.488 84.7455 357.048 84.4188C357.617 84.0828 358.261 83.9148 358.98 83.9148C359.689 83.9148 360.324 84.0828 360.884 84.4188C361.453 84.7455 361.901 85.1982 362.228 85.7768C362.555 86.3462 362.718 86.9995 362.718 87.7368C362.718 88.4742 362.555 89.1322 362.228 89.7108C361.901 90.2802 361.453 90.7328 360.884 91.0688C360.324 91.3955 359.689 91.5588 358.98 91.5588ZM358.98 90.2428C359.419 90.2428 359.811 90.1355 360.156 89.9208C360.501 89.6968 360.772 89.3982 360.968 89.0248C361.164 88.6422 361.257 88.2128 361.248 87.7368C361.257 87.2515 361.164 86.8222 360.968 86.4488C360.772 86.0662 360.501 85.7675 360.156 85.5528C359.811 85.3382 359.419 85.2308 358.98 85.2308C358.541 85.2308 358.145 85.3428 357.79 85.5668C357.445 85.7815 357.174 86.0802 356.978 86.4628C356.782 86.8362 356.689 87.2608 356.698 87.7368C356.689 88.2128 356.782 88.6422 356.978 89.0248C357.174 89.3982 357.445 89.6968 357.79 89.9208C358.145 90.1355 358.541 90.2428 358.98 90.2428ZM364.814 91.4188V83.2428C364.814 82.8228 364.907 82.4495 365.094 82.1228C365.28 81.7962 365.537 81.5395 365.864 81.3528C366.19 81.1662 366.568 81.0728 366.998 81.0728C367.296 81.0728 367.576 81.1288 367.838 81.2408C368.099 81.3528 368.309 81.5022 368.468 81.6888L367.978 82.7948C367.856 82.6828 367.721 82.5942 367.572 82.5288C367.432 82.4542 367.296 82.4168 367.166 82.4168C366.97 82.4168 366.802 82.4495 366.662 82.5148C366.531 82.5708 366.433 82.6642 366.368 82.7948C366.302 82.9162 366.27 83.0655 366.27 83.2428V91.4188H365.542C365.42 91.4188 365.299 91.4188 365.178 91.4188C365.056 91.4188 364.935 91.4188 364.814 91.4188ZM363.638 85.5248V84.1948H368.006V85.5248H363.638ZM370.31 91.4188V83.2428C370.31 82.8228 370.403 82.4495 370.59 82.1228C370.777 81.7962 371.033 81.5395 371.36 81.3528C371.687 81.1662 372.065 81.0728 372.494 81.0728C372.793 81.0728 373.073 81.1288 373.334 81.2408C373.595 81.3528 373.805 81.5022 373.964 81.6888L373.474 82.7948C373.353 82.6828 373.217 82.5942 373.068 82.5288C372.928 82.4542 372.793 82.4168 372.662 82.4168C372.466 82.4168 372.298 82.4495 372.158 82.5148C372.027 82.5708 371.929 82.6642 371.864 82.7948C371.799 82.9162 371.766 83.0655 371.766 83.2428V91.4188H371.038C370.917 91.4188 370.795 91.4188 370.674 91.4188C370.553 91.4188 370.431 91.4188 370.31 91.4188ZM369.134 85.5248V84.1948H373.502V85.5248H369.134Z"
        fill="black" />
    <path
        d="M258 118.419C258 114.001 261.582 110.419 266 110.419H366C370.418 110.419 374 114.001 374 118.419V138.419C374 142.837 370.418 146.419 366 146.419H266C261.582 146.419 258 142.837 258 138.419V118.419Z"
        fill="#202020" />
    <path
        d="M275.903 129.269C276.117 129.642 276.346 129.973 276.589 130.263C276.841 130.543 277.116 130.762 277.415 130.921C277.713 131.07 278.049 131.145 278.423 131.145C278.871 131.145 279.235 131.023 279.515 130.781C279.795 130.538 279.935 130.225 279.935 129.843C279.935 129.479 279.846 129.189 279.669 128.975C279.491 128.751 279.244 128.564 278.927 128.415C278.619 128.256 278.259 128.102 277.849 127.953C277.606 127.869 277.335 127.757 277.037 127.617C276.738 127.467 276.453 127.285 276.183 127.071C275.912 126.847 275.688 126.576 275.511 126.259C275.333 125.932 275.245 125.54 275.245 125.083C275.245 124.56 275.38 124.103 275.651 123.711C275.921 123.309 276.285 123.001 276.743 122.787C277.209 122.563 277.737 122.451 278.325 122.451C278.903 122.451 279.407 122.553 279.837 122.759C280.266 122.964 280.625 123.225 280.915 123.543C281.213 123.86 281.447 124.191 281.615 124.537L280.271 125.293C280.149 125.05 279.995 124.826 279.809 124.621C279.622 124.406 279.403 124.238 279.151 124.117C278.908 123.986 278.623 123.921 278.297 123.921C277.839 123.921 277.503 124.028 277.289 124.243C277.074 124.448 276.967 124.691 276.967 124.971C276.967 125.223 277.041 125.451 277.191 125.657C277.349 125.853 277.592 126.039 277.919 126.217C278.245 126.394 278.67 126.576 279.193 126.763C279.482 126.865 279.771 126.996 280.061 127.155C280.359 127.313 280.63 127.514 280.873 127.757C281.115 127.99 281.307 128.265 281.447 128.583C281.596 128.9 281.671 129.273 281.671 129.703C281.671 130.16 281.582 130.571 281.405 130.935C281.227 131.299 280.985 131.607 280.677 131.859C280.369 132.101 280.019 132.288 279.627 132.419C279.244 132.559 278.843 132.629 278.423 132.629C277.844 132.629 277.307 132.517 276.813 132.293C276.327 132.059 275.903 131.751 275.539 131.369C275.175 130.986 274.885 130.571 274.671 130.123L275.903 129.269ZM284.824 127.925V126.399H291.81V127.925H284.824ZM290.746 122.619H292.398V132.419H290.746V122.619ZM284.166 122.619H285.818V132.419H284.166V122.619ZM296.574 127.519C296.574 128.191 296.714 128.793 296.994 129.325C297.284 129.847 297.68 130.258 298.184 130.557C298.688 130.855 299.262 131.005 299.906 131.005C300.56 131.005 301.134 130.855 301.628 130.557C302.132 130.258 302.524 129.847 302.804 129.325C303.094 128.793 303.238 128.191 303.238 127.519C303.238 126.847 303.098 126.249 302.818 125.727C302.538 125.195 302.146 124.779 301.642 124.481C301.148 124.182 300.569 124.033 299.906 124.033C299.262 124.033 298.688 124.182 298.184 124.481C297.68 124.779 297.284 125.195 296.994 125.727C296.714 126.249 296.574 126.847 296.574 127.519ZM294.824 127.519C294.824 126.781 294.95 126.105 295.202 125.489C295.454 124.873 295.809 124.341 296.266 123.893C296.733 123.435 297.274 123.081 297.89 122.829C298.516 122.577 299.188 122.451 299.906 122.451C300.644 122.451 301.32 122.577 301.936 122.829C302.552 123.081 303.089 123.435 303.546 123.893C304.013 124.341 304.372 124.873 304.624 125.489C304.876 126.105 305.002 126.781 305.002 127.519C305.002 128.247 304.876 128.923 304.624 129.549C304.372 130.174 304.018 130.715 303.56 131.173C303.103 131.63 302.562 131.989 301.936 132.251C301.32 132.503 300.644 132.629 299.906 132.629C299.178 132.629 298.502 132.503 297.876 132.251C297.251 131.989 296.71 131.63 296.252 131.173C295.804 130.715 295.454 130.174 295.202 129.549C294.95 128.923 294.824 128.247 294.824 127.519ZM307.409 122.619H309.061V132.419H307.409V122.619ZM308.389 124.075V122.619H310.363C311.072 122.619 311.688 122.745 312.211 122.997C312.743 123.239 313.153 123.589 313.443 124.047C313.732 124.495 313.877 125.031 313.877 125.657C313.877 126.282 313.732 126.823 313.443 127.281C313.153 127.738 312.743 128.093 312.211 128.345C311.688 128.587 311.072 128.709 310.363 128.709H308.389V127.253H310.363C310.932 127.253 311.389 127.117 311.735 126.847C312.08 126.576 312.253 126.179 312.253 125.657C312.253 125.134 312.08 124.742 311.735 124.481C311.389 124.21 310.932 124.075 310.363 124.075H308.389ZM328.454 122.619H330.078V132.909L322.924 125.839V132.419H321.3V122.129L328.454 129.199V122.619ZM334.241 127.519C334.241 128.191 334.381 128.793 334.661 129.325C334.95 129.847 335.347 130.258 335.851 130.557C336.355 130.855 336.929 131.005 337.573 131.005C338.226 131.005 338.8 130.855 339.295 130.557C339.799 130.258 340.191 129.847 340.471 129.325C340.76 128.793 340.905 128.191 340.905 127.519C340.905 126.847 340.765 126.249 340.485 125.727C340.205 125.195 339.813 124.779 339.309 124.481C338.814 124.182 338.236 124.033 337.573 124.033C336.929 124.033 336.355 124.182 335.851 124.481C335.347 124.779 334.95 125.195 334.661 125.727C334.381 126.249 334.241 126.847 334.241 127.519ZM332.491 127.519C332.491 126.781 332.617 126.105 332.869 125.489C333.121 124.873 333.476 124.341 333.933 123.893C334.4 123.435 334.941 123.081 335.557 122.829C336.182 122.577 336.854 122.451 337.573 122.451C338.31 122.451 338.987 122.577 339.603 122.829C340.219 123.081 340.756 123.435 341.213 123.893C341.68 124.341 342.039 124.873 342.291 125.489C342.543 126.105 342.669 126.781 342.669 127.519C342.669 128.247 342.543 128.923 342.291 129.549C342.039 130.174 341.684 130.715 341.227 131.173C340.77 131.63 340.228 131.989 339.603 132.251C338.987 132.503 338.31 132.629 337.573 132.629C336.845 132.629 336.168 132.503 335.543 132.251C334.918 131.989 334.376 131.63 333.919 131.173C333.471 130.715 333.121 130.174 332.869 129.549C332.617 128.923 332.491 128.247 332.491 127.519ZM353.514 129.185L355.81 122.619H357.728L353.724 132.937L350.7 126.007L347.676 132.937L343.672 122.619H345.59L347.914 129.185L350.7 122.129L353.514 129.185Z"
        fill="white" />
    <rect x="-41" y="1" width="306" height="180" />
    <defs>
        <linearGradient id="paint0_linear_2011_22740" x1="195" y1="0" x2="195" y2="191" gradientUnits="userSpaceOnUse">
            <stop stop-color="#B16278" />
            <stop offset="1" stop-color="#FF0000" />
        </linearGradient>
    </defs>
</svg>