<svg width="1846" height="64" viewBox="0 0 1846 64" fill="none" xmlns="http://www.w3.org/2000/svg">
<path d="M28 56C43.464 56 56 43.464 56 28C56 12.536 43.464 0 28 0C12.536 0 0 12.536 0 28C0 43.464 12.536 56 28 56Z" fill="white"/>
<path d="M28 55.5C43.1878 55.5 55.5 43.1878 55.5 28C55.5 12.8122 43.1878 0.5 28 0.5C12.8122 0.5 0.5 12.8122 0.5 28C0.5 43.1878 12.8122 55.5 28 55.5Z" stroke="#001325" stroke-opacity="0.08"/>
<path d="M30.7862 21.4826C30.9852 21.4805 31.1804 21.5379 31.3466 21.6476C31.5127 21.7572 31.6423 21.914 31.7186 22.0979C31.795 22.2817 31.8146 22.4842 31.7749 22.6793C31.7353 22.8744 31.6382 23.0532 31.4962 23.1926L26.6962 27.9826L31.4962 32.7726C31.5894 32.8685 31.6629 32.9818 31.7123 33.106C31.7618 33.2303 31.7863 33.3631 31.7844 33.4968C31.7826 33.6305 31.7544 33.7625 31.7015 33.8854C31.6486 34.0082 31.5721 34.1194 31.4762 34.2126C31.3803 34.3059 31.267 34.3793 31.1428 34.4288C31.0185 34.4782 30.8858 34.5027 30.752 34.5009C30.6183 34.499 30.4863 34.4708 30.3635 34.418C30.2406 34.3651 30.1294 34.2885 30.0362 34.1926L24.5362 28.6926C24.4427 28.5995 24.3685 28.4889 24.3179 28.3671C24.2673 28.2452 24.2412 28.1146 24.2412 27.9826C24.2412 27.8507 24.2673 27.7201 24.3179 27.5982C24.3685 27.4764 24.4427 27.3657 24.5362 27.2726L30.0362 21.7726C30.1343 21.675 30.2517 21.5989 30.3808 21.5489C30.5099 21.499 30.6479 21.4764 30.7862 21.4826Z" fill="#202020"/>
<g filter="url(#filter0_d_2204_18277)">
<path d="M1814 56C1829.46 56 1842 43.464 1842 28C1842 12.536 1829.46 0 1814 0C1798.54 0 1786 12.536 1786 28C1786 43.464 1798.54 56 1814 56Z" fill="white"/>
<path d="M1814 55.5C1829.19 55.5 1841.5 43.1878 1841.5 28C1841.5 12.8122 1829.19 0.5 1814 0.5C1798.81 0.5 1786.5 12.8122 1786.5 28C1786.5 43.1878 1798.81 55.5 1814 55.5Z" stroke="#001325" stroke-opacity="0.08"/>
<path d="M1811.25 34.5C1811.05 34.5022 1810.86 34.4447 1810.69 34.3351C1810.52 34.2255 1810.39 34.0686 1810.32 33.8848C1810.24 33.7009 1810.22 33.4984 1810.26 33.3034C1810.3 33.1083 1810.4 32.9295 1810.54 32.79L1815.34 28L1810.54 23.21C1810.45 23.1142 1810.37 23.0009 1810.32 22.8766C1810.27 22.7524 1810.25 22.6196 1810.25 22.4859C1810.25 22.3522 1810.28 22.2201 1810.33 22.0973C1810.39 21.9745 1810.46 21.8633 1810.56 21.77C1810.66 21.6768 1810.77 21.6033 1810.89 21.5539C1811.02 21.5044 1811.15 21.4799 1811.28 21.4818C1811.42 21.4836 1811.55 21.5118 1811.67 21.5647C1811.8 21.6176 1811.91 21.6942 1812 21.79L1817.5 27.29C1817.59 27.3831 1817.67 27.4938 1817.72 27.6156C1817.77 27.7374 1817.79 27.8681 1817.79 28C1817.79 28.132 1817.77 28.2626 1817.72 28.3844C1817.67 28.5063 1817.59 28.6169 1817.5 28.71L1812 34.21C1811.9 34.3076 1811.78 34.3838 1811.66 34.4337C1811.53 34.4836 1811.39 34.5062 1811.25 34.5Z" fill="#202020"/>
</g>
<defs>
<filter id="filter0_d_2204_18277" x="1782" y="0" width="64" height="64" filterUnits="userSpaceOnUse" color-interpolation-filters="sRGB">
<feFlood flood-opacity="0" result="BackgroundImageFix"/>
<feColorMatrix in="SourceAlpha" type="matrix" values="0 0 0 0 0 0 0 0 0 0 0 0 0 0 0 0 0 0 127 0" result="hardAlpha"/>
<feOffset dy="4"/>
<feGaussianBlur stdDeviation="2"/>
<feComposite in2="hardAlpha" operator="out"/>
<feColorMatrix type="matrix" values="0 0 0 0 0 0 0 0 0 0 0 0 0 0 0 0 0 0 0.25 0"/>
<feBlend mode="normal" in2="BackgroundImageFix" result="effect1_dropShadow_2204_18277"/>
<feBlend mode="normal" in="SourceGraphic" in2="effect1_dropShadow_2204_18277" result="shape"/>
</filter>
</defs>
</svg>
