<svg width="56" height="56" viewBox="0 0 56 56" fill="none" xmlns="http://www.w3.org/2000/svg">
<path d="M28 56C43.464 56 56 43.464 56 28C56 12.536 43.464 0 28 0C12.536 0 0 12.536 0 28C0 43.464 12.536 56 28 56Z" fill="white"/>
<path d="M28 55.5C43.1878 55.5 55.5 43.1878 55.5 28C55.5 12.8122 43.1878 0.5 28 0.5C12.8122 0.5 0.5 12.8122 0.5 28C0.5 43.1878 12.8122 55.5 28 55.5Z" stroke="#001325" stroke-opacity="0.08"/>
<path d="M30.7862 21.4826C30.9852 21.4805 31.1804 21.5379 31.3466 21.6476C31.5127 21.7572 31.6423 21.914 31.7186 22.0979C31.795 22.2817 31.8146 22.4842 31.7749 22.6793C31.7353 22.8744 31.6382 23.0532 31.4962 23.1926L26.6962 27.9826L31.4962 32.7726C31.5894 32.8685 31.6629 32.9818 31.7123 33.106C31.7618 33.2303 31.7863 33.3631 31.7844 33.4968C31.7826 33.6305 31.7544 33.7625 31.7015 33.8854C31.6486 34.0082 31.5721 34.1194 31.4762 34.2126C31.3803 34.3059 31.267 34.3793 31.1428 34.4288C31.0185 34.4782 30.8858 34.5027 30.752 34.5009C30.6183 34.499 30.4863 34.4708 30.3635 34.418C30.2406 34.3651 30.1294 34.2885 30.0362 34.1926L24.5362 28.6926C24.4427 28.5995 24.3685 28.4889 24.3179 28.3671C24.2673 28.2452 24.2412 28.1146 24.2412 27.9826C24.2412 27.8507 24.2673 27.7201 24.3179 27.5982C24.3685 27.4764 24.4427 27.3657 24.5362 27.2726L30.0362 21.7726C30.1343 21.675 30.2517 21.5989 30.3808 21.5489C30.5099 21.499 30.6479 21.4764 30.7862 21.4826Z" fill="#202020"/>
</svg>
