<svg width="1920" height="693" viewBox="0 0 1920 693" fill="none" xmlns="http://www.w3.org/2000/svg">
<rect width="652.267" height="693" fill="#F1DBC7" fill-opacity="0.55"/>
<path d="M153.646 248V243.644H166.354V248H153.646ZM153.646 227.156V222.8H166.354V227.156H153.646ZM153.646 236.768V232.484H165.634V236.768H153.646ZM150.334 222.8H155.302V248H150.334V222.8ZM181.687 237.92C181.687 236.816 181.471 235.976 181.039 235.4C180.607 234.824 179.911 234.536 178.951 234.536C178.303 234.536 177.727 234.68 177.223 234.968C176.719 235.232 176.335 235.616 176.071 236.12C175.807 236.624 175.675 237.224 175.675 237.92V248H170.995V231.44H175.675V233.96C176.179 233.024 176.839 232.316 177.655 231.836C178.495 231.332 179.503 231.08 180.679 231.08C182.647 231.08 184.111 231.644 185.071 232.772C186.031 233.876 186.511 235.424 186.511 237.416V248H181.687V237.92ZM190.601 225.032C190.601 224.264 190.877 223.64 191.429 223.16C191.981 222.656 192.641 222.404 193.409 222.404C194.177 222.404 194.825 222.656 195.353 223.16C195.905 223.64 196.181 224.264 196.181 225.032C196.181 225.776 195.905 226.4 195.353 226.904C194.825 227.408 194.177 227.66 193.409 227.66C192.641 227.66 191.981 227.408 191.429 226.904C190.877 226.4 190.601 225.776 190.601 225.032ZM187.793 251.204C188.009 251.468 188.261 251.684 188.549 251.852C188.813 252.02 189.125 252.104 189.485 252.104C189.869 252.104 190.193 252.008 190.457 251.816C190.721 251.624 190.913 251.324 191.033 250.916C191.153 250.532 191.213 250.028 191.213 249.404V231.44H195.713V250.484C195.713 251.66 195.497 252.692 195.065 253.58C194.633 254.468 193.985 255.152 193.121 255.632C192.257 256.136 191.189 256.388 189.917 256.388C189.221 256.388 188.621 256.304 188.117 256.136C187.589 255.968 187.145 255.752 186.785 255.488C186.401 255.224 186.065 254.96 185.777 254.696L187.793 251.204ZM199.516 239.72C199.516 237.992 199.912 236.48 200.704 235.184C201.52 233.888 202.612 232.88 203.98 232.16C205.372 231.44 206.944 231.08 208.696 231.08C210.448 231.08 212.008 231.44 213.376 232.16C214.768 232.88 215.86 233.888 216.652 235.184C217.468 236.48 217.876 237.992 217.876 239.72C217.876 241.424 217.468 242.936 216.652 244.256C215.86 245.552 214.768 246.56 213.376 247.28C212.008 248 210.448 248.36 208.696 248.36C206.944 248.36 205.372 248 203.98 247.28C202.612 246.56 201.52 245.552 200.704 244.256C199.912 242.936 199.516 241.424 199.516 239.72ZM204.268 239.72C204.268 240.656 204.46 241.484 204.844 242.204C205.252 242.9 205.792 243.452 206.464 243.86C207.136 244.244 207.88 244.436 208.696 244.436C209.512 244.436 210.256 244.244 210.928 243.86C211.6 243.452 212.128 242.9 212.512 242.204C212.92 241.484 213.124 240.656 213.124 239.72C213.124 238.784 212.92 237.956 212.512 237.236C212.128 236.516 211.6 235.964 210.928 235.58C210.256 235.196 209.512 235.004 208.696 235.004C207.88 235.004 207.136 235.196 206.464 235.58C205.792 235.964 205.252 236.516 204.844 237.236C204.46 237.956 204.268 238.784 204.268 239.72ZM236.615 231.44L225.815 255.92H221.027L225.203 246.344L218.327 231.44H223.511L228.839 244.616L226.535 244.544L231.755 231.44H236.615ZM256.843 235.724V233.24C257.587 233.24 258.247 233.144 258.823 232.952C259.423 232.76 259.927 232.496 260.335 232.16C260.743 231.8 261.055 231.404 261.271 230.972C261.511 230.516 261.631 230.048 261.631 229.568C261.631 228.968 261.511 228.44 261.271 227.984C261.031 227.528 260.683 227.18 260.227 226.94C259.771 226.7 259.183 226.58 258.463 226.58C257.455 226.58 256.603 226.892 255.907 227.516C255.235 228.116 254.899 228.884 254.899 229.82H250.111C250.111 228.38 250.459 227.108 251.155 226.004C251.875 224.876 252.859 223.988 254.107 223.34C255.355 222.692 256.807 222.368 258.463 222.368C260.215 222.368 261.703 222.68 262.927 223.304C264.175 223.928 265.123 224.756 265.771 225.788C266.419 226.82 266.743 227.972 266.743 229.244C266.743 230.612 266.311 231.788 265.447 232.772C264.583 233.732 263.407 234.464 261.919 234.968C260.431 235.472 258.739 235.724 256.843 235.724ZM258.247 248.504C256.807 248.504 255.523 248.288 254.395 247.856C253.267 247.424 252.307 246.836 251.515 246.092C250.723 245.324 250.111 244.46 249.679 243.5C249.247 242.516 249.031 241.484 249.031 240.404H254.143C254.143 241.22 254.335 241.916 254.719 242.492C255.103 243.068 255.619 243.512 256.267 243.824C256.915 244.112 257.623 244.256 258.391 244.256C259.183 244.256 259.867 244.124 260.443 243.86C261.043 243.572 261.511 243.164 261.847 242.636C262.183 242.108 262.351 241.448 262.351 240.656C262.351 240.08 262.231 239.552 261.991 239.072C261.751 238.568 261.391 238.148 260.911 237.812C260.455 237.476 259.879 237.224 259.183 237.056C258.511 236.864 257.731 236.768 256.843 236.768V234.032C258.379 234.032 259.783 234.164 261.055 234.428C262.351 234.692 263.479 235.124 264.439 235.724C265.399 236.3 266.143 237.044 266.671 237.956C267.199 238.844 267.463 239.924 267.463 241.196C267.463 242.636 267.079 243.908 266.311 245.012C265.567 246.116 264.499 246.98 263.107 247.604C261.739 248.204 260.119 248.504 258.247 248.504ZM278.324 235.724V233.24C279.068 233.24 279.728 233.144 280.304 232.952C280.904 232.76 281.408 232.496 281.816 232.16C282.224 231.8 282.536 231.404 282.752 230.972C282.992 230.516 283.112 230.048 283.112 229.568C283.112 228.968 282.992 228.44 282.752 227.984C282.512 227.528 282.164 227.18 281.708 226.94C281.252 226.7 280.664 226.58 279.944 226.58C278.936 226.58 278.084 226.892 277.388 227.516C276.716 228.116 276.38 228.884 276.38 229.82H271.592C271.592 228.38 271.94 227.108 272.636 226.004C273.356 224.876 274.34 223.988 275.588 223.34C276.836 222.692 278.288 222.368 279.944 222.368C281.696 222.368 283.184 222.68 284.408 223.304C285.656 223.928 286.604 224.756 287.252 225.788C287.9 226.82 288.224 227.972 288.224 229.244C288.224 230.612 287.792 231.788 286.928 232.772C286.064 233.732 284.888 234.464 283.4 234.968C281.912 235.472 280.22 235.724 278.324 235.724ZM279.728 248.504C278.288 248.504 277.004 248.288 275.876 247.856C274.748 247.424 273.788 246.836 272.996 246.092C272.204 245.324 271.592 244.46 271.16 243.5C270.728 242.516 270.512 241.484 270.512 240.404H275.624C275.624 241.22 275.816 241.916 276.2 242.492C276.584 243.068 277.1 243.512 277.748 243.824C278.396 244.112 279.104 244.256 279.872 244.256C280.664 244.256 281.348 244.124 281.924 243.86C282.524 243.572 282.992 243.164 283.328 242.636C283.664 242.108 283.832 241.448 283.832 240.656C283.832 240.08 283.712 239.552 283.472 239.072C283.232 238.568 282.872 238.148 282.392 237.812C281.936 237.476 281.36 237.224 280.664 237.056C279.992 236.864 279.212 236.768 278.324 236.768V234.032C279.86 234.032 281.264 234.164 282.536 234.428C283.832 234.692 284.96 235.124 285.92 235.724C286.88 236.3 287.624 237.044 288.152 237.956C288.68 238.844 288.944 239.924 288.944 241.196C288.944 242.636 288.56 243.908 287.792 245.012C287.048 246.116 285.98 246.98 284.588 247.604C283.22 248.204 281.6 248.504 279.728 248.504ZM291.092 228.596C291.092 227.396 291.368 226.316 291.92 225.356C292.496 224.396 293.276 223.64 294.26 223.088C295.244 222.512 296.348 222.224 297.572 222.224C298.82 222.224 299.924 222.512 300.884 223.088C301.868 223.64 302.636 224.396 303.188 225.356C303.74 226.316 304.016 227.396 304.016 228.596C304.016 229.748 303.74 230.816 303.188 231.8C302.636 232.76 301.868 233.528 300.884 234.104C299.924 234.68 298.82 234.968 297.572 234.968C296.348 234.968 295.244 234.68 294.26 234.104C293.276 233.528 292.496 232.76 291.92 231.8C291.368 230.816 291.092 229.748 291.092 228.596ZM294.98 228.596C294.98 229.076 295.088 229.532 295.304 229.964C295.52 230.372 295.82 230.696 296.204 230.936C296.588 231.176 297.044 231.296 297.572 231.296C298.1 231.296 298.544 231.176 298.904 230.936C299.288 230.696 299.588 230.372 299.804 229.964C300.02 229.532 300.128 229.076 300.128 228.596C300.128 228.092 300.02 227.636 299.804 227.228C299.588 226.82 299.288 226.496 298.904 226.256C298.544 225.992 298.1 225.86 297.572 225.86C297.044 225.86 296.588 225.992 296.204 226.256C295.82 226.496 295.52 226.82 295.304 227.228C295.088 227.636 294.98 228.092 294.98 228.596ZM307.472 242.204C307.472 241.028 307.748 239.96 308.3 239C308.876 238.016 309.656 237.248 310.64 236.696C311.624 236.12 312.728 235.832 313.952 235.832C315.2 235.832 316.304 236.12 317.264 236.696C318.248 237.248 319.016 238.016 319.568 239C320.12 239.96 320.396 241.028 320.396 242.204C320.396 243.38 320.12 244.448 319.568 245.408C319.016 246.368 318.248 247.136 317.264 247.712C316.304 248.288 315.2 248.576 313.952 248.576C312.728 248.576 311.624 248.288 310.64 247.712C309.656 247.136 308.876 246.368 308.3 245.408C307.748 244.448 307.472 243.38 307.472 242.204ZM311.36 242.204C311.36 242.684 311.468 243.14 311.684 243.572C311.9 243.98 312.2 244.304 312.584 244.544C312.968 244.784 313.424 244.904 313.952 244.904C314.48 244.904 314.924 244.784 315.284 244.544C315.668 244.304 315.968 243.98 316.184 243.572C316.4 243.14 316.508 242.684 316.508 242.204C316.508 241.7 316.4 241.244 316.184 240.836C315.968 240.428 315.668 240.104 315.284 239.864C314.924 239.624 314.48 239.504 313.952 239.504C313.424 239.504 312.968 239.624 312.584 239.864C312.2 240.104 311.9 240.428 311.684 240.836C311.468 241.244 311.36 241.7 311.36 242.204ZM312.584 222.8H317.3L298.94 248H294.224L312.584 222.8ZM333.356 239.72C333.356 237.992 333.752 236.48 334.544 235.184C335.36 233.888 336.452 232.88 337.82 232.16C339.212 231.44 340.784 231.08 342.536 231.08C344.288 231.08 345.848 231.44 347.216 232.16C348.608 232.88 349.7 233.888 350.492 235.184C351.308 236.48 351.716 237.992 351.716 239.72C351.716 241.424 351.308 242.936 350.492 244.256C349.7 245.552 348.608 246.56 347.216 247.28C345.848 248 344.288 248.36 342.536 248.36C340.784 248.36 339.212 248 337.82 247.28C336.452 246.56 335.36 245.552 334.544 244.256C333.752 242.936 333.356 241.424 333.356 239.72ZM338.108 239.72C338.108 240.656 338.3 241.484 338.684 242.204C339.092 242.9 339.632 243.452 340.304 243.86C340.976 244.244 341.72 244.436 342.536 244.436C343.352 244.436 344.096 244.244 344.768 243.86C345.44 243.452 345.968 242.9 346.352 242.204C346.76 241.484 346.964 240.656 346.964 239.72C346.964 238.784 346.76 237.956 346.352 237.236C345.968 236.516 345.44 235.964 344.768 235.58C344.096 235.196 343.352 235.004 342.536 235.004C341.72 235.004 340.976 235.196 340.304 235.58C339.632 235.964 339.092 236.516 338.684 237.236C338.3 237.956 338.108 238.784 338.108 239.72ZM353.81 231.44H364.178V235.364H353.81V231.44ZM363.674 224.6C363.434 224.24 363.158 224 362.846 223.88C362.558 223.736 362.27 223.664 361.982 223.664C361.622 223.664 361.31 223.76 361.046 223.952C360.806 224.12 360.614 224.408 360.47 224.816C360.326 225.224 360.254 225.74 360.254 226.364V248H355.754V225.32C355.754 224.048 355.97 222.98 356.402 222.116C356.834 221.252 357.482 220.592 358.346 220.136C359.21 219.656 360.266 219.416 361.514 219.416C362.258 219.416 362.894 219.512 363.422 219.704C363.95 219.872 364.394 220.088 364.754 220.352C365.138 220.616 365.438 220.868 365.654 221.108L363.674 224.6ZM365.552 231.44H375.92V235.364H365.552V231.44ZM375.416 224.6C375.176 224.24 374.9 224 374.588 223.88C374.3 223.736 374.012 223.664 373.724 223.664C373.364 223.664 373.052 223.76 372.788 223.952C372.548 224.12 372.356 224.408 372.212 224.816C372.068 225.224 371.996 225.74 371.996 226.364V248H367.496V225.32C367.496 224.048 367.712 222.98 368.144 222.116C368.576 221.252 369.224 220.592 370.088 220.136C370.952 219.656 372.008 219.416 373.256 219.416C374 219.416 374.636 219.512 375.164 219.704C375.692 219.872 376.136 220.088 376.496 220.352C376.88 220.616 377.18 220.868 377.396 221.108L375.416 224.6ZM387.368 231.44H397.592V235.364H387.368V231.44ZM390.212 225.68H394.712V248H390.212V225.68ZM404.754 219.92V248H400.074V219.92H404.754ZM410.766 237.92C410.766 236.816 410.55 235.976 410.118 235.4C409.71 234.824 409.014 234.536 408.03 234.536C407.382 234.536 406.806 234.68 406.302 234.968C405.798 235.232 405.414 235.616 405.15 236.12C404.886 236.624 404.754 237.224 404.754 237.92H403.818C403.818 236.6 404.034 235.412 404.466 234.356C404.922 233.3 405.594 232.46 406.482 231.836C407.37 231.212 408.462 230.9 409.758 230.9C411.054 230.9 412.122 231.14 412.962 231.62C413.802 232.1 414.426 232.82 414.834 233.78C415.242 234.716 415.446 235.868 415.446 237.236V248H410.766V237.92ZM427.854 248.36C426.054 248.36 424.482 248 423.138 247.28C421.794 246.56 420.75 245.564 420.006 244.292C419.286 242.996 418.926 241.472 418.926 239.72C418.926 237.944 419.286 236.42 420.006 235.148C420.75 233.852 421.794 232.856 423.138 232.16C424.482 231.44 426.066 231.08 427.89 231.08C429.714 231.08 431.262 231.416 432.534 232.088C433.83 232.736 434.814 233.696 435.486 234.968C436.158 236.216 436.494 237.728 436.494 239.504C436.494 239.72 436.482 239.948 436.458 240.188C436.458 240.428 436.446 240.62 436.422 240.764H421.59V237.884H432.354L431.094 239.54C431.19 239.396 431.274 239.204 431.346 238.964C431.442 238.7 431.49 238.484 431.49 238.316C431.49 237.5 431.334 236.804 431.022 236.228C430.734 235.652 430.314 235.196 429.762 234.86C429.21 234.524 428.562 234.356 427.818 234.356C426.906 234.356 426.138 234.56 425.514 234.968C424.914 235.352 424.446 235.94 424.11 236.732C423.798 237.5 423.63 238.46 423.606 239.612C423.606 240.716 423.762 241.652 424.074 242.42C424.41 243.188 424.902 243.776 425.55 244.184C426.198 244.592 426.978 244.796 427.89 244.796C428.922 244.796 429.798 244.604 430.518 244.22C431.262 243.812 431.874 243.212 432.354 242.42L436.422 243.68C435.558 245.24 434.406 246.416 432.966 247.208C431.55 247.976 429.846 248.36 427.854 248.36ZM458.616 248.36C456.816 248.36 455.244 248 453.9 247.28C452.556 246.56 451.512 245.564 450.768 244.292C450.048 242.996 449.688 241.472 449.688 239.72C449.688 237.944 450.048 236.42 450.768 235.148C451.512 233.852 452.556 232.856 453.9 232.16C455.244 231.44 456.828 231.08 458.652 231.08C460.476 231.08 462.024 231.416 463.296 232.088C464.592 232.736 465.576 233.696 466.248 234.968C466.92 236.216 467.256 237.728 467.256 239.504C467.256 239.72 467.244 239.948 467.22 240.188C467.22 240.428 467.208 240.62 467.184 240.764H452.352V237.884H463.116L461.856 239.54C461.952 239.396 462.036 239.204 462.108 238.964C462.204 238.7 462.252 238.484 462.252 238.316C462.252 237.5 462.096 236.804 461.784 236.228C461.496 235.652 461.076 235.196 460.524 234.86C459.972 234.524 459.324 234.356 458.58 234.356C457.668 234.356 456.9 234.56 456.276 234.968C455.676 235.352 455.208 235.94 454.872 236.732C454.56 237.5 454.392 238.46 454.368 239.612C454.368 240.716 454.524 241.652 454.836 242.42C455.172 243.188 455.664 243.776 456.312 244.184C456.96 244.592 457.74 244.796 458.652 244.796C459.684 244.796 460.56 244.604 461.28 244.22C462.024 243.812 462.636 243.212 463.116 242.42L467.184 243.68C466.32 245.24 465.168 246.416 463.728 247.208C462.312 247.976 460.608 248.36 458.616 248.36ZM481.465 237.92C481.465 236.816 481.249 235.976 480.817 235.4C480.385 234.824 479.689 234.536 478.729 234.536C478.081 234.536 477.505 234.68 477.001 234.968C476.497 235.232 476.113 235.616 475.849 236.12C475.585 236.624 475.453 237.224 475.453 237.92V248H470.773V231.44H475.453V233.96C475.957 233.024 476.617 232.316 477.433 231.836C478.273 231.332 479.281 231.08 480.457 231.08C482.425 231.08 483.889 231.644 484.849 232.772C485.809 233.876 486.289 235.424 486.289 237.416V248H481.465V237.92ZM488.758 231.44H498.982V235.364H488.758V231.44ZM491.602 225.68H496.102V248H491.602V225.68ZM501.248 225.032C501.248 224.264 501.524 223.64 502.076 223.16C502.628 222.656 503.288 222.404 504.056 222.404C504.824 222.404 505.472 222.656 506 223.16C506.552 223.64 506.828 224.264 506.828 225.032C506.828 225.776 506.552 226.4 506 226.904C505.472 227.408 504.824 227.66 504.056 227.66C503.288 227.66 502.628 227.408 502.076 226.904C501.524 226.4 501.248 225.776 501.248 225.032ZM501.752 231.44H506.288V248H501.752V231.44ZM515.81 231.44V248H511.238V231.44H515.81ZM520.67 236.3C520.358 236.012 520.034 235.796 519.698 235.652C519.386 235.484 518.99 235.4 518.51 235.4C517.934 235.4 517.442 235.556 517.034 235.868C516.626 236.18 516.314 236.624 516.098 237.2C515.906 237.752 515.81 238.424 515.81 239.216L514.514 237.92C514.514 236.6 514.766 235.436 515.27 234.428C515.774 233.396 516.434 232.58 517.25 231.98C518.066 231.356 518.906 231.044 519.77 231.044C520.37 231.044 520.934 231.152 521.462 231.368C522.014 231.584 522.458 231.908 522.794 232.34L520.67 236.3ZM532.55 248.36C530.75 248.36 529.178 248 527.834 247.28C526.49 246.56 525.446 245.564 524.702 244.292C523.982 242.996 523.622 241.472 523.622 239.72C523.622 237.944 523.982 236.42 524.702 235.148C525.446 233.852 526.49 232.856 527.834 232.16C529.178 231.44 530.762 231.08 532.586 231.08C534.41 231.08 535.958 231.416 537.23 232.088C538.526 232.736 539.51 233.696 540.182 234.968C540.854 236.216 541.19 237.728 541.19 239.504C541.19 239.72 541.178 239.948 541.154 240.188C541.154 240.428 541.142 240.62 541.118 240.764H526.286V237.884H537.05L535.79 239.54C535.886 239.396 535.97 239.204 536.042 238.964C536.138 238.7 536.186 238.484 536.186 238.316C536.186 237.5 536.03 236.804 535.718 236.228C535.43 235.652 535.01 235.196 534.458 234.86C533.906 234.524 533.258 234.356 532.514 234.356C531.602 234.356 530.834 234.56 530.21 234.968C529.61 235.352 529.142 235.94 528.806 236.732C528.494 237.5 528.326 238.46 528.302 239.612C528.302 240.716 528.458 241.652 528.77 242.42C529.106 243.188 529.598 243.776 530.246 244.184C530.894 244.592 531.674 244.796 532.586 244.796C533.618 244.796 534.494 244.604 535.214 244.22C535.958 243.812 536.57 243.212 537.05 242.42L541.118 243.68C540.254 245.24 539.102 246.416 537.662 247.208C536.246 247.976 534.542 248.36 532.55 248.36ZM214.201 295.4C214.201 297.008 214.537 298.436 215.209 299.684C215.881 300.932 216.805 301.916 217.981 302.636C219.157 303.356 220.525 303.716 222.085 303.716C223.645 303.716 225.013 303.356 226.189 302.636C227.365 301.916 228.277 300.932 228.925 299.684C229.597 298.436 229.933 297.008 229.933 295.4C229.933 293.792 229.609 292.364 228.961 291.116C228.313 289.868 227.401 288.884 226.225 288.164C225.049 287.444 223.669 287.084 222.085 287.084C220.525 287.084 219.157 287.444 217.981 288.164C216.805 288.884 215.881 289.868 215.209 291.116C214.537 292.364 214.201 293.792 214.201 295.4ZM208.765 295.4C208.765 293.48 209.101 291.728 209.773 290.144C210.445 288.536 211.381 287.144 212.581 285.968C213.781 284.792 215.185 283.892 216.793 283.268C218.425 282.62 220.189 282.296 222.085 282.296C224.005 282.296 225.769 282.62 227.377 283.268C228.985 283.892 230.389 284.792 231.589 285.968C232.813 287.144 233.749 288.536 234.397 290.144C235.069 291.728 235.405 293.48 235.405 295.4C235.405 297.296 235.069 299.06 234.397 300.692C233.749 302.3 232.825 303.704 231.625 304.904C230.449 306.104 229.045 307.04 227.413 307.712C225.805 308.36 224.029 308.684 222.085 308.684C220.141 308.684 218.353 308.36 216.721 307.712C215.113 307.04 213.709 306.104 212.509 304.904C211.309 303.704 210.385 302.3 209.737 300.692C209.089 299.06 208.765 297.296 208.765 295.4ZM239.384 282.8H244.532V303.5H254.576V308H239.384V282.8ZM262.107 302.276L262.719 298.208H274.815L275.427 302.276H262.107ZM268.695 290.972L264.915 299.648L265.023 300.8L261.711 308H255.915L268.695 281.324L281.475 308H275.643L272.403 301.016L272.475 299.72L268.695 290.972ZM284.209 282.8H289.357V308H284.209V282.8ZM287.341 287.156V282.8H292.345C294.337 282.8 296.029 283.124 297.421 283.772C298.837 284.42 299.917 285.344 300.661 286.544C301.405 287.744 301.777 289.172 301.777 290.828C301.777 292.46 301.405 293.888 300.661 295.112C299.917 296.312 298.837 297.236 297.421 297.884C296.029 298.532 294.337 298.856 292.345 298.856H287.341V294.5H292.345C293.713 294.5 294.793 294.188 295.585 293.564C296.377 292.94 296.773 292.028 296.773 290.828C296.773 289.604 296.377 288.692 295.585 288.092C294.793 287.468 293.713 287.156 292.345 287.156H287.341ZM305.759 282.8H310.907V303.5H320.951V308H305.759V282.8ZM327.212 308V303.644H339.92V308H327.212ZM327.212 287.156V282.8H339.92V287.156H327.212ZM327.212 296.768V292.484H339.2V296.768H327.212ZM323.9 282.8H328.868V308H323.9V282.8ZM358.422 282.8H364.722L356.982 295.004L365.262 308H358.962L353.958 298.964L348.774 308H342.474L350.97 295.004L343.374 282.8H349.674L353.994 290.72L358.422 282.8ZM383.13 291.44V308H378.558V291.44H383.13ZM387.99 296.3C387.678 296.012 387.354 295.796 387.018 295.652C386.706 295.484 386.31 295.4 385.83 295.4C385.254 295.4 384.762 295.556 384.354 295.868C383.946 296.18 383.634 296.624 383.418 297.2C383.226 297.752 383.13 298.424 383.13 299.216L381.834 297.92C381.834 296.6 382.086 295.436 382.59 294.428C383.094 293.396 383.754 292.58 384.57 291.98C385.386 291.356 386.226 291.044 387.09 291.044C387.69 291.044 388.254 291.152 388.782 291.368C389.334 291.584 389.778 291.908 390.114 292.34L387.99 296.3ZM395.897 302.852C395.897 303.332 396.017 303.752 396.257 304.112C396.497 304.448 396.821 304.712 397.229 304.904C397.661 305.072 398.129 305.156 398.633 305.156C399.353 305.156 400.001 305.012 400.577 304.724C401.153 304.412 401.621 303.98 401.981 303.428C402.341 302.852 402.521 302.168 402.521 301.376L403.097 303.536C403.097 304.592 402.797 305.48 402.197 306.2C401.621 306.92 400.865 307.46 399.929 307.82C399.017 308.18 398.057 308.36 397.049 308.36C396.017 308.36 395.057 308.156 394.169 307.748C393.281 307.34 392.561 306.752 392.009 305.984C391.481 305.192 391.217 304.232 391.217 303.104C391.217 301.496 391.781 300.224 392.909 299.288C394.037 298.352 395.633 297.884 397.697 297.884C398.753 297.884 399.677 297.992 400.469 298.208C401.285 298.424 401.969 298.688 402.521 299C403.073 299.312 403.469 299.612 403.709 299.9V302.06C403.061 301.58 402.329 301.22 401.513 300.98C400.721 300.74 399.881 300.62 398.993 300.62C398.273 300.62 397.685 300.716 397.229 300.908C396.773 301.076 396.437 301.328 396.221 301.664C396.005 301.976 395.897 302.372 395.897 302.852ZM394.097 296.12L392.369 292.952C393.233 292.496 394.289 292.064 395.537 291.656C396.785 291.224 398.177 291.008 399.713 291.008C401.129 291.008 402.389 291.212 403.493 291.62C404.597 292.028 405.461 292.628 406.085 293.42C406.709 294.188 407.021 295.136 407.021 296.264V308H402.521V297.236C402.521 296.78 402.449 296.396 402.305 296.084C402.161 295.748 401.933 295.472 401.621 295.256C401.333 295.04 400.985 294.884 400.577 294.788C400.169 294.692 399.713 294.644 399.209 294.644C398.441 294.644 397.709 294.728 397.013 294.896C396.317 295.064 395.717 295.268 395.213 295.508C394.709 295.748 394.337 295.952 394.097 296.12ZM422.051 297.92C422.051 296.816 421.835 295.976 421.403 295.4C420.971 294.824 420.275 294.536 419.315 294.536C418.667 294.536 418.091 294.68 417.587 294.968C417.083 295.232 416.699 295.616 416.435 296.12C416.171 296.624 416.039 297.224 416.039 297.92V308H411.359V291.44H416.039V293.96C416.543 293.024 417.203 292.316 418.019 291.836C418.859 291.332 419.867 291.08 421.043 291.08C423.011 291.08 424.475 291.644 425.435 292.772C426.395 293.876 426.875 295.424 426.875 297.416V308H422.051V297.92ZM430.676 309.152H435.248C435.272 309.872 435.464 310.484 435.824 310.988C436.184 311.516 436.676 311.924 437.3 312.212C437.924 312.5 438.656 312.644 439.496 312.644C440.264 312.644 440.984 312.464 441.656 312.104C442.352 311.744 442.904 311.192 443.312 310.448C443.744 309.704 443.96 308.768 443.96 307.64V291.44H448.46V307.64C448.46 309.68 448.052 311.36 447.236 312.68C446.444 314 445.376 314.96 444.032 315.56C442.688 316.184 441.224 316.496 439.64 316.496C437.72 316.496 436.112 316.184 434.816 315.56C433.52 314.96 432.524 314.096 431.828 312.968C431.156 311.864 430.772 310.592 430.676 309.152ZM430.352 299.576C430.352 297.728 430.724 296.18 431.468 294.932C432.212 293.66 433.196 292.7 434.42 292.052C435.644 291.404 436.94 291.08 438.308 291.08C439.7 291.08 440.924 291.416 441.98 292.088C443.06 292.76 443.9 293.732 444.5 295.004C445.124 296.252 445.436 297.776 445.436 299.576C445.436 301.352 445.124 302.876 444.5 304.148C443.9 305.42 443.06 306.392 441.98 307.064C440.924 307.712 439.7 308.036 438.308 308.036C436.94 308.036 435.644 307.712 434.42 307.064C433.196 306.416 432.212 305.468 431.468 304.22C430.724 302.948 430.352 301.4 430.352 299.576ZM435.176 299.576C435.176 300.56 435.38 301.4 435.788 302.096C436.196 302.768 436.748 303.284 437.444 303.644C438.14 304.004 438.884 304.184 439.676 304.184C440.372 304.184 441.044 304.016 441.692 303.68C442.364 303.32 442.904 302.804 443.312 302.132C443.744 301.436 443.96 300.584 443.96 299.576C443.96 298.808 443.84 298.136 443.6 297.56C443.36 296.984 443.024 296.504 442.592 296.12C442.184 295.736 441.728 295.448 441.224 295.256C440.72 295.04 440.204 294.932 439.676 294.932C438.884 294.932 438.14 295.112 437.444 295.472C436.748 295.832 436.196 296.36 435.788 297.056C435.38 297.728 435.176 298.568 435.176 299.576ZM460.796 308.36C458.996 308.36 457.424 308 456.08 307.28C454.736 306.56 453.692 305.564 452.948 304.292C452.228 302.996 451.868 301.472 451.868 299.72C451.868 297.944 452.228 296.42 452.948 295.148C453.692 293.852 454.736 292.856 456.08 292.16C457.424 291.44 459.008 291.08 460.832 291.08C462.656 291.08 464.204 291.416 465.476 292.088C466.772 292.736 467.756 293.696 468.428 294.968C469.1 296.216 469.436 297.728 469.436 299.504C469.436 299.72 469.424 299.948 469.4 300.188C469.4 300.428 469.388 300.62 469.364 300.764H454.532V297.884H465.296L464.036 299.54C464.132 299.396 464.216 299.204 464.288 298.964C464.384 298.7 464.432 298.484 464.432 298.316C464.432 297.5 464.276 296.804 463.964 296.228C463.676 295.652 463.256 295.196 462.704 294.86C462.152 294.524 461.504 294.356 460.76 294.356C459.848 294.356 459.08 294.56 458.456 294.968C457.856 295.352 457.388 295.94 457.052 296.732C456.74 297.5 456.572 298.46 456.548 299.612C456.548 300.716 456.704 301.652 457.016 302.42C457.352 303.188 457.844 303.776 458.492 304.184C459.14 304.592 459.92 304.796 460.832 304.796C461.864 304.796 462.74 304.604 463.46 304.22C464.204 303.812 464.816 303.212 465.296 302.42L469.364 303.68C468.5 305.24 467.348 306.416 465.908 307.208C464.492 307.976 462.788 308.36 460.796 308.36ZM473.708 282.8H479.468L478.424 300.044H474.752L473.708 282.8ZM473.636 306.02C473.636 305.228 473.912 304.58 474.464 304.076C475.04 303.548 475.748 303.284 476.588 303.284C477.452 303.284 478.16 303.548 478.712 304.076C479.264 304.58 479.54 305.228 479.54 306.02C479.54 306.812 479.264 307.472 478.712 308C478.16 308.504 477.452 308.756 476.588 308.756C475.748 308.756 475.04 308.504 474.464 308C473.912 307.472 473.636 306.812 473.636 306.02Z" fill="black"/>
<path d="M159.597 365V351H161.757V365H159.597ZM160.557 359.04V356.96H167.777V359.04H160.557ZM160.557 353.08V351H168.677V353.08H160.557ZM170.932 365V354.5H173.012V357.8L172.812 357C172.959 356.493 173.206 356.033 173.552 355.62C173.912 355.207 174.319 354.88 174.772 354.64C175.239 354.4 175.719 354.28 176.212 354.28C176.439 354.28 176.652 354.3 176.852 354.34C177.066 354.38 177.232 354.427 177.352 354.48L176.812 356.72C176.652 356.653 176.472 356.6 176.272 356.56C176.086 356.507 175.899 356.48 175.712 356.48C175.352 356.48 175.006 356.553 174.672 356.7C174.352 356.833 174.066 357.027 173.812 357.28C173.572 357.52 173.379 357.807 173.232 358.14C173.086 358.46 173.012 358.813 173.012 359.2V365H170.932ZM183.449 365.2C182.369 365.2 181.409 364.973 180.569 364.52C179.743 364.053 179.089 363.42 178.609 362.62C178.143 361.82 177.909 360.9 177.909 359.86C177.909 359.033 178.043 358.28 178.309 357.6C178.576 356.92 178.943 356.333 179.409 355.84C179.889 355.333 180.456 354.947 181.109 354.68C181.776 354.4 182.496 354.26 183.269 354.26C183.949 354.26 184.583 354.393 185.169 354.66C185.756 354.913 186.263 355.267 186.689 355.72C187.129 356.173 187.463 356.713 187.689 357.34C187.929 357.953 188.043 358.627 188.029 359.36L188.009 360.24H179.429L178.969 358.6H186.229L185.929 358.94V358.46C185.889 358.02 185.743 357.627 185.489 357.28C185.236 356.933 184.916 356.66 184.529 356.46C184.143 356.26 183.723 356.16 183.269 356.16C182.549 356.16 181.943 356.3 181.449 356.58C180.956 356.847 180.583 357.247 180.329 357.78C180.076 358.3 179.949 358.947 179.949 359.72C179.949 360.453 180.103 361.093 180.409 361.64C180.716 362.173 181.149 362.587 181.709 362.88C182.269 363.173 182.916 363.32 183.649 363.32C184.169 363.32 184.649 363.233 185.089 363.06C185.543 362.887 186.029 362.573 186.549 362.12L187.589 363.58C187.269 363.9 186.876 364.18 186.409 364.42C185.956 364.66 185.469 364.853 184.949 365C184.443 365.133 183.943 365.2 183.449 365.2ZM195.168 365.2C194.088 365.2 193.128 364.973 192.288 364.52C191.461 364.053 190.808 363.42 190.328 362.62C189.861 361.82 189.628 360.9 189.628 359.86C189.628 359.033 189.761 358.28 190.028 357.6C190.295 356.92 190.661 356.333 191.128 355.84C191.608 355.333 192.175 354.947 192.828 354.68C193.495 354.4 194.215 354.26 194.988 354.26C195.668 354.26 196.301 354.393 196.888 354.66C197.475 354.913 197.981 355.267 198.408 355.72C198.848 356.173 199.181 356.713 199.408 357.34C199.648 357.953 199.761 358.627 199.748 359.36L199.728 360.24H191.148L190.688 358.6H197.948L197.648 358.94V358.46C197.608 358.02 197.461 357.627 197.208 357.28C196.955 356.933 196.635 356.66 196.248 356.46C195.861 356.26 195.441 356.16 194.988 356.16C194.268 356.16 193.661 356.3 193.168 356.58C192.675 356.847 192.301 357.247 192.048 357.78C191.795 358.3 191.668 358.947 191.668 359.72C191.668 360.453 191.821 361.093 192.128 361.64C192.435 362.173 192.868 362.587 193.428 362.88C193.988 363.173 194.635 363.32 195.368 363.32C195.888 363.32 196.368 363.233 196.808 363.06C197.261 362.887 197.748 362.573 198.268 362.12L199.308 363.58C198.988 363.9 198.595 364.18 198.128 364.42C197.675 364.66 197.188 364.853 196.668 365C196.161 365.133 195.661 365.2 195.168 365.2ZM213.552 365.12C212.472 365.12 211.506 364.887 210.652 364.42C209.799 363.94 209.126 363.287 208.632 362.46C208.152 361.62 207.912 360.673 207.912 359.62V350.98H210.072V359.44C210.072 360.12 210.232 360.733 210.552 361.28C210.872 361.813 211.292 362.24 211.812 362.56C212.346 362.88 212.926 363.04 213.552 363.04C214.219 363.04 214.819 362.88 215.352 362.56C215.899 362.24 216.332 361.813 216.652 361.28C216.972 360.733 217.132 360.12 217.132 359.44V350.98H219.192V359.62C219.192 360.673 218.946 361.62 218.452 362.46C217.972 363.287 217.306 363.94 216.452 364.42C215.599 364.887 214.632 365.12 213.552 365.12ZM224.717 360.76L224.597 358.34L231.937 351H234.777L224.717 360.76ZM222.917 365V351H225.077V365H222.917ZM232.197 365L226.837 357.84L228.437 356.46L234.897 365H232.197ZM247.031 365.2C246.071 365.2 245.211 364.967 244.451 364.5C243.704 364.02 243.111 363.373 242.671 362.56C242.231 361.733 242.011 360.793 242.011 359.74C242.011 358.687 242.224 357.753 242.651 356.94C243.091 356.113 243.684 355.467 244.431 355C245.178 354.52 246.024 354.28 246.971 354.28C247.491 354.28 247.991 354.367 248.471 354.54C248.964 354.7 249.404 354.927 249.791 355.22C250.178 355.5 250.478 355.813 250.691 356.16C250.918 356.493 251.031 356.833 251.031 357.18L250.431 357.22V350.2H252.491V365H250.431V362.5H250.831C250.831 362.82 250.724 363.14 250.511 363.46C250.298 363.767 250.011 364.053 249.651 364.32C249.304 364.587 248.898 364.8 248.431 364.96C247.978 365.12 247.511 365.2 247.031 365.2ZM247.311 363.42C247.938 363.42 248.491 363.26 248.971 362.94C249.451 362.62 249.824 362.187 250.091 361.64C250.371 361.08 250.511 360.447 250.511 359.74C250.511 359.033 250.371 358.407 250.091 357.86C249.824 357.3 249.451 356.86 248.971 356.54C248.491 356.22 247.938 356.06 247.311 356.06C246.684 356.06 246.131 356.22 245.651 356.54C245.171 356.86 244.791 357.3 244.511 357.86C244.244 358.407 244.111 359.033 244.111 359.74C244.111 360.447 244.244 361.08 244.511 361.64C244.791 362.187 245.171 362.62 245.651 362.94C246.131 363.26 246.684 363.42 247.311 363.42ZM260.227 365.2C259.147 365.2 258.187 364.973 257.347 364.52C256.52 364.053 255.867 363.42 255.387 362.62C254.92 361.82 254.687 360.9 254.687 359.86C254.687 359.033 254.82 358.28 255.087 357.6C255.353 356.92 255.72 356.333 256.187 355.84C256.667 355.333 257.233 354.947 257.887 354.68C258.553 354.4 259.273 354.26 260.047 354.26C260.727 354.26 261.36 354.393 261.947 354.66C262.533 354.913 263.04 355.267 263.467 355.72C263.907 356.173 264.24 356.713 264.467 357.34C264.707 357.953 264.82 358.627 264.807 359.36L264.787 360.24H256.207L255.747 358.6H263.007L262.707 358.94V358.46C262.667 358.02 262.52 357.627 262.267 357.28C262.013 356.933 261.693 356.66 261.307 356.46C260.92 356.26 260.5 356.16 260.047 356.16C259.327 356.16 258.72 356.3 258.227 356.58C257.733 356.847 257.36 357.247 257.107 357.78C256.853 358.3 256.727 358.947 256.727 359.72C256.727 360.453 256.88 361.093 257.187 361.64C257.493 362.173 257.927 362.587 258.487 362.88C259.047 363.173 259.693 363.32 260.427 363.32C260.947 363.32 261.427 363.233 261.867 363.06C262.32 362.887 262.807 362.573 263.327 362.12L264.367 363.58C264.047 363.9 263.653 364.18 263.187 364.42C262.733 364.66 262.247 364.853 261.727 365C261.22 365.133 260.72 365.2 260.227 365.2ZM267.085 365V350.2H269.145V365H267.085ZM272.405 365V354.5H274.465V365H272.405ZM273.405 352.18C272.965 352.18 272.625 352.067 272.385 351.84C272.145 351.613 272.025 351.293 272.025 350.88C272.025 350.493 272.145 350.18 272.385 349.94C272.638 349.7 272.978 349.58 273.405 349.58C273.845 349.58 274.185 349.693 274.425 349.92C274.665 350.147 274.785 350.467 274.785 350.88C274.785 351.267 274.658 351.58 274.405 351.82C274.165 352.06 273.832 352.18 273.405 352.18ZM281.071 365L276.631 354.5H278.851L282.051 362.36L281.671 362.54L285.091 354.5H287.211L282.551 365H281.071ZM293.703 365.2C292.623 365.2 291.663 364.973 290.823 364.52C289.997 364.053 289.343 363.42 288.863 362.62C288.397 361.82 288.163 360.9 288.163 359.86C288.163 359.033 288.297 358.28 288.563 357.6C288.83 356.92 289.197 356.333 289.663 355.84C290.143 355.333 290.71 354.947 291.363 354.68C292.03 354.4 292.75 354.26 293.523 354.26C294.203 354.26 294.837 354.393 295.423 354.66C296.01 354.913 296.517 355.267 296.943 355.72C297.383 356.173 297.717 356.713 297.943 357.34C298.183 357.953 298.297 358.627 298.283 359.36L298.263 360.24H289.683L289.223 358.6H296.483L296.183 358.94V358.46C296.143 358.02 295.997 357.627 295.743 357.28C295.49 356.933 295.17 356.66 294.783 356.46C294.397 356.26 293.977 356.16 293.523 356.16C292.803 356.16 292.197 356.3 291.703 356.58C291.21 356.847 290.837 357.247 290.583 357.78C290.33 358.3 290.203 358.947 290.203 359.72C290.203 360.453 290.357 361.093 290.663 361.64C290.97 362.173 291.403 362.587 291.963 362.88C292.523 363.173 293.17 363.32 293.903 363.32C294.423 363.32 294.903 363.233 295.343 363.06C295.797 362.887 296.283 362.573 296.803 362.12L297.843 363.58C297.523 363.9 297.13 364.18 296.663 364.42C296.21 364.66 295.723 364.853 295.203 365C294.697 365.133 294.197 365.2 293.703 365.2ZM300.522 365V354.5H302.602V357.8L302.402 357C302.549 356.493 302.795 356.033 303.142 355.62C303.502 355.207 303.909 354.88 304.362 354.64C304.829 354.4 305.309 354.28 305.802 354.28C306.029 354.28 306.242 354.3 306.442 354.34C306.655 354.38 306.822 354.427 306.942 354.48L306.402 356.72C306.242 356.653 306.062 356.6 305.862 356.56C305.675 356.507 305.489 356.48 305.302 356.48C304.942 356.48 304.595 356.553 304.262 356.7C303.942 356.833 303.655 357.027 303.402 357.28C303.162 357.52 302.969 357.807 302.822 358.14C302.675 358.46 302.602 358.813 302.602 359.2V365H300.522ZM310.348 369.6L312.468 364.7L312.488 366.34L307.248 354.5H309.648L312.928 362.22C312.995 362.353 313.075 362.56 313.168 362.84C313.262 363.107 313.342 363.373 313.408 363.64L312.888 363.76C312.995 363.48 313.095 363.2 313.188 362.92C313.295 362.64 313.395 362.36 313.488 362.08L316.228 354.5H318.668L314.348 365L312.568 369.6H310.348ZM330.535 365.2C329.508 365.2 328.588 364.967 327.775 364.5C326.975 364.02 326.342 363.373 325.875 362.56C325.408 361.733 325.175 360.793 325.175 359.74C325.175 358.687 325.408 357.753 325.875 356.94C326.342 356.113 326.975 355.467 327.775 355C328.588 354.52 329.508 354.28 330.535 354.28C331.548 354.28 332.455 354.52 333.255 355C334.068 355.467 334.708 356.113 335.175 356.94C335.642 357.753 335.875 358.687 335.875 359.74C335.875 360.793 335.642 361.733 335.175 362.56C334.708 363.373 334.068 364.02 333.255 364.5C332.455 364.967 331.548 365.2 330.535 365.2ZM330.535 363.32C331.162 363.32 331.722 363.167 332.215 362.86C332.708 362.54 333.095 362.113 333.375 361.58C333.655 361.033 333.788 360.42 333.775 359.74C333.788 359.047 333.655 358.433 333.375 357.9C333.095 357.353 332.708 356.927 332.215 356.62C331.722 356.313 331.162 356.16 330.535 356.16C329.908 356.16 329.342 356.32 328.835 356.64C328.342 356.947 327.955 357.373 327.675 357.92C327.395 358.453 327.262 359.06 327.275 359.74C327.262 360.42 327.395 361.033 327.675 361.58C327.955 362.113 328.342 362.54 328.835 362.86C329.342 363.167 329.908 363.32 330.535 363.32ZM338.12 365V354.5H340.18V356.66L339.82 356.9C339.953 356.433 340.213 356.007 340.6 355.62C340.986 355.22 341.446 354.9 341.98 354.66C342.513 354.407 343.06 354.28 343.62 354.28C344.42 354.28 345.086 354.44 345.62 354.76C346.153 355.067 346.553 355.54 346.82 356.18C347.086 356.82 347.22 357.627 347.22 358.6V365H345.16V358.74C345.16 358.14 345.08 357.647 344.92 357.26C344.76 356.86 344.513 356.573 344.18 356.4C343.846 356.213 343.433 356.133 342.94 356.16C342.54 356.16 342.173 356.227 341.84 356.36C341.506 356.48 341.213 356.653 340.96 356.88C340.72 357.107 340.526 357.373 340.38 357.68C340.246 357.973 340.18 358.293 340.18 358.64V365H339.16C338.986 365 338.813 365 338.64 365C338.466 365 338.293 365 338.12 365ZM359.66 365.2C358.793 365.2 358 364.96 357.28 364.48C356.573 364 356.006 363.347 355.58 362.52C355.153 361.693 354.94 360.76 354.94 359.72C354.94 358.667 355.153 357.733 355.58 356.92C356.02 356.093 356.606 355.447 357.34 354.98C358.086 354.513 358.92 354.28 359.84 354.28C360.386 354.28 360.886 354.36 361.34 354.52C361.793 354.68 362.186 354.907 362.52 355.2C362.866 355.48 363.146 355.807 363.36 356.18C363.586 356.553 363.726 356.953 363.78 357.38L363.32 357.22V354.5H365.4V365H363.32V362.5L363.8 362.36C363.72 362.72 363.553 363.073 363.3 363.42C363.06 363.753 362.746 364.053 362.36 364.32C361.986 364.587 361.566 364.8 361.1 364.96C360.646 365.12 360.166 365.2 359.66 365.2ZM360.2 363.3C360.826 363.3 361.38 363.147 361.86 362.84C362.34 362.533 362.713 362.113 362.98 361.58C363.26 361.033 363.4 360.413 363.4 359.72C363.4 359.04 363.26 358.433 362.98 357.9C362.713 357.367 362.34 356.947 361.86 356.64C361.38 356.333 360.826 356.18 360.2 356.18C359.586 356.18 359.04 356.333 358.56 356.64C358.093 356.947 357.72 357.367 357.44 357.9C357.173 358.433 357.04 359.04 357.04 359.72C357.04 360.413 357.173 361.033 357.44 361.58C357.72 362.113 358.093 362.533 358.56 362.84C359.04 363.147 359.586 363.3 360.2 363.3ZM368.316 365V350.2H370.376V365H368.316ZM373.335 365V350.2H375.395V365H373.335ZM388.64 365.2C387.614 365.2 386.694 364.967 385.88 364.5C385.08 364.02 384.447 363.373 383.98 362.56C383.514 361.733 383.28 360.793 383.28 359.74C383.28 358.687 383.514 357.753 383.98 356.94C384.447 356.113 385.08 355.467 385.88 355C386.694 354.52 387.614 354.28 388.64 354.28C389.654 354.28 390.56 354.52 391.36 355C392.174 355.467 392.814 356.113 393.28 356.94C393.747 357.753 393.98 358.687 393.98 359.74C393.98 360.793 393.747 361.733 393.28 362.56C392.814 363.373 392.174 364.02 391.36 364.5C390.56 364.967 389.654 365.2 388.64 365.2ZM388.64 363.32C389.267 363.32 389.827 363.167 390.32 362.86C390.814 362.54 391.2 362.113 391.48 361.58C391.76 361.033 391.894 360.42 391.88 359.74C391.894 359.047 391.76 358.433 391.48 357.9C391.2 357.353 390.814 356.927 390.32 356.62C389.827 356.313 389.267 356.16 388.64 356.16C388.014 356.16 387.447 356.32 386.94 356.64C386.447 356.947 386.06 357.373 385.78 357.92C385.5 358.453 385.367 359.06 385.38 359.74C385.367 360.42 385.5 361.033 385.78 361.58C386.06 362.113 386.447 362.54 386.94 362.86C387.447 363.167 388.014 363.32 388.64 363.32ZM396.225 365V354.5H398.305V357.8L398.105 357C398.252 356.493 398.498 356.033 398.845 355.62C399.205 355.207 399.612 354.88 400.065 354.64C400.532 354.4 401.012 354.28 401.505 354.28C401.732 354.28 401.945 354.3 402.145 354.34C402.358 354.38 402.525 354.427 402.645 354.48L402.105 356.72C401.945 356.653 401.765 356.6 401.565 356.56C401.378 356.507 401.192 356.48 401.005 356.48C400.645 356.48 400.298 356.553 399.965 356.7C399.645 356.833 399.358 357.027 399.105 357.28C398.865 357.52 398.672 357.807 398.525 358.14C398.378 358.46 398.305 358.813 398.305 359.2V365H396.225ZM408.222 365.2C407.262 365.2 406.402 364.967 405.642 364.5C404.896 364.02 404.302 363.373 403.862 362.56C403.422 361.733 403.202 360.793 403.202 359.74C403.202 358.687 403.416 357.753 403.842 356.94C404.282 356.113 404.876 355.467 405.622 355C406.369 354.52 407.216 354.28 408.162 354.28C408.682 354.28 409.182 354.367 409.662 354.54C410.156 354.7 410.596 354.927 410.982 355.22C411.369 355.5 411.669 355.813 411.882 356.16C412.109 356.493 412.222 356.833 412.222 357.18L411.622 357.22V350.2H413.682V365H411.622V362.5H412.022C412.022 362.82 411.916 363.14 411.702 363.46C411.489 363.767 411.202 364.053 410.842 364.32C410.496 364.587 410.089 364.8 409.622 364.96C409.169 365.12 408.702 365.2 408.222 365.2ZM408.502 363.42C409.129 363.42 409.682 363.26 410.162 362.94C410.642 362.62 411.016 362.187 411.282 361.64C411.562 361.08 411.702 360.447 411.702 359.74C411.702 359.033 411.562 358.407 411.282 357.86C411.016 357.3 410.642 356.86 410.162 356.54C409.682 356.22 409.129 356.06 408.502 356.06C407.876 356.06 407.322 356.22 406.842 356.54C406.362 356.86 405.982 357.3 405.702 357.86C405.436 358.407 405.302 359.033 405.302 359.74C405.302 360.447 405.436 361.08 405.702 361.64C405.982 362.187 406.362 362.62 406.842 362.94C407.322 363.26 407.876 363.42 408.502 363.42ZM421.418 365.2C420.338 365.2 419.378 364.973 418.538 364.52C417.711 364.053 417.058 363.42 416.578 362.62C416.111 361.82 415.878 360.9 415.878 359.86C415.878 359.033 416.011 358.28 416.278 357.6C416.545 356.92 416.911 356.333 417.378 355.84C417.858 355.333 418.425 354.947 419.078 354.68C419.745 354.4 420.465 354.26 421.238 354.26C421.918 354.26 422.551 354.393 423.138 354.66C423.725 354.913 424.231 355.267 424.658 355.72C425.098 356.173 425.431 356.713 425.658 357.34C425.898 357.953 426.011 358.627 425.998 359.36L425.978 360.24H417.398L416.938 358.6H424.198L423.898 358.94V358.46C423.858 358.02 423.711 357.627 423.458 357.28C423.205 356.933 422.885 356.66 422.498 356.46C422.111 356.26 421.691 356.16 421.238 356.16C420.518 356.16 419.911 356.3 419.418 356.58C418.925 356.847 418.551 357.247 418.298 357.78C418.045 358.3 417.918 358.947 417.918 359.72C417.918 360.453 418.071 361.093 418.378 361.64C418.685 362.173 419.118 362.587 419.678 362.88C420.238 363.173 420.885 363.32 421.618 363.32C422.138 363.32 422.618 363.233 423.058 363.06C423.511 362.887 423.998 362.573 424.518 362.12L425.558 363.58C425.238 363.9 424.845 364.18 424.378 364.42C423.925 364.66 423.438 364.853 422.918 365C422.411 365.133 421.911 365.2 421.418 365.2ZM428.237 365V354.5H430.317V357.8L430.117 357C430.264 356.493 430.51 356.033 430.857 355.62C431.217 355.207 431.624 354.88 432.077 354.64C432.544 354.4 433.024 354.28 433.517 354.28C433.744 354.28 433.957 354.3 434.157 354.34C434.37 354.38 434.537 354.427 434.657 354.48L434.117 356.72C433.957 356.653 433.777 356.6 433.577 356.56C433.39 356.507 433.204 356.48 433.017 356.48C432.657 356.48 432.31 356.553 431.977 356.7C431.657 356.833 431.37 357.027 431.117 357.28C430.877 357.52 430.684 357.807 430.537 358.14C430.39 358.46 430.317 358.813 430.317 359.2V365H428.237ZM439.803 365.2C438.923 365.2 438.13 365.047 437.423 364.74C436.717 364.433 436.13 363.98 435.663 363.38L437.063 362.18C437.463 362.647 437.897 362.987 438.363 363.2C438.843 363.4 439.383 363.5 439.983 363.5C440.223 363.5 440.443 363.473 440.643 363.42C440.857 363.353 441.037 363.26 441.183 363.14C441.343 363.02 441.463 362.88 441.543 362.72C441.623 362.547 441.663 362.36 441.663 362.16C441.663 361.813 441.537 361.533 441.283 361.32C441.15 361.227 440.937 361.127 440.643 361.02C440.363 360.9 439.997 360.78 439.543 360.66C438.77 360.46 438.137 360.233 437.643 359.98C437.15 359.727 436.77 359.44 436.503 359.12C436.303 358.867 436.157 358.593 436.063 358.3C435.97 357.993 435.923 357.66 435.923 357.3C435.923 356.86 436.017 356.46 436.203 356.1C436.403 355.727 436.67 355.407 437.003 355.14C437.35 354.86 437.75 354.647 438.203 354.5C438.67 354.353 439.163 354.28 439.683 354.28C440.177 354.28 440.663 354.347 441.143 354.48C441.637 354.613 442.09 354.807 442.503 355.06C442.917 355.313 443.263 355.613 443.543 355.96L442.363 357.26C442.11 357.007 441.83 356.787 441.523 356.6C441.23 356.4 440.93 356.247 440.623 356.14C440.317 356.033 440.037 355.98 439.783 355.98C439.503 355.98 439.25 356.007 439.023 356.06C438.797 356.113 438.603 356.193 438.443 356.3C438.297 356.407 438.183 356.54 438.103 356.7C438.023 356.86 437.983 357.04 437.983 357.24C437.997 357.413 438.037 357.58 438.103 357.74C438.183 357.887 438.29 358.013 438.423 358.12C438.57 358.227 438.79 358.34 439.083 358.46C439.377 358.58 439.75 358.693 440.203 358.8C440.87 358.973 441.417 359.167 441.843 359.38C442.283 359.58 442.63 359.813 442.883 360.08C443.15 360.333 443.337 360.627 443.443 360.96C443.55 361.293 443.603 361.667 443.603 362.08C443.603 362.68 443.43 363.22 443.083 363.7C442.75 364.167 442.297 364.533 441.723 364.8C441.15 365.067 440.51 365.2 439.803 365.2ZM456.199 365.2C455.172 365.2 454.252 364.967 453.439 364.5C452.639 364.02 452.006 363.373 451.539 362.56C451.072 361.733 450.839 360.793 450.839 359.74C450.839 358.687 451.072 357.753 451.539 356.94C452.006 356.113 452.639 355.467 453.439 355C454.252 354.52 455.172 354.28 456.199 354.28C457.212 354.28 458.119 354.52 458.919 355C459.732 355.467 460.372 356.113 460.839 356.94C461.306 357.753 461.539 358.687 461.539 359.74C461.539 360.793 461.306 361.733 460.839 362.56C460.372 363.373 459.732 364.02 458.919 364.5C458.119 364.967 457.212 365.2 456.199 365.2ZM456.199 363.32C456.826 363.32 457.386 363.167 457.879 362.86C458.372 362.54 458.759 362.113 459.039 361.58C459.319 361.033 459.452 360.42 459.439 359.74C459.452 359.047 459.319 358.433 459.039 357.9C458.759 357.353 458.372 356.927 457.879 356.62C457.386 356.313 456.826 356.16 456.199 356.16C455.572 356.16 455.006 356.32 454.499 356.64C454.006 356.947 453.619 357.373 453.339 357.92C453.059 358.453 452.926 359.06 452.939 359.74C452.926 360.42 453.059 361.033 453.339 361.58C453.619 362.113 454.006 362.54 454.499 362.86C455.006 363.167 455.572 363.32 456.199 363.32ZM466.931 365L462.491 354.5H464.711L467.911 362.36L467.531 362.54L470.951 354.5H473.071L468.411 365H466.931ZM479.563 365.2C478.483 365.2 477.523 364.973 476.683 364.52C475.856 364.053 475.203 363.42 474.723 362.62C474.256 361.82 474.023 360.9 474.023 359.86C474.023 359.033 474.156 358.28 474.423 357.6C474.689 356.92 475.056 356.333 475.523 355.84C476.003 355.333 476.569 354.947 477.223 354.68C477.889 354.4 478.609 354.26 479.383 354.26C480.063 354.26 480.696 354.393 481.283 354.66C481.869 354.913 482.376 355.267 482.803 355.72C483.243 356.173 483.576 356.713 483.803 357.34C484.043 357.953 484.156 358.627 484.143 359.36L484.123 360.24H475.543L475.083 358.6H482.343L482.043 358.94V358.46C482.003 358.02 481.856 357.627 481.603 357.28C481.349 356.933 481.029 356.66 480.643 356.46C480.256 356.26 479.836 356.16 479.383 356.16C478.663 356.16 478.056 356.3 477.563 356.58C477.069 356.847 476.696 357.247 476.443 357.78C476.189 358.3 476.063 358.947 476.063 359.72C476.063 360.453 476.216 361.093 476.523 361.64C476.829 362.173 477.263 362.587 477.823 362.88C478.383 363.173 479.029 363.32 479.763 363.32C480.283 363.32 480.763 363.233 481.203 363.06C481.656 362.887 482.143 362.573 482.663 362.12L483.703 363.58C483.383 363.9 482.989 364.18 482.523 364.42C482.069 364.66 481.583 364.853 481.063 365C480.556 365.133 480.056 365.2 479.563 365.2ZM486.381 365V354.5H488.461V357.8L488.261 357C488.408 356.493 488.655 356.033 489.001 355.62C489.361 355.207 489.768 354.88 490.221 354.64C490.688 354.4 491.168 354.28 491.661 354.28C491.888 354.28 492.101 354.3 492.301 354.34C492.515 354.38 492.681 354.427 492.801 354.48L492.261 356.72C492.101 356.653 491.921 356.6 491.721 356.56C491.535 356.507 491.348 356.48 491.161 356.48C490.801 356.48 490.455 356.553 490.121 356.7C489.801 356.833 489.515 357.027 489.261 357.28C489.021 357.52 488.828 357.807 488.681 358.14C488.535 358.46 488.461 358.813 488.461 359.2V365H486.381ZM502.553 363.94L501.053 363.52C501.253 363.413 501.433 363.233 501.593 362.98C501.753 362.727 501.88 362.427 501.973 362.08C502.067 361.733 502.113 361.367 502.113 360.98C502.113 360.793 502.1 360.607 502.073 360.42C502.06 360.233 502.033 360.027 501.993 359.8C501.953 359.56 501.887 359.293 501.793 359C501.713 358.707 501.607 358.36 501.473 357.96C501.313 357.467 501.193 357.06 501.113 356.74C501.033 356.42 500.973 356.147 500.933 355.92C500.907 355.693 500.893 355.473 500.893 355.26C500.893 354.367 501.08 353.587 501.453 352.92C501.827 352.24 502.347 351.72 503.013 351.36C503.693 350.987 504.493 350.8 505.413 350.8C506.307 350.8 507.08 350.953 507.733 351.26C508.4 351.553 508.887 351.967 509.193 352.5L507.713 353.62C507.513 353.407 507.293 353.233 507.053 353.1C506.813 352.953 506.553 352.847 506.273 352.78C506.007 352.7 505.72 352.66 505.413 352.66C504.92 352.66 504.48 352.773 504.093 353C503.72 353.227 503.427 353.54 503.213 353.94C503 354.327 502.893 354.773 502.893 355.28C502.893 355.693 502.96 356.147 503.093 356.64C503.24 357.12 503.38 357.553 503.513 357.94C503.647 358.34 503.78 358.773 503.913 359.24C504.047 359.693 504.113 360.12 504.113 360.52C504.113 360.92 504.053 361.313 503.933 361.7C503.827 362.073 503.66 362.447 503.433 362.82C503.207 363.18 502.913 363.553 502.553 363.94ZM507.113 365.42C506.807 365.42 506.427 365.36 505.973 365.24C505.533 365.12 505.167 365.013 504.873 364.92C504.7 364.867 504.493 364.807 504.253 364.74C504.013 364.673 503.773 364.613 503.533 364.56C503.293 364.507 503.08 364.48 502.893 364.48C502.467 364.48 502 364.54 501.493 364.66C501 364.767 500.507 364.92 500.013 365.12L499.213 363.7C499.733 363.38 500.313 363.14 500.953 362.98C501.593 362.807 502.24 362.72 502.893 362.72C503.28 362.72 503.633 362.753 503.953 362.82C504.273 362.887 504.72 363.02 505.293 363.22C505.573 363.313 505.873 363.413 506.193 363.52C506.513 363.613 506.82 363.66 507.113 363.66C507.487 363.66 507.86 363.607 508.233 363.5C508.607 363.38 508.987 363.2 509.373 362.96L510.413 364.26C510 364.633 509.5 364.92 508.913 365.12C508.34 365.32 507.74 365.42 507.113 365.42ZM499.493 358.54V356.84H507.653V358.54H499.493ZM514.555 364.02V352.66L515.295 353.22L512.535 354.68L511.955 352.8L515.695 350.8H516.735V364.02H514.555ZM512.335 365V362.92H519.015V365H512.335ZM526.275 365.2C525.208 365.2 524.288 364.907 523.515 364.32C522.755 363.733 522.168 362.907 521.755 361.84C521.342 360.76 521.135 359.48 521.135 358C521.135 356.52 521.342 355.247 521.755 354.18C522.168 353.1 522.755 352.267 523.515 351.68C524.288 351.093 525.208 350.8 526.275 350.8C527.342 350.8 528.262 351.093 529.035 351.68C529.808 352.267 530.402 353.1 530.815 354.18C531.228 355.247 531.435 356.52 531.435 358C531.435 359.48 531.228 360.76 530.815 361.84C530.402 362.907 529.808 363.733 529.035 364.32C528.262 364.907 527.342 365.2 526.275 365.2ZM526.275 363.24C527.248 363.24 528.002 362.787 528.535 361.88C529.068 360.96 529.335 359.667 529.335 358C529.335 356.333 529.068 355.047 528.535 354.14C528.002 353.22 527.248 352.76 526.275 352.76C525.302 352.76 524.548 353.22 524.015 354.14C523.482 355.047 523.215 356.333 523.215 358C523.215 359.667 523.482 360.96 524.015 361.88C524.548 362.787 525.302 363.24 526.275 363.24Z" fill="#8B929D"/>
<rect x="235" y="418" width="220" height="70" rx="8" fill="#202020"/>
<path d="M278.262 455.6C278.63 456.24 279.022 456.808 279.438 457.304C279.87 457.784 280.342 458.16 280.854 458.432C281.366 458.688 281.942 458.816 282.582 458.816C283.35 458.816 283.974 458.608 284.454 458.192C284.934 457.776 285.174 457.24 285.174 456.584C285.174 455.96 285.022 455.464 284.718 455.096C284.414 454.712 283.99 454.392 283.446 454.136C282.918 453.864 282.302 453.6 281.598 453.344C281.182 453.2 280.718 453.008 280.206 452.768C279.694 452.512 279.206 452.2 278.742 451.832C278.278 451.448 277.894 450.984 277.59 450.44C277.286 449.88 277.134 449.208 277.134 448.424C277.134 447.528 277.366 446.744 277.83 446.072C278.294 445.384 278.918 444.856 279.702 444.488C280.502 444.104 281.406 443.912 282.414 443.912C283.406 443.912 284.27 444.088 285.006 444.44C285.742 444.792 286.358 445.24 286.854 445.784C287.366 446.328 287.766 446.896 288.054 447.488L285.75 448.784C285.542 448.368 285.278 447.984 284.958 447.632C284.638 447.264 284.262 446.976 283.83 446.768C283.414 446.544 282.926 446.432 282.366 446.432C281.582 446.432 281.006 446.616 280.638 446.984C280.27 447.336 280.086 447.752 280.086 448.232C280.086 448.664 280.214 449.056 280.47 449.408C280.742 449.744 281.158 450.064 281.718 450.368C282.278 450.672 283.006 450.984 283.902 451.304C284.398 451.48 284.894 451.704 285.39 451.976C285.902 452.248 286.366 452.592 286.782 453.008C287.198 453.408 287.526 453.88 287.766 454.424C288.022 454.968 288.15 455.608 288.15 456.344C288.15 457.128 287.998 457.832 287.694 458.456C287.39 459.08 286.974 459.608 286.446 460.04C285.918 460.456 285.318 460.776 284.646 461C283.99 461.24 283.302 461.36 282.582 461.36C281.59 461.36 280.67 461.168 279.822 460.784C278.99 460.384 278.262 459.856 277.638 459.2C277.014 458.544 276.518 457.832 276.15 457.064L278.262 455.6ZM292.984 453.296V450.68H304.96V453.296H292.984ZM303.136 444.2H305.968V461H303.136V444.2ZM291.856 444.2H294.688V461H291.856V444.2ZM312.556 452.6C312.556 453.752 312.796 454.784 313.276 455.696C313.772 456.592 314.452 457.296 315.316 457.808C316.18 458.32 317.164 458.576 318.268 458.576C319.388 458.576 320.372 458.32 321.22 457.808C322.084 457.296 322.756 456.592 323.236 455.696C323.732 454.784 323.98 453.752 323.98 452.6C323.98 451.448 323.74 450.424 323.26 449.528C322.78 448.616 322.108 447.904 321.244 447.392C320.396 446.88 319.404 446.624 318.268 446.624C317.164 446.624 316.18 446.88 315.316 447.392C314.452 447.904 313.772 448.616 313.276 449.528C312.796 450.424 312.556 451.448 312.556 452.6ZM309.556 452.6C309.556 451.336 309.772 450.176 310.204 449.12C310.636 448.064 311.244 447.152 312.028 446.384C312.828 445.6 313.756 444.992 314.812 444.56C315.884 444.128 317.036 443.912 318.268 443.912C319.532 443.912 320.692 444.128 321.748 444.56C322.804 444.992 323.724 445.6 324.508 446.384C325.308 447.152 325.924 448.064 326.356 449.12C326.788 450.176 327.004 451.336 327.004 452.6C327.004 453.848 326.788 455.008 326.356 456.08C325.924 457.152 325.316 458.08 324.532 458.864C323.748 459.648 322.82 460.264 321.748 460.712C320.692 461.144 319.532 461.36 318.268 461.36C317.02 461.36 315.86 461.144 314.788 460.712C313.716 460.264 312.788 459.648 312.004 458.864C311.236 458.08 310.636 457.152 310.204 456.08C309.772 455.008 309.556 453.848 309.556 452.6ZM330.558 444.2H333.39V461H330.558V444.2ZM332.238 446.696V444.2H335.622C336.838 444.2 337.894 444.416 338.79 444.848C339.702 445.264 340.406 445.864 340.902 446.648C341.398 447.416 341.646 448.336 341.646 449.408C341.646 450.48 341.398 451.408 340.902 452.192C340.406 452.976 339.702 453.584 338.79 454.016C337.894 454.432 336.838 454.64 335.622 454.64H332.238V452.144H335.622C336.598 452.144 337.382 451.912 337.974 451.448C338.566 450.984 338.862 450.304 338.862 449.408C338.862 448.512 338.566 447.84 337.974 447.392C337.382 446.928 336.598 446.696 335.622 446.696H332.238ZM365.492 444.2H368.276V461.84L356.012 449.72V461H353.228V443.36L365.492 455.48V444.2ZM374.842 452.6C374.842 453.752 375.082 454.784 375.562 455.696C376.058 456.592 376.738 457.296 377.602 457.808C378.466 458.32 379.45 458.576 380.554 458.576C381.674 458.576 382.658 458.32 383.506 457.808C384.37 457.296 385.042 456.592 385.522 455.696C386.018 454.784 386.266 453.752 386.266 452.6C386.266 451.448 386.026 450.424 385.546 449.528C385.066 448.616 384.394 447.904 383.53 447.392C382.682 446.88 381.69 446.624 380.554 446.624C379.45 446.624 378.466 446.88 377.602 447.392C376.738 447.904 376.058 448.616 375.562 449.528C375.082 450.424 374.842 451.448 374.842 452.6ZM371.842 452.6C371.842 451.336 372.058 450.176 372.49 449.12C372.922 448.064 373.53 447.152 374.314 446.384C375.114 445.6 376.042 444.992 377.098 444.56C378.17 444.128 379.322 443.912 380.554 443.912C381.818 443.912 382.978 444.128 384.034 444.56C385.09 444.992 386.01 445.6 386.794 446.384C387.594 447.152 388.21 448.064 388.642 449.12C389.074 450.176 389.29 451.336 389.29 452.6C389.29 453.848 389.074 455.008 388.642 456.08C388.21 457.152 387.602 458.08 386.818 458.864C386.034 459.648 385.106 460.264 384.034 460.712C382.978 461.144 381.818 461.36 380.554 461.36C379.306 461.36 378.146 461.144 377.074 460.712C376.002 460.264 375.074 459.648 374.29 458.864C373.522 458.08 372.922 457.152 372.49 456.08C372.058 455.008 371.842 453.848 371.842 452.6ZM407.309 455.456L411.245 444.2H414.533L407.669 461.888L402.485 450.008L397.301 461.888L390.437 444.2H393.725L397.709 455.456L402.485 443.36L407.309 455.456Z" fill="white"/>
<rect x="652.267" width="1269" height="693"/>
</svg>
